<svg id="Layer_1" data-name="Layer 1" xmlns="http://www.w3.org/2000/svg" viewBox="0 0 1080 1080"><title>MS just Logo 1</title><path d="M757.37,498.13c-23.71-50.93-33.34-72.3-31.27-118.4,2.18-48.61,27.11-153.11,27.11-153.11s-34.49,77.06-51.1,121.53c-16.88,45.19-35.58,128.05-35.58,128.05s3.94,10.37,6.06,15.48A290,290,0,0,0,686,520.08c12.19,22.06,41.67,64,32.17,121.72-11.41,69.27-77.38,174.91-78.33,176.46,1.44-1.1,112-76.81,138-162.58C792,608.75,781.08,549.05,757.37,498.13Z" fill="#fff"/><path d="M744.28,226.62S709.53,303,692.7,348.15,657.11,476.2,657.11,476.2l-110.59,162L455,530.51,295.9,853.38,434.52,361.84l112,153.69Z" fill="#fff"/></svg>