<svg id="Layer_1" data-name="Layer 1" xmlns="http://www.w3.org/2000/svg" xmlns:xlink="http://www.w3.org/1999/xlink" viewBox="0 0 800 580"><defs><style>.cls-1{font-size:25.88px;fill:none;font-family:SamarkanNormal, Samarkan;}.cls-10,.cls-11,.cls-12,.cls-2,.cls-3,.cls-4,.cls-5,.cls-6,.cls-7,.cls-8,.cls-9{font-size:18.64px;}.cls-10,.cls-11,.cls-12,.cls-17,.cls-2,.cls-3,.cls-4,.cls-5,.cls-6,.cls-7,.cls-8,.cls-9{font-family:ADAM.CGPRO, "ADAM.CG PRO";}.cls-3{letter-spacing:-0.01em;}.cls-4{letter-spacing:0.02em;}.cls-5{letter-spacing:-0.02em;}.cls-6{letter-spacing:-0.02em;}.cls-7{letter-spacing:0em;}.cls-8{letter-spacing:-0.04em;}.cls-9{letter-spacing:-0.01em;}.cls-10{letter-spacing:-0.06em;}.cls-11{letter-spacing:-0.08em;}.cls-12{letter-spacing:0em;}.cls-13{clip-path:url(#clip-path);}.cls-14,.cls-17,.cls-18{fill:#fff;}.cls-15{fill:#f93;}.cls-16{fill:#138808;}.cls-17{font-size:131.63px;letter-spacing:-0.06em;}.cls-18{font-size:24.52px;font-family:BellMTBold, Bell MT;letter-spacing:-0.01em;}.cls-19{letter-spacing:-0.04em;}.cls-20{letter-spacing:-0.01em;}.cls-21{letter-spacing:-0.02em;}.cls-22{letter-spacing:-0.01em;}.cls-23{letter-spacing:-0.03em;}.cls-24{letter-spacing:-0.05em;}</style><clipPath id="clip-path"><text class="cls-1" transform="translate(356.35 455.55)">Ananta <tspan class="cls-2" x="81.38" y="0">- K</tspan><tspan class="cls-3" x="107.84" y="0">a</tspan><tspan class="cls-4" x="120.64" y="0">l</tspan><tspan class="cls-2" x="130.63" y="0">am: A limitle</tspan><tspan class="cls-5" x="255.04" y="0">s</tspan><tspan class="cls-2" x="264.45" y="0">s t</tspan><tspan class="cls-6" x="290.76" y="0">r</tspan><tspan class="cls-7" x="302.42" y="0">aj</tspan><tspan class="cls-8" x="323.2" y="0">e</tspan><tspan class="cls-9" x="333.4" y="0">c</tspan><tspan class="cls-10" x="345.73" y="0">t</tspan><tspan class="cls-2" x="355.44" y="0">o</tspan><tspan class="cls-11" x="371.26" y="0">r</tspan><tspan class="cls-12" x="381.74" y="0">y</tspan></text></clipPath></defs><g class="cls-13"><rect class="cls-14" x="339.62" y="430.6" width="415.17" height="29.18"/><rect class="cls-15" x="340.56" y="431.53" width="101.27" height="14.98"/><rect class="cls-16" x="340.56" y="451.98" width="101.27" height="10.77"/></g><polygon class="cls-14" points="24.01 321.28 24.01 420.84 38.99 420.84 38.99 369.81 75.96 423.07 112.93 369.81 112.93 420.84 128.16 420.84 128.16 321.28 76.08 396.44 24.01 321.28"/><rect class="cls-14" x="138.06" y="345.03" width="12.32" height="75.81"/><polygon class="cls-14" points="213.21 394.54 160.53 343.94 160.53 420.84 172.13 420.84 172.13 371.84 224.81 422.44 224.81 345.03 213.21 345.03 213.21 394.54"/><path class="cls-14" d="M251.5,345H231.09v75.81H251.5a36,36,0,0,0,26.58-11.2,38.1,38.1,0,0,0,0-53.58A36,36,0,0,0,251.5,345Zm18.22,56.11a24.71,24.71,0,0,1-18.19,7.72h-8.11V356.77h8.11a24.59,24.59,0,0,1,18.19,7.59,26.12,26.12,0,0,1,0,36.78Z"/><path class="cls-14" d="M344.3,372.07q-5.06-4-18.62-7.28-7.76-1.85-10.66-3.9-4.86-3.31-4.86-10.21a13.52,13.52,0,0,1,4-9.84,13.18,13.18,0,0,1,9.72-4.08,13.38,13.38,0,0,1,7.19,2,13.61,13.61,0,0,1,5.05,5.55l13.5-6.89A29,29,0,0,0,339,325.77a28,28,0,0,0-15.08-4.34A27.67,27.67,0,0,0,303.47,330,28.33,28.33,0,0,0,295,350.68q0,15,8.52,21.71,5,4,18.61,7.28c5.17,1.24,8.73,2.53,10.66,3.9q4.8,3.31,4.8,10.21a12.67,12.67,0,0,1-4.36,9.39,15.62,15.62,0,0,1-11,4.47,16.29,16.29,0,0,1-10-3.45,12.56,12.56,0,0,1-5.12-7.47l-14.82,3.19a27.32,27.32,0,0,0,10.91,16.54,30.64,30.64,0,0,0,19,6.52,30.15,30.15,0,0,0,21.26-8.56q9.27-8.69,9.28-20.63Q352.82,378.78,344.3,372.07Z"/><path class="cls-14" d="M404.9,370.65a24.84,24.84,0,0,0-7.53-18.18,24.33,24.33,0,0,0-18-7.44H356.26v75.81h12.32V396.63h10.76a24.49,24.49,0,0,0,18-7.66A25.1,25.1,0,0,0,404.9,370.65ZM389,380.24a12.94,12.94,0,0,1-9.63,3.92H368.58V357h10.74a13,13,0,0,1,9.63,4,13.57,13.57,0,0,1,0,19.24Z"/><path class="cls-14" d="M395.61,420.84H408.5l5.94-14.19h27.85l5.94,14.19h12.93L428.36,343Zm23.56-25.43,9.19-21.82,9.2,21.82Z"/><path class="cls-14" d="M504.58,388.84a25.78,25.78,0,0,0,0-36.38,24.4,24.4,0,0,0-18-7.43h-24v75.81h11.84V396.38h9.24l15.9,24.46h13.81l-17-26.4A25.41,25.41,0,0,0,504.58,388.84Zm-18-4.2H474.42V357h12.19a13,13,0,0,1,9.6,4,13.19,13.19,0,0,1,4,9.69,13.45,13.45,0,0,1-4,9.8A13,13,0,0,1,486.61,384.64Z"/><polygon class="cls-14" points="570.34 352.11 574.44 376.08 627.09 305.13 581.76 353.07 576.77 328.79 560.84 345.03 561.16 345.03 549.04 357.05 547.15 358.72 547.15 358.72 527.58 378.57 527.58 345.03 515.74 345.03 515.74 420.84 527.58 420.84 527.58 395.29 534.5 388.29 560.3 420.84 575.48 420.84 543.05 379.73 570.34 352.11"/><text class="cls-17" transform="translate(607.48 421.12) scale(1.06 1)">22</text><path class="cls-14" d="M524.09,176.3c-4.83-10.38-6.8-14.74-6.38-24.13.45-9.91,5.53-31.2,5.53-31.2s-7,15.7-10.41,24.76c-3.44,9.21-7.25,26.1-7.25,26.1s.8,2.11,1.23,3.15a58.06,58.06,0,0,0,2.72,5.79c2.49,4.49,8.49,13,6.56,24.8-2.33,14.12-15.77,35.64-16,36,.29-.23,22.82-15.65,28.11-33.13C531.13,198.84,528.92,186.67,524.09,176.3Z"/><path class="cls-14" d="M521.42,121s-7.08,15.56-10.51,24.76-7.25,26.1-7.25,26.1l-22.54,33-18.64-22-32.43,65.79L458.3,148.52l22.82,31.32Z"/><path class="cls-14" d="M367.05,176.66a5.59,5.59,0,0,1,.9-.06l.89,0c.29,0,.58,0,.88-.07,0-.13,0-.22,0-.31a32.24,32.24,0,0,0-.72-3.9,36,36,0,0,0-1.32-4.33c-.27-.68-.53-1.36-.82-2a32.85,32.85,0,0,0-1.46-3c-.31-.56-.61-1.12-.95-1.66-.46-.74-.94-1.47-1.44-2.18s-1-1.36-1.51-2-.89-1.09-1.36-1.6c-.63-.69-1.28-1.37-1.92-2a1.55,1.55,0,0,0-.52-.42,2.5,2.5,0,0,0-.24.22c-.41.48-.82,1-1.24,1.45l-.23.25a1.93,1.93,0,0,1-.21-.13c-1-.85-2-1.73-3-2.56-.62-.51-1.3-1-2-1.43-.85-.6-1.72-1.19-2.57-1.78a1.33,1.33,0,0,1-.22-.2,2.8,2.8,0,0,1,.14-.25l.95-1.27a1.38,1.38,0,0,0,.26-.46c-.08,0-.14-.12-.22-.16-1.18-.66-2.39-1.27-3.63-1.81-1-.42-2-.81-2.95-1.17a37.75,37.75,0,0,0-4-1.21c-.87-.22-1.74-.39-2.6-.58-1-.22-2.06-.35-3.1-.48-.15,0-.3,0-.45-.06a1.21,1.21,0,0,1-.07-.52c0-1.84,0-3.68,0-5.52q0-4.07,0-8.13a.71.71,0,0,0-.07-.45,51.81,51.81,0,0,0-9.34-.1,8.42,8.42,0,0,0,0,1.33c0,.43,0,.87,0,1.31s0,.9,0,1.35,0,.88,0,1.31,0,.91,0,1.36,0,.87,0,1.31,0,.9,0,1.35v1.31c0,.45,0,.9,0,1.36s0,.87,0,1.3,0,.9,0,1.38l-.31.09c-.85.12-1.7.21-2.55.36a43.6,43.6,0,0,0-5,1.16c-1.13.33-2.25.71-3.35,1.14a41.3,41.3,0,0,0-4,1.76c-.53.27-1,.56-1.56.84l-.25.17a5,5,0,0,0,.68,1l.69,1a.75.75,0,0,1-.13.16c-1,.69-2,1.38-3,2.09a28.73,28.73,0,0,0-2.62,2l-1.93,1.69a1.37,1.37,0,0,1-.25.15L297.57,153a1.37,1.37,0,0,0-.25.15c-.53.52-1.07,1-1.58,1.59s-1.14,1.28-1.69,1.93c-.71.85-1.38,1.74-2,2.65-.49.73-1,1.48-1.44,2.23q-.39.62-.72,1.26c-.52,1-1,2-1.48,3s-.82,2-1.18,3a31.53,31.53,0,0,0-1.22,4.45c-.18.87-.31,1.75-.46,2.63a1,1,0,0,0,0,.52c.43.09.87.06,1.3.11a12.2,12.2,0,0,1,1.32.09,1.39,1.39,0,0,1,0,.27c-.06,1-.11,2.09-.18,3.13a26.82,26.82,0,0,0,.23,5.59c.12.93.28,1.85.42,2.77,0,.12,0,.24,0,.38a.92.92,0,0,1-.5-.18l-4.09-2.14-2.44-1.28-.21-.1c-.18.07-.26.23-.36.37L278.67,189c-.94,1.34-1.87,2.68-2.81,4l-.24.28a1,1,0,0,1-.09-.17l-.45-2.3c-.16-.92-.33-1.84-.48-2.76a34.75,34.75,0,0,1-.39-4c0-.54,0-1.09-.07-1.63,0-.17,0-.34,0-.47s-.29-.12-.42-.12H271l-.44,0a.55.55,0,0,1-.09-.47c0-1.23,0-2.46.11-3.69a48.14,48.14,0,0,1,.72-5.74c.15-.82.32-1.62.5-2.43.34-1.47.74-2.92,1.22-4.36s1.08-3,1.73-4.53q1.08-2.46,2.4-4.8c.69-1.22,1.42-2.42,2.21-3.58s1.76-2.49,2.72-3.68a51.17,51.17,0,0,1,4.49-4.94c.78-.76,1.59-1.48,2.41-2.21s1.42-1.25,2.14-1.87c.28-.24.58-.47.89-.71a11.9,11.9,0,0,1,1.08,1.31c.35.43.68.88,1,1.33a6.21,6.21,0,0,0,.82-.56c0-.19-.1-.3-.19-.42-.49-.65-1-1.29-1.46-1.94a3.13,3.13,0,0,1-.22-.36,1.36,1.36,0,0,1,.18-.17c.9-.6,1.78-1.21,2.68-1.79.69-.44,1.38-.85,2.09-1.25s1.41-.79,2.13-1.16c1-.51,2-1,3.06-1.49a54.52,54.52,0,0,1,5.53-2.15,1.12,1.12,0,0,1,.55-.08.83.83,0,0,0,.22,0c.16,0,.2-.14.16-.29a.36.36,0,0,0-.43,0,1.23,1.23,0,0,1-.52.2l-3.25.61c-.11,0-.22,0-.35,0a1.41,1.41,0,0,1-.05-.27,2.62,2.62,0,0,1,0-.28V118.4c0-.17,0-.34,0-.5a1.77,1.77,0,0,1,.63-.25c1.62-.53,3.26-1,4.93-1.43.71-.17,1.42-.32,2.13-.5,1.17-.29,2.35-.47,3.53-.69,1.41-.26,2.84-.42,4.26-.56,1.24-.12,2.48-.23,3.73-.28,1.55,0,3.11-.06,4.67,0,1.35,0,2.71.1,4.06.2,1,.07,2,.21,3,.33.62.07,1.24.13,1.85.24,1.26.23,2.52.39,3.77.7.69.17,1.4.28,2.1.45,1.45.36,2.89.74,4.33,1.13.59.16,1.16.35,1.74.53l.25.1a.92.92,0,0,1,.08.51V130a1.77,1.77,0,0,1,0,.56.48.48,0,0,1-.37,0l-2.84-.53a1,1,0,0,0-.61,0s0,.11.07.12a2.07,2.07,0,0,0,.34.15c1.39.45,2.76,1,4.11,1.55,1,.42,2,.88,3,1.36s2,1,2.94,1.53,1.67,1,2.49,1.49,1.87,1.24,2.8,1.86l.12.12a1.92,1.92,0,0,1-.18.31c-.5.68-1,1.35-1.51,2a.57.57,0,0,0-.18.39,4.29,4.29,0,0,0,.79.56c.75-.85,1.39-1.77,2.11-2.64.25.19.49.34.7.52l2.39,2.09c.53.46,1.06.91,1.57,1.4.66.63,1.32,1.28,2,1.93s1,1.08,1.53,1.64,1,1.15,1.48,1.75c.68.85,1.34,1.71,2,2.59s1.06,1.53,1.58,2.31c.65,1,1.23,2,1.81,3s1.18,2.22,1.72,3.36.95,2.1,1.37,3.17c.33.86.63,1.73.92,2.6s.55,1.78.81,2.68c.07.21.11.42.17.63.35,1.44.65,2.88.9,4.34.29,1.73.45,3.46.57,5.2.08,1.09.11,2.18.11,3.27a1.1,1.1,0,0,1-.06.53,11.16,11.16,0,0,1-1.16,0h-2.3a.58.58,0,0,0-.14.47c0,.81-.05,1.62-.12,2.43-.08,1-.16,2.05-.31,3.06-.19,1.28-.46,2.54-.69,3.81l-.21,1.2-.1.44a1.05,1.05,0,0,1-.36-.37l-2.65-3.8c-.86-1.23-1.74-2.46-2.61-3.7-.07-.1-.15-.18-.24-.29a10.68,10.68,0,0,0-1.22.61c-.4.23-.8.42-1.2.63l-1.2.63-1.2.63c-.4.21-.79.43-1.2.63s-.78.44-1.17.6a.16.16,0,0,1-.1-.22c.06-.38.14-.76.19-1.15.17-1.31.35-2.62.5-3.93a11.56,11.56,0,0,0,.05-1.31,28.87,28.87,0,0,0-.09-2.94c-.07-.78-.1-1.56-.15-2.33C367,176.86,367,176.77,367.05,176.66ZM291.8,140.94l-.33.26-1,.83c-.79.7-1.6,1.39-2.36,2.11s-1.53,1.51-2.27,2.29a52.58,52.58,0,0,0-3.84,4.58c-.74,1-1.43,2-2.1,3s-1.31,2.15-1.92,3.26a47.46,47.46,0,0,0-2.11,4.37c-.45,1.05-.86,2.13-1.24,3.22s-.65,2.05-.94,3.08-.51,2-.73,2.94c-.16.75-.28,1.5-.4,2.25s-.26,1.57-.35,2.36c-.15,1.36-.22,2.73-.28,4.1a1.44,1.44,0,0,0,0,.65,1.29,1.29,0,0,0,.55,0h10.61a.94.94,0,0,0,.5-.05s0-.06,0-.09,0-.25,0-.37a37,37,0,0,1,.61-5.76,41,41,0,0,1,1.14-4.62,34.73,34.73,0,0,1,1.51-4.06c.43-1,.9-1.95,1.4-2.9s1-1.77,1.53-2.62a36.39,36.39,0,0,1,2.14-3.06c.46-.58.91-1.15,1.38-1.71s.94-1,1.41-1.56c.68-.75,1.41-1.44,2.16-2.13l1.39-1.24a2.87,2.87,0,0,0,.29-.31.91.91,0,0,0-.12-.22l-.54-.7L296,146.25c-.86-1.11-1.73-2.21-2.59-3.31-.46-.59-.91-1.19-1.37-1.77A1.64,1.64,0,0,0,291.8,140.94Zm91.43,39.31c0-.1,0-.21,0-.31a35.81,35.81,0,0,0-.24-4c-.2-1.65-.43-3.3-.78-4.94-.29-1.33-.61-2.67-1-4a48,48,0,0,0-1.93-5.35c-.3-.69-.59-1.38-.92-2-.49-1-1-1.94-1.51-2.89s-.94-1.62-1.43-2.41c-.64-1-1.3-2-2-3s-1.34-1.76-2-2.61-1.3-1.51-2-2.23c-.9-.94-1.81-1.86-2.75-2.74s-1.93-1.72-2.9-2.57c-.1-.09-.19-.21-.35-.19s-.07,0-.08,0l-6.44,8.24c-.12.15-.22.3-.33.45a.09.09,0,0,0,0,.05v.09l.45.42c.62.56,1.25,1.12,1.86,1.7a38.79,38.79,0,0,1,2.86,3,42.33,42.33,0,0,1,3.51,4.71c.6.95,1.17,1.91,1.69,2.91l.77,1.54c.52,1,.94,2.11,1.36,3.18.28.72.5,1.47.74,2.21a36.28,36.28,0,0,1,1.05,4.26c.12.64.22,1.28.31,1.93s.19,1.52.25,2.28.07,1.24.1,1.86c0,.14,0,.28.14.42h.48l6.26,0h4.3A1,1,0,0,0,383.23,180.25Zm-76.6-51.78.48-.14c1.26-.39,2.52-.81,3.79-1.16,1.63-.45,3.29-.83,5-1.14q1-.18,2-.33c.75-.11,1.51-.23,2.26-.31,1.33-.15,2.67-.25,4-.32a64.78,64.78,0,0,1,7.24.05c1.44.09,2.88.22,4.32.43s2.68.39,4,.65c1.68.33,3.35.7,5,1.15,1.25.34,2.48.7,3.71,1.09a1.24,1.24,0,0,0,.27,0,1.23,1.23,0,0,0,0-.53c0-1.34,0-2.68,0-4s0-3,0-4.44c0-.17.05-.34-.06-.5a.67.67,0,0,0-.12-.06l-1.84-.53c-.54-.15-1.09-.3-1.63-.43-1-.25-2.05-.5-3.09-.73-.66-.15-1.34-.25-2-.39-1.62-.35-3.26-.55-4.89-.75-1.84-.23-3.69-.34-5.55-.39a64.49,64.49,0,0,0-10.67.5c-1.22.16-2.44.34-3.65.56-1.54.3-3.08.62-4.6,1-1.14.3-2.27.65-3.41,1l-.57.19c0,.12,0,.21,0,.3C306.54,121,306.56,128,306.63,128.47Zm-11.46,10.08L297,141c.66.89,1.33,1.77,2,2.65.89,1.2,1.77,2.41,2.67,3.61a.38.38,0,0,0,.32.21l.37-.22c.89-.55,1.76-1.11,2.66-1.64a42.81,42.81,0,0,1,5.45-2.65c1.11-.46,2.25-.85,3.39-1.21a39.6,39.6,0,0,1,4-1.06c1.05-.22,2.11-.39,3.17-.58.1,0,.2-.06.3-.09s0-.27,0-.39l0-5c0-.77,0-1.55,0-2.33,0-.94,0-1.87,0-2.81a.6.6,0,0,0-.09-.46.91.91,0,0,0-.17,0l-.7.08c-1.23.15-2.46.33-3.69.57-1.71.33-3.41.72-5.09,1.19-1.51.42-3,.91-4.48,1.46-1.19.45-2.38.91-3.53,1.46l-2,.95q-.66.32-1.29.66-1.35.75-2.67,1.53c-.71.42-1.4.88-2.1,1.32A4,4,0,0,0,295.17,138.55ZM334,140l.2.05,1.66.27a45.3,45.3,0,0,1,14.24,5.13c1,.56,2,1.15,2.9,1.79a.8.8,0,0,0,.45.19c.57-.69,1.09-1.44,1.64-2.17s1.12-1.5,1.68-2.25,1.1-1.46,1.64-2.21,1.14-1.47,1.65-2.24a29.11,29.11,0,0,0-5.17-3.19,57.72,57.72,0,0,0-17.65-6,19,19,0,0,0-3.35-.35c0,.09,0,.2,0,.3C333.76,131.64,333.86,139.52,334,140Zm34.49,46.09a3.55,3.55,0,0,0,1-.46l1-.49.95-.5,1-.52c.32-.17.63-.35.95-.5a4.55,4.55,0,0,1,1-.46l.17.22,1.39,2c.5.72,1,1.43,1.51,2.14l1.28,1.84c.06.07.12.15.26.07a43.31,43.31,0,0,0,.71-6.55,3.42,3.42,0,0,0,0-1,.86.86,0,0,0-.52-.06l-8.45,0a1.18,1.18,0,0,1-.58-.06c-.1-.25-.2-.53-.3-.8l-.34-.87-.3-.84a1.78,1.78,0,0,0-.48-.85c0,.68.06,1.29.09,1.9s0,1.28,0,1.92-.05,1.24-.1,1.86S368.48,185.4,368.45,186.1Zm-81.68,0a1.24,1.24,0,0,0,0-.25c0-.3-.07-.59-.1-.88a25.58,25.58,0,0,1-.14-5.32c0-.36.05-.71.07-1.07,0-.08,0-.16-.1-.21a8.23,8.23,0,0,0-.46,1.16c-.14.37-.29.75-.43,1.13a8.5,8.5,0,0,1-.5,1.18h-9a.78.78,0,0,0-.47.06.86.86,0,0,0,0,.17,40.1,40.1,0,0,0,.56,6.37l.18,1s0,0,.11.09c.75-1,1.48-2.11,2.22-3.16s1.49-2.14,2.28-3.22l1.46.76,1.4.75c.49.25,1,.51,1.46.75A11.35,11.35,0,0,0,286.77,186.13Zm14.79-36.59-.19-.22-1.83-2.47-2.93-3.93c-.17-.23-.35-.47-.54-.7a.21.21,0,0,0-.29-.06,3.29,3.29,0,0,0-.68.54c1.89,2.45,3.8,4.86,5.68,7.3-.06.13-.11.24-.17.35-.31.62-.63,1.24-.94,1.87-.06.11-.14.22-.06.35s.08,0,.1,0a58.58,58.58,0,0,1,5-3.84s0-.06,0-.14a5,5,0,0,0-1.06.29c-.36.12-.72.22-1.08.33Zm52.14,0-1.57-.48-1.16-.37c-.11,0-.23-.09-.35,0s.1.22.2.29c.68.47,1.37.92,2,1.41s1.24,1,1.86,1.49c.24.2.46.42.7.62.08.06.17.14.31,0-.39-.84-.85-1.64-1.24-2.49l.16-.25,1.5-1.91c1.22-1.57,2.45-3.13,3.67-4.71a1.21,1.21,0,0,0,.28-.46,1.48,1.48,0,0,0-.83-.57c-.48.59-.92,1.23-1.39,1.85l-1.38,1.82-1.38,1.88Z"/><path class="cls-14" d="M281.35,212.87a11.74,11.74,0,0,1,1.28-1.09l1.27-1.05a2.76,2.76,0,0,0-.16-.27c-.65-.93-1.32-1.85-2-2.79-.48-.73-.94-1.47-1.36-2.23-.75-1.38-1.45-2.79-2.17-4.19a2.32,2.32,0,0,1-.14-.35.43.43,0,0,1,.17,0l2,.59.58.18,4.7,1.4,1.65.5.25,0c0-.08.11-.15.15-.23l1.07-2.39,1.41-3.1c.23-.52.47-1,.7-1.58,0-.07.07-.14.12-.24a.81.81,0,0,1,.16.17c.13.21.24.43.36.65.66,1.18,1.3,2.38,2,3.55A23.62,23.62,0,0,0,296,204l1.77,2.05s0,0,.05.1l-.17.19-1.45,1.26a2,2,0,0,0-.2.22c0,.2.17.29.27.4.85.86,1.73,1.7,2.65,2.49.76.65,1.53,1.29,2.33,1.87s1.56,1.14,2.38,1.66,1.66,1,2.52,1.51a43.52,43.52,0,0,0,3.94,1.93c1.23.52,2.48,1,3.76,1.41s2.44.72,3.69,1c1.09.25,2.2.43,3.3.62,1.26.21,2.53.36,3.8.48a28.41,28.41,0,0,0,3.69.07c1.54-.06,3.08-.16,4.61-.34,1.38-.17,2.75-.4,4.1-.69a41.38,41.38,0,0,0,4.11-1.08,37.7,37.7,0,0,0,3.67-1.37c.61-.27,1.23-.52,1.84-.81,1-.46,2-1,2.93-1.53.77-.44,1.54-.89,2.27-1.39s1.48-1,2.22-1.56,1.69-1.33,2.5-2,1.5-1.36,2.19-2.09a2.29,2.29,0,0,0,.48-.54c-.3-.31-.62-.56-.93-.84a9.46,9.46,0,0,1-1-.86l.44-.51c.64-.75,1.29-1.48,1.91-2.24a21.87,21.87,0,0,0,1.94-2.74c.67-1.11,1.29-2.24,1.89-3.39.18-.34.37-.68.56-1,0,0,.07-.06.12-.12a7.24,7.24,0,0,1,.6,1.26c.2.41.38.82.56,1.23l.57,1.28c.18.42.37.83.55,1.24s.39.85.58,1.27l.58,1.25a1.26,1.26,0,0,0,.28,0l3.17-.94,1.21-.36,3.94-1.19.81-.23a2.26,2.26,0,0,1-.11.3c-.6,1.2-1.21,2.39-1.82,3.58a30.66,30.66,0,0,1-2,3.24c-.46.68-1,1.34-1.43,2l-.36.55a1.13,1.13,0,0,0,.39.42l1.9,1.51c.09.08.17.18.26.27-.1.14-.17.25-.26.36-.53.65-1,1.33-1.59,2-.88,1-1.78,2-2.69,2.93s-2,2-3.09,2.91c-.72.62-1.46,1.22-2.2,1.81-1,.8-2,1.54-3,2.25s-2,1.33-3.06,2-2.37,1.39-3.59,2l-1.93.94c-1.06.52-2.15,1-3.25,1.42q-1.12.45-2.28.84c-1,.34-1.94.67-2.93,1-1.21.35-2.43.67-3.66.93s-2.69.51-4.05.68a.33.33,0,0,0-.12.05,3.86,3.86,0,0,0,0,1.59,2.11,2.11,0,0,0,.35,0c1.7-.2,3.38-.55,5.05-.9.78-.16,1.55-.36,2.31-.57,1.8-.51,3.59-1.05,5.34-1.7,1.56-.58,3.1-1.21,4.61-1.93,1-.49,2-1,3-1.53s1.69-.94,2.52-1.42l1.22-.7c.09-.05.2-.08.29-.12a27.53,27.53,0,0,1,1.9,2.77c.59.93,1.22,1.85,1.82,2.77s1.25,1.86,1.85,2.83a1.7,1.7,0,0,1-.24.23c-.48.29-1,.58-1.45.86l-2.47,1.41c-.45.25-.91.48-1.37.71-1.46.73-2.93,1.45-4.44,2.06l-2.86,1.15c-1.14.46-2.31.83-3.49,1.21-1.36.43-2.73.83-4.12,1.18-1.84.47-3.7.86-5.57,1.19-1.17.21-2.34.36-3.51.53a58.15,58.15,0,0,1-6.85.52c-1.44,0-2.89,0-4.34,0-2.07,0-4.14-.16-6.2-.4-1.32-.15-2.63-.31-3.94-.53-1.48-.25-3-.51-4.44-.87-1.18-.29-2.36-.56-3.53-.89-1.48-.41-3-.86-4.41-1.39-.82-.29-1.64-.57-2.45-.9-1.58-.63-3.14-1.29-4.67-2-1.31-.62-2.6-1.28-3.86-2-.87-.48-1.72-1-2.58-1.51l-.77-.47a.2.2,0,0,1,0-.08s0,0,0,0q2.73-4.12,5.44-8.27l.12-.1a1.47,1.47,0,0,1,.48.25q1.32.85,2.7,1.59c.9.49,1.81,1,2.72,1.44.6.3,1.2.58,1.82.84,1.2.52,2.41,1,3.62,1.5.58.23,1.17.44,1.76.62,1,.32,2,.62,2.95.9s2.1.58,3.16.83c.76.18,1.52.33,2.29.46.95.17,1.9.31,2.86.47h.35a6.78,6.78,0,0,0,0-1.71,2.21,2.21,0,0,0-.3-.07c-.51-.09-1-.15-1.52-.25-1.15-.22-2.29-.43-3.43-.68q-2-.45-4-1.08c-1.32-.41-2.63-.84-3.92-1.36-.69-.29-1.39-.54-2.07-.84-1.07-.48-2.12-1-3.17-1.49-.6-.3-1.2-.61-1.78-.93-1.16-.64-2.3-1.31-3.41-2s-2.08-1.37-3.08-2.11-2.23-1.69-3.29-2.62c-.74-.64-1.47-1.29-2.18-2s-1.34-1.34-2-2c-.9-.92-1.74-1.91-2.57-2.9-.32-.38-.62-.78-.93-1.17Zm81.63-7-.19.19c-.62.73-1.21,1.47-1.85,2.17a43.36,43.36,0,0,1-5.77,5.31c-1,.75-2,1.47-3.06,2.14s-2.42,1.46-3.68,2.1a43.41,43.41,0,0,1-4.35,1.95q-2.26.85-4.62,1.49c-1.35.36-2.72.65-4.1.89-.71.12-1.42.22-2.13.32s-1.2.16-1.81.21-1.24.07-1.86.11a36,36,0,0,1-5.09-.08c-1-.07-1.92-.2-2.88-.31a36.8,36.8,0,0,1-4.42-.77c-1.2-.27-2.38-.61-3.55-1-.91-.28-1.8-.6-2.69-.94a35.55,35.55,0,0,1-3.46-1.52c-.88-.44-1.75-.88-2.6-1.37s-1.59-1-2.38-1.48a31,31,0,0,1-2.81-2c-1.07-.84-2.1-1.72-3.09-2.65-.69-.65-1.37-1.31-2-2s-1.38-1.6-2.07-2.4l-.28-.29c-.78.59-1.49,1.21-2.23,1.8s-1.44,1.19-2.17,1.78-1.48,1.18-2.2,1.8-1.52,1.12-2.2,1.8a1.42,1.42,0,0,0,.13.22c.44.52.89,1,1.34,1.55.93,1.07,1.92,2.09,2.94,3.07s2.15,2,3.28,2.92c.88.71,1.8,1.38,2.71,2.06a44.5,44.5,0,0,0,4.1,2.69c.84.5,1.7,1,2.57,1.44,1.38.75,2.8,1.41,4.25,2s2.69,1.08,4.06,1.55,3.06.95,4.61,1.34c1.08.27,2.16.49,3.24.71.83.16,1.65.31,2.49.42,1,.13,2,.24,3.06.32s2,.13,2.94.15c2.32.06,4.64,0,7-.13.67,0,1.34,0,2-.12a53.7,53.7,0,0,0,5.9-1,55.45,55.45,0,0,0,6.56-1.82c.61-.2,1.21-.42,1.8-.65l2.3-.92c1.07-.45,2.13-1,3.17-1.49.54-.27,1.08-.54,1.61-.84l2.3-1.34c1.1-.65,2.16-1.36,3.2-2.1a45.22,45.22,0,0,0,3.66-2.83c.91-.79,1.83-1.6,2.71-2.43.7-.66,1.37-1.36,2-2.07s1.45-1.63,2.17-2.45a.88.88,0,0,0,.26-.42s0-.08,0-.09L363.21,206C363.15,205.93,363.08,205.9,363,205.83Zm-2.62,23.47-.35.17L357.29,231c-.49.27-1,.53-1.49.77-1.07.5-2.14,1-3.22,1.49-.68.31-1.39.56-2.08.84-1.3.52-2.63,1-4,1.38-1.06.32-2.13.61-3.2.88s-2.39.59-3.59.81a61,61,0,0,1-6.15.86c-1.67.14-3.33.24-5,.28-.83,0-1.66,0-2.48,0-1.76,0-3.52-.15-5.27-.33q-3-.33-6-.94-2.52-.53-5-1.21c-1.73-.49-3.44-1.08-5.13-1.73-1.39-.54-2.77-1.11-4.11-1.76-.69-.34-1.38-.66-2.06-1-1.12-.58-2.22-1.19-3.3-1.84a1,1,0,0,0-.24-.1,1,1,0,0,0-.11.13l-1.51,2.25-2.21,3.35a.67.67,0,0,0-.17.45c.23.15.47.32.73.46.87.49,1.74,1,2.62,1.44.52.28,1.05.55,1.58.8,1,.46,1.94.92,2.92,1.36.68.31,1.38.57,2.07.86,1.24.51,2.5,1,3.77,1.38s2.58.81,3.89,1.17c1.65.46,3.32.83,5,1.17.68.14,1.38.25,2.07.37s1.22.21,1.84.29l3.72.4c1.7.19,3.41.25,5.13.27a69.1,69.1,0,0,0,7.88-.28c1.6-.16,3.19-.33,4.78-.58s3.22-.55,4.81-.93c1.2-.28,2.39-.59,3.58-.9a55,55,0,0,0,5.32-1.73c1.06-.4,2.12-.83,3.17-1.26.58-.23,1.14-.49,1.71-.75s1.11-.49,1.65-.77q1.33-.68,2.64-1.38c.81-.44,1.6-.91,2.4-1.37.05,0,.08-.08.14-.15-1.17-1.82-2.39-3.61-3.55-5.43C360.71,229.77,360.54,229.55,360.36,229.3Zm-67.92-25.53a1.19,1.19,0,0,1,.16.1l1.76,1.23.66.44a.16.16,0,0,0,.23,0,1.76,1.76,0,0,0-.09-.2c-.12-.16-.25-.32-.38-.47a23.82,23.82,0,0,1-1.68-2.18,27.18,27.18,0,0,1-1.7-2.78,2.61,2.61,0,0,0-.17-.28.19.19,0,0,0-.23-.1c-.19.35-.35.75-.53,1.14s-.36.8-.54,1.19-.37.82-.56,1.23-.35.8-.54,1.19a7.54,7.54,0,0,1-.55,1.19l-.28-.06-2.55-.76-2.86-.87c-.41-.12-.83-.25-1.25-.36a1.48,1.48,0,0,0-.3,0,1.92,1.92,0,0,0,.14.37c.42.74.82,1.51,1.28,2.22.71,1.1,1.47,2.16,2.21,3.24a1.92,1.92,0,0,0,.45.51c1.23-1,2.43-2,3.65-3Zm77.72,5.86a1.57,1.57,0,0,0,.33-.41c.22-.32.43-.65.66-1,.59-.8,1.16-1.62,1.67-2.47a22.89,22.89,0,0,0,1.21-2.16,1.26,1.26,0,0,0,.08-.3c-.87.18-1.65.49-2.45.71s-1.58.48-2.37.71-1.59.52-2.42.7a3.91,3.91,0,0,1-.18-.35L365,201.45l-.83-1.83a1.72,1.72,0,0,0-.16-.2l-.15.21c-.39.68-.76,1.36-1.17,2a25.65,25.65,0,0,1-2.14,2.94l-.66.79c-.06.08-.14.18,0,.3l1.37-1,1.42-1a15.14,15.14,0,0,1,1.26,1l1.23,1,1.2,1,1.24,1c.41.34.81.68,1.23,1A11.12,11.12,0,0,0,370.16,209.63Z"/><path class="cls-14" d="M296.91,156.85c.13.06.22.08.3.13,1,.63,2.06,1.28,3.14,1.84.61.32,1.22.63,1.85.9s1.4.59,2.12.84a18.8,18.8,0,0,0,3.85.93,18.6,18.6,0,0,0,2.24.17,16.2,16.2,0,0,0,4.93-.7,18.63,18.63,0,0,0,4.74-2.27,23.53,23.53,0,0,0,2.69-2.08c.49-.44,1-.9,1.42-1.36,1.12-1.11,2.1-2.34,3.1-3.55a1.12,1.12,0,0,1,.19-.17c.24.28.48.54.7.82.75.92,1.53,1.81,2.35,2.66a28.37,28.37,0,0,0,3.06,2.74,21.24,21.24,0,0,0,3.36,2.1,17.6,17.6,0,0,0,2.19.94,16.24,16.24,0,0,0,6.3.84,18.64,18.64,0,0,0,3.64-.57,22.75,22.75,0,0,0,2.92-1,27.59,27.59,0,0,0,3.19-1.55c.83-.48,1.66-1,2.48-1.48l.39-.21a1,1,0,0,1,.08.25c.26,1.47.52,2.94.75,4.41s.41,2.84.54,4.27c.11,1.28.26,2.57.31,3.86,0,1.08.07,2.15.07,3.23a50.73,50.73,0,0,1-.18,5.08c-.13,1.38-.25,2.77-.47,4.13-.25,1.51-.51,3-.86,4.5-.23,1-.51,2-.8,3a34,34,0,0,1-1.16,3.4c-.42,1.07-.84,2.14-1.32,3.19s-.92,1.8-1.39,2.7c-.18.34-.37.68-.56,1a42.07,42.07,0,0,1-2.61,4,32,32,0,0,1-2.07,2.58c-.65.71-1.28,1.45-1.95,2.14s-1.42,1.36-2.14,2c-.47.43-1,.84-1.45,1.25-.69.57-1.41,1.12-2.14,1.65-1,.7-1.94,1.36-2.95,2S336,216.58,335,217s-1.89,1-2.85,1.4c-.6.28-1.23.53-1.85.77s-1.49.55-2.23.84a1,1,0,0,1-.67,0c-1.37-.48-2.72-1-4.05-1.59a45.56,45.56,0,0,1-4.25-2.13,43.7,43.7,0,0,1-3.95-2.49c-.9-.64-1.79-1.3-2.64-2a43.93,43.93,0,0,1-3.43-3.11c-.67-.68-1.31-1.41-2-2.12a31.68,31.68,0,0,1-2-2.46c-.5-.67-1-1.36-1.45-2.06s-.93-1.41-1.35-2.13c-.5-.88-1-1.78-1.45-2.67-.57-1-1-2.17-1.51-3.26l-.15-.39c-.46-1.19-.92-2.38-1.29-3.6-.55-1.79-1-3.6-1.4-5.43-.27-1.31-.44-2.64-.67-4-.11-.63-.16-1.26-.21-1.9-.09-1.15-.18-2.3-.24-3.45-.05-.93-.07-1.87-.07-2.8,0-1.92.06-3.83.21-5.75.09-1,.17-2.08.3-3.11.16-1.33.36-2.65.56-4,.13-.86.28-1.72.43-2.58C296.86,157,296.88,157,296.91,156.85Zm1,2.31c0,.06,0,.13-.05.21-.29,1.66-.5,3.32-.69,5s-.31,3.1-.37,4.65a66.58,66.58,0,0,0,.3,10.18c.16,1.37.32,2.75.59,4.11.16.82.29,1.66.49,2.47a49.59,49.59,0,0,0,1.37,4.8c.32.9.63,1.8,1,2.68.42,1.05.88,2.09,1.4,3.1.3.59.58,1.18.9,1.75.62,1.1,1.27,2.17,2,3.22s1.36,1.94,2.09,2.87,1.73,2.05,2.65,3,1.71,1.72,2.62,2.52a39.12,39.12,0,0,0,3.44,2.72c.8.55,1.59,1.1,2.41,1.61s1.61.94,2.42,1.41a31,31,0,0,0,3.06,1.51q.93.42,1.89.81c.7.28,1.42.54,2.13.82a.59.59,0,0,0,.45,0l.36-.12,2-.81a45.82,45.82,0,0,0,5.42-2.62c.4-.23.81-.46,1.21-.71l2.1-1.38a34.1,34.1,0,0,0,2.81-2.09c1-.84,2-1.72,3-2.65.73-.72,1.44-1.46,2.12-2.23s1.37-1.58,2-2.42c.49-.66,1-1.32,1.45-2s1-1.64,1.53-2.46a36.93,36.93,0,0,0,2-3.9c.53-1.19,1-2.4,1.46-3.64a48.5,48.5,0,0,0,1.4-4.69c.25-1,.47-2.07.66-3.11s.38-2.21.51-3.32c.23-1.9.35-3.82.41-5.73.05-1.51,0-3,0-4.54s-.17-2.76-.28-4.14c0-.69-.13-1.37-.22-2-.1-.85-.22-1.7-.36-2.54s-.25-1.47-.39-2.21a1,1,0,0,0-.07-.15.8.8,0,0,0-.44.18,34.06,34.06,0,0,1-3.45,1.78,25.84,25.84,0,0,1-4.37,1.48c-.5.11-1,.18-1.51.27a16.1,16.1,0,0,1-4.38.17,17.45,17.45,0,0,1-4-.84,21.12,21.12,0,0,1-2.42-1,18.59,18.59,0,0,1-2.65-1.56c-.67-.48-1.33-1-2-1.5s-1-.89-1.54-1.36-.91-.89-1.34-1.36-.91-1-1.36-1.54a1.06,1.06,0,0,0-.19-.16c-.08.08-.15.13-.21.2-.19.22-.38.45-.58.67a29.57,29.57,0,0,1-2.24,2.37c-.64.6-1.28,1.18-2,1.72a22.47,22.47,0,0,1-3.72,2.4,17.78,17.78,0,0,1-4,1.49,17.58,17.58,0,0,1-4,.52,18.34,18.34,0,0,1-3.39-.3c-.63-.12-1.26-.23-1.87-.4a24.35,24.35,0,0,1-3.78-1.36c-.73-.34-1.45-.71-2.17-1.08-.42-.21-.81-.46-1.22-.68C298.2,159.18,298.08,159.08,297.91,159.16Z"/><path class="cls-14" d="M319.43,252.53c0,.48-.05,1-.12,1.43a1.67,1.67,0,0,1-1.43,1.46,3.77,3.77,0,0,1-1.67,0,1.9,1.9,0,0,1-1-.6,1.25,1.25,0,0,1-.33-.75,8.91,8.91,0,0,1-.1-1.26c0-.53,0-1.05.05-1.58a2.55,2.55,0,0,1,.11-.55,1.48,1.48,0,0,1,.84-.94,2.54,2.54,0,0,1,.9-.23,3.82,3.82,0,0,1,1.43.11,1.6,1.6,0,0,1,1.2,1.24,4.18,4.18,0,0,1,.11.79c0,.29,0,.59,0,.88Zm-3-.1c0,.33,0,.65,0,1s.06.43.09.65a.38.38,0,0,0,.25.31.83.83,0,0,0,.72,0,.38.38,0,0,0,.22-.29,1.55,1.55,0,0,0,.05-.23,16.23,16.23,0,0,0,0-2.7s0-.06,0-.1a.56.56,0,0,0-.63-.49.53.53,0,0,0-.61.45,3.93,3.93,0,0,0-.07.6C316.38,251.87,316.39,252.15,316.39,252.43Z"/><path class="cls-14" d="M313.72,251.56a12.24,12.24,0,0,1-1.48,0c0-.2-.07-.37-.11-.53a.62.62,0,0,0-.85-.48.52.52,0,0,0-.38.38c0,.15,0,.3-.07.46a16,16,0,0,0,0,2.19,2.7,2.7,0,0,0,.06.41.57.57,0,0,0,.64.44.53.53,0,0,0,.58-.49c0-.12,0-.24.05-.37l0-.35a4.19,4.19,0,0,1,1.51,0,.77.77,0,0,1,0,.54,1.71,1.71,0,0,1-1.51,1.69,4,4,0,0,1-1.57,0,2.62,2.62,0,0,1-.53-.2,1.69,1.69,0,0,1-.93-1.51,15.67,15.67,0,0,1,0-2.47,2.34,2.34,0,0,1,.09-.46,1.61,1.61,0,0,1,1.08-1.14,3.4,3.4,0,0,1,1.38-.15,3.15,3.15,0,0,1,1,.22,1.59,1.59,0,0,1,.84.89A1.62,1.62,0,0,1,313.72,251.56Z"/><path class="cls-14" d="M326.94,253.17c-.07.75,0,1.45-.05,2.13a4.6,4.6,0,0,1-1.57,0,1.33,1.33,0,0,1,0-.21c-.05-1,0-5.05,0-5.43a.92.92,0,0,1,.25,0l2.24,0a2.64,2.64,0,0,1,.73.11,1.4,1.4,0,0,1,1.07,1.06,2.58,2.58,0,0,1,0,.92,1.53,1.53,0,0,1-1.1,1.27,3.77,3.77,0,0,1-1.06.15Zm0-1.09.2,0a1.66,1.66,0,0,0,.32,0,.72.72,0,0,0,.63-.87.6.6,0,0,0-.45-.53,1.31,1.31,0,0,0-.68,0A3.51,3.51,0,0,0,327,252.08Z"/><path class="cls-14" d="M320.5,249.64l.26,0H324a.56.56,0,0,1,.15,0,2.92,2.92,0,0,1,0,1,2.21,2.21,0,0,1-.33.05h-1.31l-.47,0a2.24,2.24,0,0,0,0,1,2.21,2.21,0,0,0,.33.05h1.26a2.46,2.46,0,0,1,.37,0,3.87,3.87,0,0,1,0,1,1.63,1.63,0,0,1-.3.07H322.1a5.68,5.68,0,0,0-.07,1.23,3.37,3.37,0,0,0,.36.05h1.35l.43,0a1.31,1.31,0,0,1,.06.23,3.18,3.18,0,0,1,0,.82.39.39,0,0,1-.14.06h-3.37a.74.74,0,0,1-.18,0,.72.72,0,0,1,0-.19c0-1.75,0-3.51,0-5.27A1.31,1.31,0,0,1,320.5,249.64Z"/><path class="cls-14" d="M347.68,255.3a.77.77,0,0,1-.05-.45c0-.69,0-1.37,0-2.06a4.35,4.35,0,0,0,0-.51c0-.16-.06-.31-.25-.35a.43.43,0,0,0-.49.18.57.57,0,0,0-.11.25,3,3,0,0,0-.06.51v2c0,.15,0,.3,0,.48a5.64,5.64,0,0,1-1.36.05,10.13,10.13,0,0,1,0-1.44c0-.49,0-1,0-1.45s0-.94,0-1.4a9.57,9.57,0,0,1,0-1.41,6.46,6.46,0,0,1,1.32,0c0,.11.05.2.06.29v1c0,.12,0,.24,0,.35s.23,0,.31-.06a1.43,1.43,0,0,1,1.15-.25.93.93,0,0,1,.82.78,3.57,3.57,0,0,1,.07.56v2.75a1.46,1.46,0,0,1,0,.22A2.93,2.93,0,0,1,347.68,255.3Z"/><path class="cls-14" d="M339.73,253.34c-.81,0-1.57,0-2.34,0a1.53,1.53,0,0,0,0,.9.47.47,0,0,0,.53.36.45.45,0,0,0,.45-.39l.06-.3a2.91,2.91,0,0,1,1.28,0,1.28,1.28,0,0,1-.5,1.17,1.76,1.76,0,0,1-.59.27,3.25,3.25,0,0,1-1.75,0,1.2,1.2,0,0,1-.89-1,6.92,6.92,0,0,1,0-2.27,1.31,1.31,0,0,1,.59-.86,2.94,2.94,0,0,1,2.56,0,1.31,1.31,0,0,1,.53.68A3.82,3.82,0,0,1,339.73,253.34Zm-1.34-.73a.91.91,0,0,0,0-.59.44.44,0,0,0-.48-.3.45.45,0,0,0-.47.3.7.7,0,0,0,0,.6A3,3,0,0,0,338.39,252.61Z"/><path class="cls-14" d="M336.09,249.65a5.25,5.25,0,0,1,0,1c-.42.17-.87,0-1.29.11a.91.91,0,0,0-.07.51v3.55c0,.17,0,.34,0,.49a3.89,3.89,0,0,1-1.56,0,5,5,0,0,1,0-1.1c0-.39,0-.78,0-1.17v-2.25c-.41-.18-.85,0-1.26-.13a3.64,3.64,0,0,1,0-1,1.48,1.48,0,0,1,.24,0h3.79A1.59,1.59,0,0,1,336.09,249.65Z"/><path class="cls-14" d="M344.29,252.61a5.57,5.57,0,0,1-1.29,0c0-.17-.05-.32-.09-.46a.37.37,0,0,0-.39-.33.37.37,0,0,0-.43.28,1.14,1.14,0,0,0-.07.32V254a1.55,1.55,0,0,0,.08.36.38.38,0,0,0,.39.27.36.36,0,0,0,.4-.31,4.33,4.33,0,0,0,.08-.5,2.55,2.55,0,0,1,1.32,0,1.3,1.3,0,0,1-.84,1.56,2.93,2.93,0,0,1-2,0,1.22,1.22,0,0,1-.74-.73,1.6,1.6,0,0,1-.1-.31,5.1,5.1,0,0,1,0-2.13,1.41,1.41,0,0,1,1.23-1.17,3.5,3.5,0,0,1,1.25,0,1.69,1.69,0,0,1,.75.36.77.77,0,0,1,.23.28A1.44,1.44,0,0,1,344.29,252.61Z"/><path class="cls-14" d="M277.69,169.56a8.44,8.44,0,0,1-.32,1.34,4.82,4.82,0,0,0-.66,0,.38.38,0,0,0-.27.57.48.48,0,0,0,.6.22,2,2,0,0,0,.4-.23c.15-.12.28-.25.42-.38l.63-.62A1.76,1.76,0,0,1,280,170a3.12,3.12,0,0,1,.9.27,1.76,1.76,0,0,1,1,1.84,3.7,3.7,0,0,1-.32,1.11,1.49,1.49,0,0,1-1,.84,1.91,1.91,0,0,1-1.48-.14,4.2,4.2,0,0,1,.3-1.44l.31,0a3,3,0,0,0,.42,0,.39.39,0,0,0,.42-.29.43.43,0,0,0-.23-.55.6.6,0,0,0-.54,0,2,2,0,0,0-.61.42l-.75.71a2,2,0,0,1-2.5.24,1.55,1.55,0,0,1-.8-1.25,2.61,2.61,0,0,1,.41-1.69,1.54,1.54,0,0,1,1.39-.71A1.13,1.13,0,0,1,277.69,169.56Z"/><path class="cls-14" d="M287.79,158.5l.46-.67a.55.55,0,0,1,.34-.23.43.43,0,0,0,.2-.73c-.08-.09-.16-.19-.31-.18a1.61,1.61,0,0,1-.39.87.94.94,0,0,1-.92.34,2.22,2.22,0,0,1-.65-.24,10.23,10.23,0,0,1-1.81-1.32,2.88,2.88,0,0,1-.44-.54,1.07,1.07,0,0,1,.31-1.55l.31-.2a2.08,2.08,0,0,1,.65-1,1.79,1.79,0,0,1,.59.37c1,.71,2,1.43,2.93,2.16a3.78,3.78,0,0,1,.56.5,1.12,1.12,0,0,1,.27,1.12,2.5,2.5,0,0,1-.82,1.28A.92.92,0,0,1,287.79,158.5Zm-.56-1.84c.38,0,.56-.27.4-.54a1.71,1.71,0,0,0-.39-.46c-.34-.28-.71-.54-1.08-.8a1.65,1.65,0,0,0-.37-.2.55.55,0,0,0-.31,0,.37.37,0,0,0-.16.58,1.38,1.38,0,0,0,.34.38c.41.31.82.61,1.24.9A1.3,1.3,0,0,0,287.23,156.66Z"/><path class="cls-14" d="M286.81,149.07a4,4,0,0,1,.72-.8c.48.25.72.78,1.16,1,.13,0,.13-.14.16-.23a1.26,1.26,0,0,1,.72-.81.67.67,0,0,1,.71,0,2.86,2.86,0,0,1,.48.36c.48.47.94,1,1.41,1.43l.82.84a3,3,0,0,1,.21.25,7.31,7.31,0,0,1-.72.75.54.54,0,0,1-.17-.09c-.65-.65-1.29-1.31-1.93-2l-.35-.32a.32.32,0,0,0-.39,0,.4.4,0,0,0-.17.45,1.62,1.62,0,0,0,.21.36c.12.14.26.27.39.4l1.45,1.46c.1.11.2.23.29.35a2,2,0,0,1-.74.79c-.16,0-.26-.2-.38-.32l-2.92-3-.72-.73Z"/><path class="cls-14" d="M282.54,163.39a1.57,1.57,0,0,0,.82.34.41.41,0,0,0,.49-.18.45.45,0,0,0-.16-.57c-.12-.1-.25-.18-.38-.28a3.18,3.18,0,0,1,.39-1,1.79,1.79,0,0,1,1,.67,1.15,1.15,0,0,1,.14,1,4.47,4.47,0,0,1-.34.81,1.24,1.24,0,0,1-1.38.65,3.28,3.28,0,0,1-.45-.11,12.67,12.67,0,0,1-1.9-.89,1.46,1.46,0,0,1-.62-.73,1.05,1.05,0,0,1-.09-.46,2.42,2.42,0,0,1,.52-1.33,1.23,1.23,0,0,1,1.29-.45,6.31,6.31,0,0,1,1.38.55,4.07,4.07,0,0,1-.37,1A5.72,5.72,0,0,0,282.54,163.39Zm-.51-1.13a.85.85,0,0,0-.56-.23.37.37,0,0,0-.38.28.42.42,0,0,0,.17.53.62.62,0,0,0,.44.17A2,2,0,0,0,282,162.26Z"/><path class="cls-14" d="M281.61,159.39a5.16,5.16,0,0,1,.49-.91c0-.06.13-.08.21-.13a2.13,2.13,0,0,0,0-.27,1.08,1.08,0,0,1,.29-.76.89.89,0,0,1,1.21-.24c.21.1.41.22.61.34l2.22,1.29a.84.84,0,0,1,.37.31,3.79,3.79,0,0,1-.5.89l-.38-.19L284,158.46a2,2,0,0,0-.42-.19.31.31,0,0,0-.38.12.37.37,0,0,0,0,.39.89.89,0,0,0,.37.35l.8.47,1.46.85.35.24a5,5,0,0,1-.54,1,1.27,1.27,0,0,1-.26-.11Z"/><path class="cls-14" d="M276.86,168l.32-1a1.23,1.23,0,0,1,.29,0,5.4,5.4,0,0,0,.86.25l.21-.35a3.69,3.69,0,0,1,.71.23l.05.44.26.11,1.73.56.13.05c.34.09.38.08.62-.23a1.52,1.52,0,0,1,.79.29,2.16,2.16,0,0,1-.17.75.73.73,0,0,1-1,.5c-.29-.07-.57-.18-.85-.27l-1.92-.61-.23.32a2.18,2.18,0,0,1-.71-.23l0-.35s-.05-.06-.08-.07l-.57-.21C277.17,168.13,277.05,168.07,276.86,168Z"/><path class="cls-14" d="M290.17,153.28l.6.5a1.17,1.17,0,0,1-.35.6,2.42,2.42,0,0,1-.42.36.47.47,0,0,1-.53,0,8.15,8.15,0,0,1-.76-.55l-1.51-1.24a1.16,1.16,0,0,0-.24-.14l-.29.19a2.4,2.4,0,0,1-.6-.46l.11-.36c-.21-.29-.55-.47-.8-.75a2.32,2.32,0,0,1,.66-.91l.87.66.36-.2a2.07,2.07,0,0,1,.61.5l-.15.34s0,.07.06.09l1.57,1.32,0,0C289.75,153.48,289.75,153.48,290.17,153.28Z"/><path class="cls-14" d="M279.1,165.16l.28,0s0-.08,0-.1-.1-.26-.13-.4a.63.63,0,0,1,.08-.51,1.41,1.41,0,0,1,.6.16,1.68,1.68,0,0,1,.62.26c0,.13-.06.27-.08.4a.59.59,0,0,0,.41.74l1.05.4,1.27.47.17.09a4.87,4.87,0,0,1-.3,1,.37.37,0,0,1-.38,0l-2.27-.85-1.49-.55-.18-.08A3.1,3.1,0,0,1,279.1,165.16Z"/><path class="cls-14" d="M361.83,150.69a3.13,3.13,0,0,1,.66-.9c.19-.19.37-.38.54-.58.31-.38.3-.59,0-.94a1.56,1.56,0,0,0-.17-.12c-.62.53-1.11,1.18-1.71,1.71a4.66,4.66,0,0,1-1.14-1.09s0,0,0,0a.08.08,0,0,1,0,0l4.21-4.43a.47.47,0,0,1,.12-.07h.07a1.27,1.27,0,0,1,.2.16c.48.48,1,1,1.44,1.46a3.58,3.58,0,0,1,.53.7,1.31,1.31,0,0,1-.05,1.5,2.43,2.43,0,0,1-.51.6,1.76,1.76,0,0,1-1.16.42s-.09,0-.15,0a2.48,2.48,0,0,0,0,.27,1.55,1.55,0,0,1-.39,1c-.14.18-.3.36-.46.53a1.9,1.9,0,0,0-.6,1.14c-.07,0-.12,0-.15,0Zm3.31-3.82a.81.81,0,0,0-.3-.6.2.2,0,0,0-.26,0c-.25.25-.5.5-.74.77a.25.25,0,0,0,0,.21.64.64,0,0,0,.75.3.94.94,0,0,0,.49-.41A1.41,1.41,0,0,0,365.14,146.87Z"/><path class="cls-14" d="M377.45,178.24a4.7,4.7,0,0,1-.2-1c-.07-.32-.12-.64-.19-1a1.34,1.34,0,0,0-1,.2.38.38,0,0,0,0,.66,1.21,1.21,0,0,0,.31.09c.13,0,.25,0,.4,0a2.47,2.47,0,0,1,.18,1,1.32,1.32,0,0,1-1.74-.57,2.57,2.57,0,0,1-.25-1.36,1.08,1.08,0,0,1,.56-.91,2.59,2.59,0,0,1,1-.35c.46-.07.93-.12,1.39-.17a3,3,0,0,1,.52,0,1.36,1.36,0,0,1,1.24,1,2.33,2.33,0,0,1,.15,1,1.18,1.18,0,0,1-.71,1.07,2.57,2.57,0,0,1-.9.25A1.82,1.82,0,0,1,377.45,178.24Zm.6-1.3a.65.65,0,0,0,.55-.05.37.37,0,0,0,.22-.42.42.42,0,0,0-.33-.39.65.65,0,0,0-.54.07A2.12,2.12,0,0,0,378.05,176.94Z"/><path class="cls-14" d="M373.52,164.61a5.37,5.37,0,0,0-.54.22,1.31,1.31,0,0,0-.34.24.41.41,0,0,0-.07.44.37.37,0,0,0,.37.24c.18,0,.37-.05.57-.08a2.81,2.81,0,0,1,.43.93,1.29,1.29,0,0,1-2-.33,2.24,2.24,0,0,1-.44-1.3,1,1,0,0,1,.31-.76,2.5,2.5,0,0,1,.66-.5,10.82,10.82,0,0,1,1.74-.68,1.78,1.78,0,0,1,.45-.08,1.19,1.19,0,0,1,.94.33,2.3,2.3,0,0,1,.68,1.4,1.15,1.15,0,0,1-.46,1.11,2.1,2.1,0,0,1-.3.22c-.36.19-.73.34-1.12.5a7.29,7.29,0,0,1-.47-1A3.14,3.14,0,0,0,373.52,164.61Zm1.2.47a3.2,3.2,0,0,0,.4-.17.42.42,0,0,0,.17-.56.42.42,0,0,0-.49-.25c-.15,0-.31.05-.41.22A2.07,2.07,0,0,0,374.72,165.08Z"/><path class="cls-14" d="M366.73,153.82a3.58,3.58,0,0,1-.48.39,1.12,1.12,0,0,1-1.43,0,3.11,3.11,0,0,1-.74-.83,1.3,1.3,0,0,1,0-1.37,3.15,3.15,0,0,1,.67-.78c.33-.31.68-.6,1-.87a2.8,2.8,0,0,1,.52-.32,1,1,0,0,1,1,0,2.37,2.37,0,0,1,1.17,1.39,1,1,0,0,1-.06.77,2.55,2.55,0,0,1-.29.48,6.51,6.51,0,0,1-.94.87,1.24,1.24,0,0,1-.21-.18l-.79-.92-.37-.42a1.47,1.47,0,0,0-.7.62.63.63,0,0,0-.07.22.41.41,0,0,0,.58.44,1.49,1.49,0,0,0,.24-.14l.2-.11C366.3,153.22,366.44,153.55,366.73,153.82Zm-.34-2.4c0,.19.2.28.3.42s.31.28.56,0a.8.8,0,0,0,.13-.24.45.45,0,0,0-.16-.46.36.36,0,0,0-.39-.08A.63.63,0,0,0,366.39,151.42Z"/><path class="cls-14" d="M370.33,158.44a1.58,1.58,0,0,0-.83.53.42.42,0,0,0,.4.68,2.68,2.68,0,0,0,.27-.07l.28-.1c.1.16.2.3.28.44a4.79,4.79,0,0,1,.25.45,1.46,1.46,0,0,1-1,.44,1,1,0,0,1-.69-.24,2.61,2.61,0,0,1-.81-1.17,1.25,1.25,0,0,1,.34-1.4,5,5,0,0,1,.73-.57,6.56,6.56,0,0,1,.81-.47,4.13,4.13,0,0,1,.81-.35,1.19,1.19,0,0,1,1.2.31,2.58,2.58,0,0,1,.73,1.28,1,1,0,0,1-.13.77,1.59,1.59,0,0,1-.33.44,6,6,0,0,1-1.18.76,4.29,4.29,0,0,1-.56-.87C370.7,159,370.54,158.72,370.33,158.44Zm1.21.24a1,1,0,0,0,.2-.08l.19-.13a.39.39,0,0,0,.12-.46.4.4,0,0,0-.43-.28.66.66,0,0,0-.52.24A1.35,1.35,0,0,0,371.54,158.68Z"/><path class="cls-14" d="M373.69,171a2.84,2.84,0,0,1-.34-1,2.58,2.58,0,0,1,.31-.13l2.5-.75a3.2,3.2,0,0,0,.39-.16.29.29,0,0,0,.16-.31.32.32,0,0,0-.22-.32.88.88,0,0,0-.32,0,2.8,2.8,0,0,0-.5.12l-2.15.64-.46.11a4.5,4.5,0,0,1-.36-1,.89.89,0,0,1,.23-.13l2.6-.78,1.11-.35.3-.08a1.83,1.83,0,0,1,.36,1.23l.3.36a1.06,1.06,0,0,1,.25.64.8.8,0,0,1-.28.75,1.32,1.32,0,0,1-.56.33l-3.17.94Z"/><path class="cls-14" d="M377.49,174.1a5.65,5.65,0,0,1-.28-1.07,5.31,5.31,0,0,0,.51-.21.33.33,0,0,0,.17-.43.3.3,0,0,0-.26-.24,1.42,1.42,0,0,0-.46,0c-.58.12-1.15.26-1.73.39l-.26.1a.33.33,0,0,0-.17.36.32.32,0,0,0,.26.29,2.46,2.46,0,0,0,.47,0c.13,0,.27-.08.44,0a4.87,4.87,0,0,1,.22.95,1.74,1.74,0,0,1-1.54,0,1.15,1.15,0,0,1-.36-.29,2.2,2.2,0,0,1-.45-1.3,1.12,1.12,0,0,1,.36-.88,1.73,1.73,0,0,1,.67-.42,11.7,11.7,0,0,1,1.86-.44,2.9,2.9,0,0,1,.51,0,1.29,1.29,0,0,1,1.2.82,4.48,4.48,0,0,1,.22.71,1.17,1.17,0,0,1-.72,1.37,2.62,2.62,0,0,1-.39.15A2,2,0,0,1,377.49,174.1Z"/><path class="cls-14" d="M369.36,152.62a4.23,4.23,0,0,1,.7.95,4.71,4.71,0,0,1-.62.71l-1,1.08a.87.87,0,0,0-.11.18.25.25,0,0,0,.32,0l1.18-.57.58-.29a2.33,2.33,0,0,1,.33-.14,3.41,3.41,0,0,1,.66.95s0,.07-.05.08l-4.16,1.7c-.28-.38-.55-.73-.8-1.13a8,8,0,0,1,.72-.91c.24-.3.52-.58.77-.87s.47-.58.72-.86A10.37,10.37,0,0,1,369.36,152.62Z"/><path class="cls-14" d="M370.49,163l-.52-1a1.38,1.38,0,0,1,.53-.37l3.32-1.71.12,0a3.06,3.06,0,0,1,.49.93l-.19.21s0,.06,0,.08l.34.16a.89.89,0,0,1,.45.48,12.06,12.06,0,0,1-1.13.6l-.14-.18c-.32-.51-.58-.58-1.13-.3l-1.86,1C370.72,162.88,370.61,162.91,370.49,163Z"/><path class="cls-14" d="M315.22,121.89c-.53.24-1.14.22-1.73.42a5.53,5.53,0,0,0,0,1.22c.64,0,1.23-.25,1.87-.28a1.2,1.2,0,0,1,.05.23v1a.22.22,0,0,1-.19.24l-3.25.64-.08,0a.78.78,0,0,1-.05-.23c0-.41,0-.81,0-1.22v-4.62c0-.17,0-.34,0-.5a20.72,20.72,0,0,1,3.29-.73,1.62,1.62,0,0,1,.22,0,4.24,4.24,0,0,1,0,1.33c-.6.18-1.25.21-1.84.43a1.94,1.94,0,0,0,0,1h.26l1.1-.22.31,0A3.3,3.3,0,0,1,315.22,121.89Z"/><path class="cls-14" d="M321.89,117.64a2.68,2.68,0,0,1,1.09-.13,1.11,1.11,0,0,1,0,.23v5.61a2,2,0,0,1,0,.33,2.08,2.08,0,0,1-1.18.07,4.77,4.77,0,0,1-.51.25.94.94,0,0,1-1.25-.57,3.67,3.67,0,0,1-.2-.87,7.24,7.24,0,0,1,.1-2.32,1.61,1.61,0,0,1,.1-.36,1.17,1.17,0,0,1,1.5-.74l.25.07a1.54,1.54,0,0,0,.07-.27c0-.29,0-.59,0-.88Zm0,3.83h0c0-.24,0-.49,0-.74a3.07,3.07,0,0,0-.07-.42.29.29,0,0,0-.25-.24.31.31,0,0,0-.35.18,1.71,1.71,0,0,0-.14.49,8.52,8.52,0,0,0,0,1.82,1.12,1.12,0,0,0,.08.26.24.24,0,0,0,.27.15.38.38,0,0,0,.38-.29,2.89,2.89,0,0,0,.08-.5C321.87,121.94,321.86,121.71,321.86,121.47Z"/><path class="cls-14" d="M333.56,123.61a4.32,4.32,0,0,1-1,0c-.11,0-.2-.13-.32-.21s-.2.12-.31.17a1.24,1.24,0,0,1-.36.11,1.13,1.13,0,0,1-1.35-1,1.75,1.75,0,0,1,0-.88,1.26,1.26,0,0,1,.62-.84c.24-.13.5-.24.75-.36l.3-.13.16-.1a.44.44,0,0,0,.15-.5.4.4,0,0,0-.37-.25.42.42,0,0,0-.43.28c0,.08,0,.16-.05.23l-.06.18a4.86,4.86,0,0,1-1,0,1.2,1.2,0,0,1,.77-1.47,2.71,2.71,0,0,1,1.52,0,1,1,0,0,1,.71.75,3.19,3.19,0,0,1,.1.69c0,.62,0,1.24,0,1.87A3.82,3.82,0,0,0,333.56,123.61Zm-1.29-2.3a.53.53,0,0,0-.23,0,3.27,3.27,0,0,0-.37.28.76.76,0,0,0-.22.84.35.35,0,0,0,.32.28.39.39,0,0,0,.43-.28A2.38,2.38,0,0,0,332.27,121.31Z"/><path class="cls-14" d="M344.48,123.23c-.61-.08-1.22-.3-1.87-.36a1.64,1.64,0,0,0,.05,1,.46.46,0,0,0,.29.29.31.31,0,0,0,.44-.21c0-.15.05-.3.07-.47a2.51,2.51,0,0,1,1,.15,1.53,1.53,0,0,1-.15,1.13.81.81,0,0,1-.68.42,2.09,2.09,0,0,1-1.64-.52,1.81,1.81,0,0,1-.33-.44,2.77,2.77,0,0,1-.29-1.17c0-.53,0-1,0-1.58a2.65,2.65,0,0,1,.14-.68.89.89,0,0,1,.9-.68,1.9,1.9,0,0,1,2.07,1.61,12.1,12.1,0,0,1,0,1.35S344.51,123.18,344.48,123.23Zm-2-1.33a1.4,1.4,0,0,0,.86.18c0-.11,0-.2,0-.29a1,1,0,0,0,0-.24.53.53,0,0,0-.46-.4.3.3,0,0,0-.37.26C342.54,121.56,342.54,121.71,342.53,121.9Z"/><path class="cls-14" d="M325.72,118.84a3.22,3.22,0,0,1,1-.07c.14.12.11.27.11.41V123a1,1,0,0,1-.07.49,1.81,1.81,0,0,1-1.19-.07c-.12.07-.24.14-.37.2a1.07,1.07,0,0,1-.86,0,.84.84,0,0,1-.54-.59,1.79,1.79,0,0,1-.07-.51c0-1.1,0-2.21,0-3.31a2.4,2.4,0,0,1,0-.28,1.14,1.14,0,0,1,.51-.06c.17,0,.34,0,.5,0s.09.28.09.41c0,.86,0,1.72,0,2.57a3.73,3.73,0,0,0,0,.47.33.33,0,0,0,.3.3.36.36,0,0,0,.38-.28,3.07,3.07,0,0,0,.07-.6v-2.34C325.7,119.21,325.71,119,325.72,118.84Z"/><path class="cls-14" d="M335.24,123.74a5.19,5.19,0,0,1-1-.13c-.07-.42-.09-2.34-.05-4.31a2.23,2.23,0,0,1,0-.34,1.8,1.8,0,0,1,1.22.23l.15-.06a1.12,1.12,0,0,1,1.27.15,1.08,1.08,0,0,1,.37.73,1.83,1.83,0,0,1,0,.33v3.22c0,.12,0,.24,0,.38a6.27,6.27,0,0,1-1-.08.66.66,0,0,1-.09-.48c0-.86,0-1.71,0-2.57a3.41,3.41,0,0,0-.05-.55.35.35,0,0,0-.66,0,3.94,3.94,0,0,0-.05.6c0,.81,0,1.62,0,2.43A.75.75,0,0,1,335.24,123.74Z"/><path class="cls-14" d="M317.23,124.32a3.32,3.32,0,0,1-1.07.17,1.47,1.47,0,0,1-.06-.27v-4.11a1.67,1.67,0,0,1,0-.29,8.21,8.21,0,0,1,1-.17c.06,0,.13.06.23.1l.28-.19a1.14,1.14,0,0,1,.76-.18.69.69,0,0,1,.7.57,1.47,1.47,0,0,1,.07.46c0,1.15,0,2.3,0,3.46a.59.59,0,0,1,0,.13,1.87,1.87,0,0,1-1,.18.77.77,0,0,1,0-.45c0-.84,0-1.68,0-2.52a3,3,0,0,0,0-.42c0-.13-.06-.25-.21-.28a.37.37,0,0,0-.41.17.58.58,0,0,0-.09.26,4.62,4.62,0,0,0-.05.65c0,.81,0,1.62,0,2.43C317.25,124.11,317.24,124.2,317.23,124.32Z"/><path class="cls-14" d="M340.78,122.69a2.08,2.08,0,0,1-.13,1.27.9.9,0,0,1-.84.57,2,2,0,0,1-1.36-.39,1.74,1.74,0,0,1-.54-.86,1.65,1.65,0,0,1-.07-.32,10,10,0,0,1,0-2.32,1.19,1.19,0,0,1,.07-.27,1.1,1.1,0,0,1,1.26-.87,2.52,2.52,0,0,1,.67.16,1.5,1.5,0,0,1,1,1.37c0,.17,0,.34,0,.5a2,2,0,0,1-1-.12,1.91,1.91,0,0,1-.09-.54c-.05-.22-.17-.35-.37-.36a.28.28,0,0,0-.29.18,1.25,1.25,0,0,0,0,.32v1.87a1.41,1.41,0,0,0,.07.41.34.34,0,0,0,.27.23.28.28,0,0,0,.36-.2,3.07,3.07,0,0,0,.07-.42c0-.1,0-.21,0-.34A3.55,3.55,0,0,1,340.78,122.69Z"/><path class="cls-14" d="M329.82,118.65c0,.46,0,.87,0,1.32l-.38,0a.59.59,0,0,0-.6.64c0,.11,0,.22,0,.33v2a.72.72,0,0,1-.07.47,3.42,3.42,0,0,1-1.06,0,1.47,1.47,0,0,1-.06-.27V119c0-.09,0-.18,0-.28a3.67,3.67,0,0,1,1,0l.19.28C329.15,118.81,329.4,118.54,329.82,118.65Z"/><path class="cls-14" d="M304.9,142.28a12.33,12.33,0,0,1-1.32.81,5.68,5.68,0,0,1-.7-1.13c-.24-.36-.43-.76-.64-1.14l-.61-1.1a7.57,7.57,0,0,0-.66-1.13,4.11,4.11,0,0,0-1,.51,8.75,8.75,0,0,1-.69-1.15,2.77,2.77,0,0,1,.29-.22l1.45-.85,1.53-.9.2-.1a3.29,3.29,0,0,1,.65,1.14c-.22.33-.66.38-.95.67a2,2,0,0,0,.08.26l1,1.75,1.32,2.36C304.84,142.12,304.86,142.18,304.9,142.28Z"/><path class="cls-14" d="M315.62,138.19l-1,.29a1.44,1.44,0,0,1-.12-.26c-.32-1.35-.63-2.7-1-4.05-.11-.5-.24-1-.36-1.49q0-.09,0-.21a3,3,0,0,1,1.07-.29,2.6,2.6,0,0,1,.11.34c.07.31.13.61.21.91a2.36,2.36,0,0,0,.12.34l.27-.22a1.2,1.2,0,0,1,.77-.29.9.9,0,0,1,.84.49,2.26,2.26,0,0,1,.15.39c.27,1.15.54,2.3.8,3.45a.27.27,0,0,1,0,.12,3,3,0,0,1-.94.27.65.65,0,0,1-.19-.43c-.17-.7-.32-1.4-.49-2.09-.06-.26-.12-.52-.2-.77s-.19-.3-.37-.29a.4.4,0,0,0-.36.37,1.15,1.15,0,0,0,0,.32c.07.35.16.7.24,1l.42,1.77Z"/><path class="cls-14" d="M309.1,135.29a6.58,6.58,0,0,1,1-.36l.08,0,0,0c.51,1.37,1,2.74,1.52,4.11a.63.63,0,0,1,0,.16,4.12,4.12,0,0,1-.8.35,1.59,1.59,0,0,1-.38,0l-.2.22a1.21,1.21,0,0,1-.64.36A.8.8,0,0,1,309,140a1.38,1.38,0,0,1-.43-.65c-.25-.69-.51-1.37-.76-2-.12-.34-.25-.67-.37-1a2.62,2.62,0,0,1-.09-.33,5,5,0,0,1,.95-.36.54.54,0,0,1,.21.37l.93,2.49a1.81,1.81,0,0,0,.18.37.3.3,0,0,0,.36.15.31.31,0,0,0,.26-.29,1,1,0,0,0,0-.41,3.85,3.85,0,0,0-.2-.57l-.81-2.19C309.14,135.48,309.13,135.41,309.1,135.29Z"/><path class="cls-14" d="M311.45,135.48l-.34,0a2.14,2.14,0,0,1-.24-.79l.29-.21c0-.38-.24-.72-.25-1.14a4,4,0,0,1,1-.32l.35,1.07.4,0c.06.15.12.29.17.43a2.62,2.62,0,0,1,.09.33l-.31.2s0,.07,0,.1a4.48,4.48,0,0,0,.11.5l.45,1.52c.05.16.11.31.16.47l.43.06.24.79a1.92,1.92,0,0,1-.93.34.63.63,0,0,1-.68-.39,6.58,6.58,0,0,1-.29-.78c-.2-.65-.38-1.31-.58-2C311.53,135.68,311.49,135.59,311.45,135.48Z"/><path class="cls-14" d="M307.45,141l-.67.32a2.39,2.39,0,0,1-.32.11.76.76,0,0,1-.11-.16c-.53-1.37-1.15-2.71-1.65-4.11a3.09,3.09,0,0,1,.9-.43l.26.21a1.2,1.2,0,0,0,.11-.1,2.75,2.75,0,0,1,.14-.3.8.8,0,0,1,.22-.23.85.85,0,0,1,.27-.1c.22.4.33.82.53,1.22l-.33.15a.63.63,0,0,0-.35.74,2.06,2.06,0,0,0,.12.35c.23.59.48,1.18.71,1.78A1.54,1.54,0,0,1,307.45,141Z"/><path class="cls-14" d="M339.24,133.05a2.69,2.69,0,0,0-.26,1c.56.21,1.13.31,1.72.48a7.54,7.54,0,0,1-.29,1.35,5.47,5.47,0,0,1-.93-.18l-.75-.16a2.05,2.05,0,0,0-.35,1.19,2.39,2.39,0,0,0,.28.13l1,.23.54.15a1.1,1.1,0,0,1,0,.25,8.31,8.31,0,0,1-.27,1.12c-.35,0-3.06-.66-3.44-.81a2.11,2.11,0,0,1,0-.35c.3-1.32.61-2.63.91-3.95.13-.58.25-1.16.38-1.74,0-.14,0-.31.16-.42s.06,0,.09,0l3.12.77.16.07a2.68,2.68,0,0,1-.25,1.28,3.49,3.49,0,0,1-.9-.17C339.89,133.21,339.58,133.13,339.24,133.05Z"/><path class="cls-14" d="M344.6,133.63l.23.06.81.29c-.06.54-.37,1-.4,1.56h.23a2.36,2.36,0,0,1,.46,0,1,1,0,0,1,.83,1.35c-.14.5-.3,1-.45,1.47-.21.64-.41,1.28-.62,1.91,0,.06-.05.11-.08.18a6.1,6.1,0,0,1-1-.29,2.4,2.4,0,0,1,0-.32c.28-.88.56-1.75.83-2.63,0-.12.08-.24.11-.36a.37.37,0,0,0-.19-.43.41.41,0,0,0-.5.15,2.26,2.26,0,0,0-.19.42c-.27.83-.52,1.66-.79,2.5a2.64,2.64,0,0,1-.1.27.37.37,0,0,1-.38,0l-.36-.11a.56.56,0,0,1-.31-.17s0,0,0-.06a1.16,1.16,0,0,1,0-.18c.13-.44.27-.89.42-1.33C343.67,136.51,344.1,135.08,344.6,133.63Z"/><path class="cls-14" d="M352,141.75l.86.5a2.92,2.92,0,0,0-.11.36,1.12,1.12,0,0,0-.05.36.4.4,0,0,0,.45.32.34.34,0,0,0,.31-.39,1.69,1.69,0,0,0-.23-.65c-.13-.27-.27-.53-.38-.8a1.51,1.51,0,0,1,.11-1.43,1.12,1.12,0,0,1,1.37-.52,2,2,0,0,1,1.1.75,1.09,1.09,0,0,1,.17.89,1.27,1.27,0,0,1-.34.66,3,3,0,0,1-.8-.43,3.63,3.63,0,0,0,.1-.45.4.4,0,0,0-.29-.47.31.31,0,0,0-.41.2.71.71,0,0,0,.06.5c.13.3.29.59.42.89a2.79,2.79,0,0,1,.22.61,1.46,1.46,0,0,1-.66,1.53,1.09,1.09,0,0,1-.95.08,2.64,2.64,0,0,1-.92-.53,1.15,1.15,0,0,1-.39-1.18A2.18,2.18,0,0,1,352,141.75Z"/><path class="cls-14" d="M351.89,140.11l-.89-.4c0-.11,0-.2.05-.28a2.93,2.93,0,0,0,.07-.41.28.28,0,0,0-.19-.29.35.35,0,0,0-.39.06.91.91,0,0,0-.13.19c-.11.24-.23.47-.34.71s-.31.69-.44,1a1.76,1.76,0,0,0-.12.45.3.3,0,0,0,.18.34.36.36,0,0,0,.43-.09c.09-.12.17-.26.25-.39l.17-.29a5.05,5.05,0,0,1,.88.36c0,.05,0,.06,0,.07a1.9,1.9,0,0,1-.91,1.29,1,1,0,0,1-.73.08,2.11,2.11,0,0,1-.95-.46,1.21,1.21,0,0,1-.45-1.16,5.12,5.12,0,0,1,.2-.77,9.54,9.54,0,0,1,.77-1.69,2.22,2.22,0,0,1,.42-.49,1.14,1.14,0,0,1,1.18-.24,2.62,2.62,0,0,1,.78.4,1.19,1.19,0,0,1,.47,1.15A1.55,1.55,0,0,1,351.89,140.11Z"/><path class="cls-14" d="M342.4,138.56l-.2.75a1.48,1.48,0,0,1-1.08-.27.62.62,0,0,1-.27-.57,1.85,1.85,0,0,1,.07-.41c.2-.75.42-1.5.63-2.25,0-.15.07-.3.11-.46l-.3-.23a1.47,1.47,0,0,1,.19-.73l.36-.06c.19-.32.2-.71.38-1.05a3.5,3.5,0,0,1,1,.24,1.61,1.61,0,0,1,0,.31,2.42,2.42,0,0,1-.12.35,1.46,1.46,0,0,0-.08.52l.28.19a1.37,1.37,0,0,1-.2.79H343l-.2,0c-.08.23-.17.45-.24.67-.14.51-.27,1-.4,1.53S342.08,138.26,342.4,138.56Z"/><path class="cls-14" d="M348.05,136.56a6,6,0,0,1,.94.43c-.14.5-.34,1-.51,1.44s-.34,1-.55,1.44a10.27,10.27,0,0,1-.59,1.43,5.39,5.39,0,0,1-1-.41,10.18,10.18,0,0,1,.35-1l1.24-3.21S348,136.6,348.05,136.56Z"/><path class="cls-14" d="M348.54,135.14a3.9,3.9,0,0,1,1,.4,3.34,3.34,0,0,1-.33,1,4.25,4.25,0,0,1-1-.38A1.9,1.9,0,0,1,348.54,135.14Z"/><path class="cls-14" d="M360.94,219.86a1.22,1.22,0,0,1-.16-.14L358,216.37l-.13-.21a2,2,0,0,1,.72-.59,4.41,4.41,0,0,1,.74.47l1.11.78a1.22,1.22,0,0,0,.21.07,2.06,2.06,0,0,0,0-.21,4,4,0,0,0-.26-.32l-.91-1.07a1.3,1.3,0,0,1-.15-.23c.12-.26.38-.32.54-.49a1,1,0,0,1,.4.36l1.5,1.84c.35.44.71.87,1.06,1.3l.12.17c-.15.32-.47.43-.73.63-.71-.43-1.31-1-2-1.38-.12.06-.1.14-.06.2l.3.36,1,1.17s0,.09.07.14A2.34,2.34,0,0,1,360.94,219.86Z"/><path class="cls-14" d="M324.86,230.34a1.61,1.61,0,0,1-.73,0c-.13-.12-.09-.25-.09-.37,0-.66.08-1.31.13-2s.09-1.3.14-2c0-.13,0-.27.05-.4a2,2,0,0,1,1,0c.13.41.18.86.29,1.3s.19.87.31,1.39a1.1,1.1,0,0,0,.09-.56c0-.17,0-.34,0-.51s0-.34,0-.51,0-.35,0-.52,0-.33.05-.52a1.5,1.5,0,0,1,.84,0c0,.09,0,.17,0,.24-.12,2.1-.29,4-.39,4.44a2.18,2.18,0,0,1-1,0c0-.22-.09-.43-.14-.64s-.08-.42-.13-.64-.07-.39-.11-.59a2.43,2.43,0,0,0-.18-.66.62.62,0,0,0-.11.46c0,.13,0,.25,0,.38s0,.28,0,.42,0,.28,0,.42,0,.25,0,.37S324.88,230.2,324.86,230.34Z"/><path class="cls-14" d="M338.19,229.78a4.2,4.2,0,0,1-.9.1,2,2,0,0,1-.07-.29c-.24-1.42-.47-2.85-.71-4.28a.23.23,0,0,1,0-.09,1.88,1.88,0,0,1,.71-.15,6.4,6.4,0,0,1,1-.12,1,1,0,0,1,1.05.74,1.47,1.47,0,0,1-.15,1.42.15.15,0,0,0,0,.09s0,.07,0,.08a1.65,1.65,0,0,1,.59,1.08c.09.34.17.69.26,1.08,0,0-.09.06-.15.08l-.6.1a.75.75,0,0,1-.2,0,1.63,1.63,0,0,1-.22-.75c0-.21-.07-.43-.12-.64a.42.42,0,0,0-.24-.32c-.16-.08-.28-.06-.54.07C338,228.55,338.18,229.13,338.19,229.78Zm-.59-3.93a3.63,3.63,0,0,0,.2,1.13c.25,0,.46,0,.57-.25a.92.92,0,0,0-.13-.84A.57.57,0,0,0,337.6,225.85Z"/><path class="cls-14" d="M316.14,227.27a1.53,1.53,0,0,0-.76-.19c-.27.59-.35,1.23-.56,1.82a1.61,1.61,0,0,1-.89-.22c.07-.5,1.09-4.27,1.23-4.55a2.19,2.19,0,0,1,.85.22c0,.61-.33,1.14-.39,1.74a1.56,1.56,0,0,0,.81.15c.23-.53.27-1.12.49-1.65a2.4,2.4,0,0,1,.86.18c0,.34-1,4.1-1.21,4.59a3,3,0,0,1-.86-.19,5.85,5.85,0,0,1,.23-1A7.74,7.74,0,0,0,316.14,227.27Z"/><path class="cls-14" d="M293.84,218.23a1.21,1.21,0,0,1,.25-.78,15.35,15.35,0,0,1,1.73-2l.11-.09a1.4,1.4,0,0,1,2.23.49,1,1,0,0,1,0,.9,3.25,3.25,0,0,1-.35.6,14.32,14.32,0,0,1-1.58,1.72,1.39,1.39,0,0,1-2.21-.27A1,1,0,0,1,293.84,218.23Zm3.48-1.86a.46.46,0,0,0-.19-.36.39.39,0,0,0-.44,0,2.92,2.92,0,0,0-.41.37c-.39.42-.78.84-1.16,1.28a1.5,1.5,0,0,0-.28.47.35.35,0,0,0,.43.47.7.7,0,0,0,.35-.21c.38-.39.74-.79,1.11-1.19a2.47,2.47,0,0,0,.59-.83Z"/><path class="cls-14" d="M320.74,225.13l.84.1c.12.11.09.22.08.33-.12,1-.24,2-.35,3a2.61,2.61,0,0,0,0,.56.27.27,0,0,0,.27.22.3.3,0,0,0,.32-.15A.49.49,0,0,0,322,229a2,2,0,0,0,.06-.32c.12-.88.23-1.76.34-2.64a1.86,1.86,0,0,1,.12-.63,1.38,1.38,0,0,1,.87.11.78.78,0,0,1,0,.22l-.39,3.15a2.15,2.15,0,0,1-.12.5,1.15,1.15,0,0,1-1.17.82,2.43,2.43,0,0,1-.6-.1,1.06,1.06,0,0,1-.78-1.05,4.82,4.82,0,0,1,0-.93c.1-.87.21-1.73.32-2.6C320.68,225.41,320.71,225.3,320.74,225.13Z"/><path class="cls-14" d="M354.84,218.22a3.35,3.35,0,0,1,.77-.54l.54.7c.48.64.94,1.28,1.42,1.91a2.5,2.5,0,0,0,.43.43.27.27,0,0,0,.38,0,.28.28,0,0,0,.09-.34,1.94,1.94,0,0,0-.22-.4c-.32-.46-.66-.91-1-1.36l-1-1.35a.49.49,0,0,1,.1-.13l.59-.39a1.43,1.43,0,0,1,.42.43l1.6,2.19a2.56,2.56,0,0,1,.44.81,1,1,0,0,1-.23,1,1.88,1.88,0,0,1-.65.46,1.06,1.06,0,0,1-1.06-.08,2.48,2.48,0,0,1-.63-.62c-.28-.36-.56-.71-.82-1.08C355.64,219.32,355.25,218.79,354.84,218.22Z"/><path class="cls-14" d="M293.12,215.54a2.49,2.49,0,0,1,.65.6,2.35,2.35,0,0,1-1.17.82,1,1,0,0,1-.73-.06,1.71,1.71,0,0,1-.78-.7,1,1,0,0,1,0-1.15,5.49,5.49,0,0,1,.63-.81c.34-.37.7-.71,1.06-1.05a3.2,3.2,0,0,1,.51-.4,1.23,1.23,0,0,1,1.41,0,1.63,1.63,0,0,1,.66.76.89.89,0,0,1,0,.73,2.5,2.5,0,0,1-.61.88c-.28-.13-.42-.38-.65-.58l.21-.31a1.51,1.51,0,0,0,.15-.28.35.35,0,0,0-.42-.45.8.8,0,0,0-.37.18c-.52.51-1,1-1.54,1.56a.8.8,0,0,0-.18.27.35.35,0,0,0,0,.43.35.35,0,0,0,.47.07,3.27,3.27,0,0,0,.37-.28Z"/><path class="cls-14" d="M312.87,225.12c0-.19.05-.36.06-.53a.4.4,0,0,0-.25-.4.38.38,0,0,0-.48.18,1.29,1.29,0,0,0-.17.33c-.2.59-.39,1.18-.57,1.78a1.67,1.67,0,0,0-.06.5.31.31,0,0,0,.25.35.36.36,0,0,0,.44-.17c.12-.22.22-.44.32-.66a1.37,1.37,0,0,1,.82.23.72.72,0,0,1,0,.25,2,2,0,0,1-.45.86,1.12,1.12,0,0,1-.92.39,1.52,1.52,0,0,1-1.27-.66,1,1,0,0,1-.18-.62,4.14,4.14,0,0,1,.09-.6c.14-.5.29-1,.46-1.51a6.52,6.52,0,0,1,.35-.82,1.22,1.22,0,0,1,1.55-.68,1.45,1.45,0,0,1,.35.12,1.1,1.1,0,0,1,.67.94,1.74,1.74,0,0,1-.16,1A2,2,0,0,1,312.87,225.12Z"/><path class="cls-14" d="M331.88,230.52H330.8a3.4,3.4,0,0,1-.12-.34l-.81-3.64-.16-.71a1.92,1.92,0,0,1,1,0c.14.5.17,1,.29,1.51a13.58,13.58,0,0,0,.32,1.53,4.19,4.19,0,0,0,.19-1.05c.07-.34.1-.68.15-1s.09-.64.13-1a1.85,1.85,0,0,1,1,0,1,1,0,0,1,0,.11,1.1,1.1,0,0,1,0,.18c-.26,1.43-.52,2.85-.79,4.27C331.94,230.36,331.91,230.42,331.88,230.52Z"/><path class="cls-14" d="M341.74,225.31c-.12-.18-.19-.31-.28-.44a.28.28,0,0,0-.33-.1.29.29,0,0,0-.2.24.54.54,0,0,0,.23.57,2.35,2.35,0,0,0,.42.21l.84.39a1.07,1.07,0,0,1,.55.61,2,2,0,0,1,.18,1.13,1,1,0,0,1-.69.87,1.49,1.49,0,0,1-.86.12,1.21,1.21,0,0,1-.82-.64l-.08-.17c-.22-.54-.15-.6.35-.69l.23,0,.05,0c.16.09.16.28.24.43a.37.37,0,0,0,.41.23.29.29,0,0,0,.26-.23.57.57,0,0,0-.13-.56,1.39,1.39,0,0,0-.5-.34l-.69-.29a1.56,1.56,0,0,1-.91-1.46,1.07,1.07,0,0,1,.88-1.15l.23-.05a1.09,1.09,0,0,1,1.2.6.91.91,0,0,1,.11.25,2,2,0,0,1,.05.24A1.4,1.4,0,0,1,341.74,225.31Z"/><path class="cls-14" d="M354.5,224a1.25,1.25,0,0,1-.16-.17c-.37-.53-2.18-3.62-2.3-3.92.07-.05.13-.11.21-.16.41-.22.82-.44,1.23-.64a1,1,0,0,1,1.16.2,2.18,2.18,0,0,1,.69,1.14,1,1,0,0,1-.41,1.15,4.52,4.52,0,0,1-.51.34,17,17,0,0,0,.84,1.58A1.79,1.79,0,0,1,354.5,224Zm-.6-2.85a.44.44,0,0,0,.42-.3.47.47,0,0,0,0-.4,2,2,0,0,0-.1-.21.53.53,0,0,0-.8-.19.14.14,0,0,0-.07.19A3.69,3.69,0,0,0,353.9,221.11Z"/><path class="cls-14" d="M334.36,226.36a3.34,3.34,0,0,0,0,.84c.43.13.8-.08,1.21,0a.74.74,0,0,1,.1.22,6,6,0,0,1,0,.61c-.37.19-.79.08-1.14.22a2.26,2.26,0,0,0,.11,1c.42.06.83-.1,1.27-.05,0,.14.05.27.07.41s0,.27.05.41a2.45,2.45,0,0,1-.94.18,4.94,4.94,0,0,1-1.33.08c0-.06,0-.11-.06-.15-.18-1.48-.35-3-.53-4.47.07,0,.13-.09.2-.1l1.81-.23h.24a1.64,1.64,0,0,1,.11.84C335.21,226.29,334.78,226.25,334.36,226.36Z"/><path class="cls-14" d="M300.11,223a5.55,5.55,0,0,1-.81-.44c.3-.6,2.25-3.8,2.5-4.1a6.9,6.9,0,0,1,1.5.89,1,1,0,0,1,.25,1.27,2.73,2.73,0,0,1-.47.74,1.14,1.14,0,0,1-1.34.39,3.17,3.17,0,0,1-.38-.17c-.26-.12-.31-.11-.46.12l-.57,1C300.27,222.72,300.19,222.82,300.11,223Zm2.06-3.38a7,7,0,0,0-.6,1.05c.24.2.42.26.6.19a.92.92,0,0,0,.48-.7C302.65,219.82,302.47,219.7,302.17,219.57Z"/><path class="cls-14" d="M308.63,224.92a3.87,3.87,0,0,0-.37.91c.31.34.8.31,1.15.59a3.91,3.91,0,0,1-.31.76,10,10,0,0,1-2.11-.82c.12-.42,1.61-4,1.85-4.34a1.11,1.11,0,0,1,.25,0l1.65.65a1.16,1.16,0,0,1,.16.11,1.44,1.44,0,0,1-.29.74l-.31-.07-.7-.27c-.18-.06-.27,0-.34.13a1.66,1.66,0,0,0-.2.63c.32.22.71.29,1.06.5a2.08,2.08,0,0,1-.35.77C309.38,225.21,309.05,225,308.63,224.92Z"/><path class="cls-14" d="M363.35,213.81l.61.6c-.21.35-.57.52-.77.84a1.52,1.52,0,0,0,.7.77c.39-.18.62-.55,1-.79.27.13.4.39.62.58a4,4,0,0,1-.77.81c-.26.27-.55.5-.83.75a.83.83,0,0,1-.17-.12L360.47,214c.07-.09.1-.18.17-.23.45-.43.91-.85,1.37-1.27l.12-.05a4.11,4.11,0,0,1,.59.59l-.92.89a2.38,2.38,0,0,0,.61.65c.23,0,.33-.24.48-.36Z"/><path class="cls-14" d="M300.63,218.7l-1-.68c-.32.21-.32.21-.58.69.23.31.62.44.9.75l-.21.34c-.08.11-.17.21-.27.33a1.62,1.62,0,0,1-.53-.3l-.49-.31a3,3,0,0,0-.63.83,2.29,2.29,0,0,0,.21.23l.78.56a2.49,2.49,0,0,1-.52.74c-.64-.41-1.23-.82-1.83-1.27a9,9,0,0,1,.92-1.31c.3-.43.63-.85.95-1.27l.93-1.27c.08,0,.13,0,.16,0l1.5,1,.23.21A2.61,2.61,0,0,1,300.63,218.7Z"/><path class="cls-14" d="M347.48,222.15a2.52,2.52,0,0,1,.74-.36.21.21,0,0,1,.25.08c.15.18.29.36.43.55a1.16,1.16,0,0,0,.39.37s.06-.1,0-.15c0-.22,0-.43-.07-.65l-.06-.52a2.08,2.08,0,0,1,.91-.4c0,.12.05.22.06.33.05.71.11,1.42.15,2.14a2,2,0,0,0,.16.77c.21.46.4.94.61,1.43a1.88,1.88,0,0,1-.88.41l-.17-.35c-.19-.42-.37-.85-.55-1.28a1.68,1.68,0,0,0-.37-.54c-.46-.48-.91-1-1.36-1.46Z"/><path class="cls-14" d="M305.28,225.65a3.33,3.33,0,0,1-.83-.39,8.61,8.61,0,0,1,.54-1.19c.17-.39.38-.75.54-1.14a4.81,4.81,0,0,0,.53-1.2l-.63-.33a1.74,1.74,0,0,1,.37-.79c.76.36,1.54.67,2.3,1.06a1.55,1.55,0,0,1-.31.73c-.29,0-.49-.23-.79-.2a8.12,8.12,0,0,0-.58,1.14c-.19.37-.36.75-.55,1.13S305.49,225.24,305.28,225.65Z"/><path class="cls-14" d="M347.91,227a1.93,1.93,0,0,1-.85.3,2.43,2.43,0,0,1-.14-.28c-.35-.93-.69-1.86-1-2.8l-.18-.44c-.3-.08-.51.14-.78.1a2.28,2.28,0,0,1-.31-.71.9.9,0,0,1,.19-.14l2.07-.72a.58.58,0,0,1,.19,0,2.5,2.5,0,0,1,.28.73c-.18.22-.47.18-.67.34s0,.23,0,.35l1.14,3.1A1.45,1.45,0,0,1,347.91,227Z"/><path class="cls-14" d="M328.94,225.79a.28.28,0,0,1,0,.12c0,1.46-.05,2.93-.09,4.39a.81.81,0,0,1,0,.19,2.94,2.94,0,0,1-.89,0,2.21,2.21,0,0,1,0-.29c0-1,0-2.06.07-3.08,0-.27,0-.53,0-.79s0-.37,0-.55A1.25,1.25,0,0,1,328.94,225.79Z"/><path class="cls-14" d="M344.55,228.15c-.06-.07-.11-.1-.12-.14-.46-1.4-.91-2.8-1.37-4.2,0-.06,0-.12,0-.19a3.32,3.32,0,0,1,.83-.26l.05,0,0,0,1.35,4.21c0,.07,0,.14.05.23A2.3,2.3,0,0,1,344.55,228.15Z"/><path class="cls-14" d="M353.19,236.54l-.22-.13a1,1,0,0,1-.43-.47.81.81,0,0,1,.19-1,1.35,1.35,0,0,1,.87-.39,1,1,0,0,1,1,1.13c0,.1-.06.2-.09.33s.15.11.23.15a1.22,1.22,0,0,1,.66,1.1,1,1,0,0,1-.07.41,1.23,1.23,0,0,1-1.1.67,1,1,0,0,1-.95-.56,1.06,1.06,0,0,1-.1-1.1A.27.27,0,0,0,353.19,236.54Zm1.45.79a1.06,1.06,0,0,0-.31-.69.28.28,0,0,0-.34,0,.26.26,0,0,0-.15.26,1.05,1.05,0,0,0,.29.71.29.29,0,0,0,.34.07C354.58,237.6,354.64,237.48,354.64,237.33Zm-1.42-1.89a.68.68,0,0,0,.23.53.31.31,0,0,0,.31.05.26.26,0,0,0,.17-.25.64.64,0,0,0-.17-.51.32.32,0,0,0-.38-.09C353.26,235.21,353.23,235.31,353.22,235.44Z"/><path class="cls-14" d="M355.87,235a4.07,4.07,0,0,1,.35-.3.77.77,0,0,1,1.12.11,2.56,2.56,0,0,1,.59,1.1.9.9,0,0,1-.4,1l-.21.11a1,1,0,0,1-1.52-.56c.14-.19.39-.21.6-.32.1.1.18.19.27.27a.32.32,0,0,0,.35.05.28.28,0,0,0,.14-.32,1.62,1.62,0,0,0-.42-.87c-.14-.16-.45-.14-.51.06-.1.36-.39.39-.67.51-.06-.1-.12-.17-.16-.25l-.68-1.52a7.65,7.65,0,0,1,1.76-.82l.25.44c-.33.34-.82.35-1.13.68A1.14,1.14,0,0,0,355.87,235Z"/><path class="cls-14" d="M360.41,234.43a.58.58,0,0,1-.08.14.23.23,0,0,0-.05.29l.21.42a1.65,1.65,0,0,1-.62.38l-.39-.54a1.1,1.1,0,0,0-.26.06c-.16.07-.3.16-.46.24a.73.73,0,0,1-.44.15,1.14,1.14,0,0,1-.34-.77c0-.68,0-1.37-.05-2.05a.43.43,0,0,1,.25-.45,1.23,1.23,0,0,1,.51-.18c.44.6.71,1.32,1.16,1.94h.35Zm-1.89-1a4.68,4.68,0,0,0,.09,1.32.83.83,0,0,0,.6-.3,5.08,5.08,0,0,0-.61-1S358.55,233.4,358.52,233.4Z"/><path class="cls-14" d="M328,243.48c-.36.06-.64.08-.87-.15l-.46.18a.68.68,0,0,1-.73-.17.75.75,0,0,1-.2-.77.82.82,0,0,1,.54-.6l.51-.21a1.19,1.19,0,0,0,.25-.13.26.26,0,0,0,.13-.32.25.25,0,0,0-.18-.19.29.29,0,0,0-.32.14l-.12.21a1.35,1.35,0,0,1-.69,0,.69.69,0,0,1,.46-.74,1.67,1.67,0,0,1,1.28,0,.6.6,0,0,1,.39.53c0,.07,0,.13,0,.19Zm-.88-1.29c-.42,0-.61.19-.61.5a.27.27,0,0,0,.33.29.31.31,0,0,0,.3-.26A.8.8,0,0,0,327.09,242.19Z"/><path class="cls-14" d="M335,243.14l-.69.08a1.32,1.32,0,0,1-.08-.19c-.1-.75-.19-1.51-.28-2.27,0-.1,0-.2,0-.31a1.09,1.09,0,0,1,.61-.06s.09.08.15.15l.22-.16a1,1,0,0,1,.46-.19.51.51,0,0,1,.56.33,1.69,1.69,0,0,1,.12.36c.09.64.17,1.29.26,1.94a.3.3,0,0,1,0,.11,1,1,0,0,1-.72.11c0-.14-.05-.27-.07-.41l-.15-1.25a2.71,2.71,0,0,0-.09-.41.22.22,0,0,0-.38,0,.91.91,0,0,0-.09.36c0,.2,0,.4.06.6s.09.65.13,1A2.55,2.55,0,0,1,335,243.14Z"/><path class="cls-14" d="M323.8,243.4a1.73,1.73,0,0,1-.68,0,.7.7,0,0,1-.05-.18c.06-.81.11-1.61.17-2.42l.05-.16a.73.73,0,0,1,.8.2l.32-.14a.66.66,0,0,1,.46,0,.52.52,0,0,1,.42.44,1.54,1.54,0,0,1,0,.37c0,.64-.09,1.27-.14,1.91a.37.37,0,0,1,0,.11,1.16,1.16,0,0,1-.73,0c0-.14,0-.26,0-.38,0-.42.06-.83.09-1.25a1.48,1.48,0,0,0,0-.42.24.24,0,0,0-.14-.16.21.21,0,0,0-.24.08.77.77,0,0,0-.14.44c0,.45-.07.9-.11,1.35C323.85,243.19,323.82,243.29,323.8,243.4Z"/><path class="cls-14" d="M333.67,242.08c0,.24,0,.44-.08.64a.74.74,0,0,1-.57.61,1.46,1.46,0,0,1-.83,0,.66.66,0,0,1-.48-.39,2.87,2.87,0,0,1-.2-1.78.87.87,0,0,1,.79-.73,1.22,1.22,0,0,1,.33,0,.82.82,0,0,1,.87.68A9.45,9.45,0,0,1,333.67,242.08Zm-1.42-.43c0,.31.05.56.08.8a1.12,1.12,0,0,0,.08.26.2.2,0,0,0,.24.11.34.34,0,0,0,.18-.13.41.41,0,0,0,0-.22c0-.39-.05-.78-.09-1.16a.35.35,0,0,0,0-.14.27.27,0,0,0-.25-.17.23.23,0,0,0-.22.2C332.26,241.37,332.26,241.54,332.25,241.65Z"/><path class="cls-14" d="M297.78,236.81a.85.85,0,0,1-.62-.27,16.88,16.88,0,0,1,1.21-2.45c.43.1.5.15.63.47l.31,0a.68.68,0,0,1,.48.13.5.5,0,0,1,.24.56,1,1,0,0,1-.1.31c-.29.59-.57,1.17-.87,1.76,0,0-.06.06-.1.11a1,1,0,0,1-.63-.27,7.26,7.26,0,0,1,.47-1c.1-.19.2-.39.29-.58a1.14,1.14,0,0,0,.09-.26c0-.1,0-.21-.07-.25a.46.46,0,0,0-.26,0,.59.59,0,0,0-.3.34c-.2.41-.4.81-.61,1.21A1.64,1.64,0,0,1,297.78,236.81Z"/><path class="cls-14" d="M344,241.55a1.18,1.18,0,0,1-.66.14,3.42,3.42,0,0,1-.26-.84c-.07-.3-.13-.6-.2-.91a.63.63,0,0,0-.07-.22.22.22,0,0,0-.22-.14.25.25,0,0,0-.21.16.63.63,0,0,0,0,.45c.1.43.2.85.29,1.27a3.79,3.79,0,0,1,.06.38,1.71,1.71,0,0,1-.71.16,2.33,2.33,0,0,1-.11-.31l-.48-2.18a1.33,1.33,0,0,1,0-.2c.26-.13.52-.27.78,0a3.1,3.1,0,0,1,.46-.31.59.59,0,0,1,.86.38l.06.17.42,1.86A1,1,0,0,1,344,241.55Z"/><path class="cls-14" d="M319.64,241.28a9.15,9.15,0,0,1-.22,1,.87.87,0,0,1-1,.67,1.37,1.37,0,0,1-.49-.13.75.75,0,0,1-.48-.59,3,3,0,0,1,.29-1.85.75.75,0,0,1,.6-.39.82.82,0,0,1,.27,0c.7,0,1,.36,1,1.07v.18Zm-1.46.64a1.86,1.86,0,0,0,.06.38.2.2,0,0,0,.34.06,1.14,1.14,0,0,0,.15-.34c0-.35.08-.71.12-1.07a.57.57,0,0,0,0-.22.22.22,0,0,0-.38-.06.79.79,0,0,0-.12.3C318.26,241.27,318.22,241.58,318.18,241.92Z"/><path class="cls-14" d="M348.69,238.9l-1.16.38a.75.75,0,0,0,.2.67.34.34,0,0,0,.24.09.23.23,0,0,0,.22-.2,1.83,1.83,0,0,0,0-.33,1,1,0,0,1,.55-.2c.17.09.16.25.16.38a.75.75,0,0,1-.14.48,1.49,1.49,0,0,1-1.32.43.83.83,0,0,1-.49-.41,4.59,4.59,0,0,1-.48-1.45.74.74,0,0,1,.45-.88,1.4,1.4,0,0,1,.7-.21.8.8,0,0,1,.75.38A1.9,1.9,0,0,1,348.69,238.9Zm-.83-.22a.54.54,0,0,0-.14-.43.31.31,0,0,0-.47.05.48.48,0,0,0,.05.47c.11.1.23,0,.35,0Z"/><path class="cls-14" d="M304.59,238.67l.35.11c.24.09.27.19.14.38a.83.83,0,0,1-1,.41,1.73,1.73,0,0,1-.7-.36.63.63,0,0,1-.24-.62,3.39,3.39,0,0,1,.13-.55c.12-.31.26-.63.41-.93a.79.79,0,0,1,.92-.47,2.25,2.25,0,0,1,.66.23.71.71,0,0,1,.38.69,1.71,1.71,0,0,1-.31.91c-.17,0-.32-.07-.48-.11l-.57-.21a.2.2,0,0,0-.27.12,3.17,3.17,0,0,0-.12.44.23.23,0,0,0,.14.27.3.3,0,0,0,.35,0C304.46,238.86,304.51,238.77,304.59,238.67Zm.27-.85a1.82,1.82,0,0,0,.11-.3.26.26,0,0,0-.16-.3.28.28,0,0,0-.36.1.34.34,0,0,0-.06.37c.08,0,.17.08.27.11A1,1,0,0,0,304.86,237.82Z"/><path class="cls-14" d="M315.71,241.11c-.47,0-.87-.18-1.28-.17a.87.87,0,0,0-.14.55.29.29,0,0,0,.21.32.27.27,0,0,0,.32-.14c.05-.07.09-.16.14-.24a1.14,1.14,0,0,1,.6.15.65.65,0,0,1-.25.57.8.8,0,0,1-.69.22,3,3,0,0,1-.71-.21.66.66,0,0,1-.38-.7,4.52,4.52,0,0,1,.33-1.54.86.86,0,0,1,.72-.53,1.39,1.39,0,0,1,1.08.35.67.67,0,0,1,.23.54A2.48,2.48,0,0,1,315.71,241.11Zm-1.22-.68.45.13a.16.16,0,0,0,.2-.14.82.82,0,0,0,0-.27.25.25,0,0,0-.2-.23.27.27,0,0,0-.31.12C314.59,240.15,314.56,240.26,314.49,240.43Z"/><path class="cls-14" d="M312.39,240.77a2.32,2.32,0,0,1,.63.16.66.66,0,0,1-.19.6.92.92,0,0,1-.59.34,1.42,1.42,0,0,1-.92-.26.71.71,0,0,1-.33-.54,2.46,2.46,0,0,1,0-.47,4.27,4.27,0,0,1,.33-1.16.87.87,0,0,1,1-.55l.32.08a.82.82,0,0,1,.54,1.19,1.28,1.28,0,0,1-.63-.11l0-.37a.23.23,0,0,0-.18-.2.24.24,0,0,0-.28.12.46.46,0,0,0-.07.16q-.13.57-.24,1.14a.46.46,0,0,0,0,.23.26.26,0,0,0,.15.14.23.23,0,0,0,.21-.07A3.31,3.31,0,0,0,312.39,240.77Z"/><path class="cls-14" d="M345.68,240.13a1.56,1.56,0,0,1,.24-.11l.4-.09a.8.8,0,0,1-.3,1.2,1.68,1.68,0,0,1-.42.17.87.87,0,0,1-1.11-.53,3.21,3.21,0,0,1-.38-1.38.83.83,0,0,1,.65-.95l.27-.06c.6-.11.94.15,1.08.8a1,1,0,0,1-.62.15c-.07-.09-.13-.2-.21-.29a.24.24,0,0,0-.3-.06.24.24,0,0,0-.13.23,1.35,1.35,0,0,0,0,.28c.1.34.2.68.31,1s.2.28.34.23.17-.13.17-.34S345.69,240.24,345.68,240.13Z"/><path class="cls-14" d="M339.82,240.4l-.53.09c-.08-.08-.14-.17-.22-.24a.27.27,0,0,0-.38,0,.27.27,0,0,0,.1.4,2.65,2.65,0,0,0,.3.11l.58.2a.87.87,0,0,1,.15,1.44,1.29,1.29,0,0,1-1.16.19.8.8,0,0,1-.47-.43c-.09-.19,0-.29.17-.33l.35,0,.2.23a.32.32,0,0,0,.31.08.24.24,0,0,0,.21-.21.26.26,0,0,0-.12-.29,1.86,1.86,0,0,0-.25-.1l-.54-.16a1,1,0,0,1-.44-.34.76.76,0,0,1,.35-1.22,1.36,1.36,0,0,1,.82-.09,1.07,1.07,0,0,1,.41.21A.43.43,0,0,1,339.82,240.4Z"/><path class="cls-14" d="M302.79,236.78a2.65,2.65,0,0,0,0-.27.27.27,0,0,0-.36-.19.25.25,0,0,0-.15.34,1.65,1.65,0,0,0,.19.27l.37.47a.75.75,0,0,1,0,.88.77.77,0,0,1-.76.44,1.28,1.28,0,0,1-.89-.35A1,1,0,0,1,301,238a.44.44,0,0,1,.07-.48c.14-.12.29,0,.43.05l.15.08a2.6,2.6,0,0,0,0,.26.3.3,0,0,0,.31.28.24.24,0,0,0,.25-.3.72.72,0,0,0-.12-.25c-.08-.11-.19-.21-.27-.32a2.34,2.34,0,0,1-.25-.39.82.82,0,0,1,.82-1.13,1.29,1.29,0,0,1,.87.4.6.6,0,0,1,.19.37.51.51,0,0,1-.11.44A1.21,1.21,0,0,1,302.79,236.78Z"/><path class="cls-14" d="M308,237.87a1.12,1.12,0,0,1,.69.18c0,.52-.19,1-.19,1.56.08,0,.14-.05.16-.09.14-.24.26-.49.39-.74s.18-.35.27-.54a1.56,1.56,0,0,1,.67.21,17.07,17.07,0,0,1-1.48,2.46l-.74-.22a3.63,3.63,0,0,1,0-.94c0-.31.06-.62.09-.93S307.92,238.21,308,237.87Z"/><path class="cls-14" d="M351.88,239.21a11.43,11.43,0,0,1-.5-1.21c-.17-.38-.26-.79-.46-1.15-.27-.06-.46.14-.71.13a.46.46,0,0,1-.17-.42c.34-.22.74-.41.7-.94l.49-.17a1.91,1.91,0,0,1,.16.27c.07.16.13.32.19.48.34.9.68,1.8,1,2.71A1.39,1.39,0,0,1,351.88,239.21Z"/><path class="cls-14" d="M320.87,243.17a2.1,2.1,0,0,1-.68-.06.61.61,0,0,1,0-.46c0-.37.09-.74.14-1.11,0-.2,0-.4.05-.59l-.25-.18a.53.53,0,0,1,.06-.44l.28-.09c0-.1.05-.21.08-.31a.64.64,0,0,1,.65-.5l.27,0,.22.08c0,.25,0,.43-.26.52-.09,0-.09,0-.14.27l.29.17,0,.43-.34.1Z"/><path class="cls-14" d="M328.56,239.93a2.21,2.21,0,0,1,.71,0c.17.23,0,.48.15.73l.27.11a.42.42,0,0,1,0,.41l-.29.12a.5.5,0,0,0,0,.13c0,.34,0,.68,0,1s0,.59.39.6v.4a.71.71,0,0,1-.59.12.59.59,0,0,1-.56-.54,4.4,4.4,0,0,1,0-.51c0-.37,0-.74,0-1.12-.09-.08-.22-.14-.27-.23a1,1,0,0,1,0-.35l.27-.17Z"/><path class="cls-14" d="M296.46,236.24l-.36-.16-.33-.21c.28-.57.6-1.1.91-1.63s.6-1.08.92-1.64a3.63,3.63,0,0,1,.74.36c0,.07,0,.13,0,.18l-1.54,2.72C296.68,236,296.64,236.15,296.46,236.24Z"/><path class="cls-14" d="M307.6,237.67l-.22.64s-.07.05-.09.05c-.39-.11-.53,0-.66.39s-.27.77-.4,1.15a1.28,1.28,0,0,1-.09.22,1.25,1.25,0,0,1-.67-.2,3.72,3.72,0,0,1,.24-.9c.09-.29.19-.56.29-.84a4.59,4.59,0,0,1,.33-.89c.29.06.61,0,.66.43C307.39,237.6,307.39,237.6,307.6,237.67Z"/><path class="cls-14" d="M331,243.43h-.68a.71.71,0,0,1-.06-.23c0-.76,0-1.52-.05-2.29,0-.07,0-.14,0-.24l.33,0,.34,0a.92.92,0,0,1,.07.26c0,.78,0,1.56.07,2.34A.85.85,0,0,1,331,243.43Z"/><path class="cls-14" d="M310.31,238.45a2.43,2.43,0,0,1,.63.17,13.71,13.71,0,0,1-.71,2.65.88.88,0,0,1-.65-.15A13.71,13.71,0,0,1,310.31,238.45Z"/><path class="cls-14" d="M340.77,239.44a2.4,2.4,0,0,1,.15.42c.16.74.35,1.48.47,2.23a.82.82,0,0,1-.66.18,14.75,14.75,0,0,1-.64-2.61.39.39,0,0,1,.17-.11A4,4,0,0,1,340.77,239.44Z"/><path class="cls-14" d="M310.6,237.49l.59.15a.78.78,0,0,1-.13.61,2,2,0,0,1-.64-.17A.79.79,0,0,1,310.6,237.49Z"/><path class="cls-14" d="M340.57,238.5a.92.92,0,0,1,.12.53,1.11,1.11,0,0,1-.68.15.74.74,0,0,1-.1-.53A1.22,1.22,0,0,1,340.57,238.5Z"/><path class="cls-14" d="M330.94,240.25a1.57,1.57,0,0,1-.68,0,.75.75,0,0,1,0-.55,1.05,1.05,0,0,1,.68-.05A.82.82,0,0,1,330.94,240.25Z"/><path class="cls-14" d="M298.69,160.8c.13,0,.25.07.36.12l1.6.77c.71.32,1.41.66,2.13.94s1.56.55,2.34.81a19.3,19.3,0,0,0,2.36.57,18.87,18.87,0,0,0,4.56.32,17,17,0,0,0,3-.44,16.65,16.65,0,0,0,3.8-1.39,19.33,19.33,0,0,0,2.48-1.48,25.2,25.2,0,0,0,3.24-2.68c.66-.64,1.27-1.33,1.89-2,.34-.37.66-.74,1-1.13l.28.26c.64.69,1.26,1.39,1.9,2.07a28.14,28.14,0,0,0,2.47,2.28c.6.49,1.23,1,1.88,1.39a18.5,18.5,0,0,0,5.3,2.49,17.33,17.33,0,0,0,3.12.58,18.17,18.17,0,0,0,4.42-.14,18,18,0,0,0,3.09-.7l.5-.15a27.91,27.91,0,0,0,4-1.62l1.51-.73c.11-.05.23-.08.38-.13,0,.1.05.17.06.24.12,1,.24,2,.35,3,.09.8.16,1.61.22,2.42s.11,1.55.14,2.33c0,1.4.09,2.8.08,4.2,0,1.7-.08,3.4-.22,5.09-.1,1.16-.26,2.32-.42,3.48-.23,1.63-.55,3.25-.94,4.85-.24,1-.51,2-.83,3s-.6,1.83-.95,2.73c-.41,1.08-.85,2.14-1.35,3.18-.4.81-.8,1.62-1.23,2.41s-1,1.76-1.56,2.61-1.06,1.58-1.63,2.33-1.31,1.67-2,2.46-1.32,1.45-2,2.15a36.87,36.87,0,0,1-3.15,2.84c-.83.67-1.66,1.31-2.54,1.92-.72.5-1.47,1-2.22,1.45s-1.66,1-2.5,1.47c-.54.3-1.1.57-1.66.85-1.21.61-2.46,1.14-3.7,1.67a.93.93,0,0,1-.8,0c-1.39-.58-2.78-1.18-4.13-1.86-1-.51-2-1.06-3-1.66-.72-.43-1.43-.88-2.13-1.34-1-.66-2-1.38-2.95-2.13s-2.1-1.72-3.08-2.65a40.56,40.56,0,0,1-3.43-3.63c-.71-.85-1.4-1.72-2-2.63-.51-.73-1-1.45-1.49-2.21s-.85-1.45-1.25-2.18a39.91,39.91,0,0,1-2.09-4.38q-.63-1.56-1.17-3.15a49.16,49.16,0,0,1-1.44-5.32q-.6-2.85-.92-5.76c-.14-1.38-.25-2.76-.31-4.14s-.09-3.06,0-4.58.12-3,.23-4.48.28-2.88.42-4.32A1.43,1.43,0,0,1,298.69,160.8Zm24.59.5v.52c0,1.16,0,2.31,0,3.46q.06,7.78.11,15.56c0,1.61,0,3.21,0,4.82,0,.51.05.43-.37.78-.58.48-1.16.94-1.74,1.41l-4,3.29-2.63,2.16-1.7,1.39-1.77,1.45-2.42,2-1.59,1.29c-.06.05-.1.11-.15.16a33.32,33.32,0,0,0,4.93,6.1,1.46,1.46,0,0,0,.52-.37c.68-.55,1.34-1.11,2-1.67l2.58-2.09,2.55-2.11c.75-.63,1.52-1.25,2.27-1.87s1.67-1.4,2.52-2.09l2.85-2.34a1,1,0,0,1,.49-.29l.47.36.93.78,3.37,2.74,3.11,2.54,3.16,2.56,4.56,3.72.25.15a22.85,22.85,0,0,0,1.77-1.93c.54-.67,1.09-1.33,1.6-2a17.16,17.16,0,0,0,1.48-2.16l-.28-.27L345,196.71l-2.91-2.35-2.61-2.11c-1.06-.85-2.1-1.72-3.15-2.57-1.36-1.1-2.71-2.19-4.08-3.28a.76.76,0,0,1-.32-.67c0-1.1,0-2.21,0-3.31l-.09-16.08c0-1.56,0-3.12,0-4.67a.64.64,0,0,0-.31-.63l-.14-.12a28.8,28.8,0,0,1-2.45-2.23c-.38-.39-.74-.8-1.12-1.19a2.66,2.66,0,0,0-.28-.23l-1,1.08q-.5.53-1,1l-1.07,1Zm-1.49,1.12-.41.21-1.24.73a18.81,18.81,0,0,1-3.11,1.39,17.53,17.53,0,0,1-1.88.54,19.12,19.12,0,0,1-7.15.21,22.56,22.56,0,0,1-4.12-1c-.38-.13-.77-.24-1.14-.4-.88-.36-1.75-.74-2.62-1.11-.09,0-.17-.09-.29,0s-.05.31-.07.48c-.18,1.74-.29,3.48-.38,5.22,0,.67,0,1.34-.05,2,0,1.71,0,3.42.15,5.13a56.6,56.6,0,0,0,1,7.68c.22,1.07.46,2.13.76,3.18s.59,2,.92,3c.22.65.45,1.3.7,1.93.44,1.1.92,2.18,1.44,3.25s1.11,2.16,1.74,3.19a1.88,1.88,0,0,0,.2.21l.42-.33.86-.71,3.26-2.66c1.05-.85,2.09-1.72,3.14-2.58l3.87-3.15,3.68-3c.56-.46.46-.31.46-1,0-4.68-.06-9.35-.08-14,0-2.59,0-5.17,0-7.76C321.8,162.89,321.79,162.71,321.79,162.42Zm11.45,0v.74q.06,6.28.1,12.57l.06,9.16c0,.53,0,.53.42.86l0,0,3.37,2.73,1.17.94c.07.06.14.13.25,0a.57.57,0,0,0,0-.13,2.18,2.18,0,0,1,.06-.88c.16-.65.31-1.3.47-1.95l.09-.48a1.47,1.47,0,0,0-.15-.17,1.15,1.15,0,0,1-.35-.69c0-.34-.1-.68-.17-1a14.09,14.09,0,0,1-.24-3.49,8.78,8.78,0,0,1,.52-2.64,5,5,0,0,1,1.36-2.05,4.53,4.53,0,0,1,2.06-1l.45-.12,1.15-3.21s0-.09,0-.14a.86.86,0,0,0-.82-.21,2.64,2.64,0,0,1-1.12,0,1.27,1.27,0,0,1-1-1.14,3,3,0,0,1,.11-1.16,12.16,12.16,0,0,1,.82-2,1.44,1.44,0,0,1,1-1l.3-.11.13-.07-.1-.09-.47-.05a17,17,0,0,1-3-.43,19.17,19.17,0,0,1-4.69-1.8c-.51-.28-1-.58-1.5-.86A2.47,2.47,0,0,0,333.24,162.46Zm-20.12,44.36c.06.07.1.14.15.19.61.54,1.19,1.1,1.82,1.6,1,.78,2,1.54,3,2.26a40.66,40.66,0,0,0,3.92,2.44c.94.52,1.9,1,2.87,1.48s1.8.84,2.73,1.2a.68.68,0,0,0,.54,0c.37-.16.75-.3,1.12-.47,1-.46,2-.93,2.94-1.41.6-.3,1.19-.62,1.77-1,.75-.44,1.49-.9,2.22-1.37s1.51-1,2.23-1.53,1.32-1,2-1.52,1.29-1.13,1.93-1.71a1.82,1.82,0,0,0,.2-.25,1.93,1.93,0,0,0-.16-.19l-.8-.66-1.89-1.52c-.87-.7-1.73-1.42-2.6-2.13l-2.32-1.88-2-1.66-1.56-1.26L328,194.92a2.53,2.53,0,0,0-.27-.18l-.21.14-14.23,11.71a.47.47,0,0,0-.1.1A.54.54,0,0,0,313.12,206.82ZM349.87,186l-.17.06a.82.82,0,0,0-.2.12,12.12,12.12,0,0,1-3.05,1.48,11.58,11.58,0,0,1-2.78.59,1.64,1.64,0,0,0-.69.11c-.19.48-.42.94-.58,1.43a1.66,1.66,0,0,1-.68.91,2,2,0,0,1-.88.41.65.65,0,0,0-.22.11c0,.06,0,.1.05.11l8.29,6.75.19.13.15.05a1.73,1.73,0,0,0,.17-.21c.38-.69.78-1.38,1.15-2.08.27-.52.52-1.06.77-1.6s.54-1.19.78-1.79c.36-.9.69-1.81,1-2.71a2,2,0,0,0,.18-.7l-.09-.08a5.12,5.12,0,0,1-1.66-1.26l-1-1.07A6.25,6.25,0,0,0,349.87,186Zm5.83-9.77a.7.7,0,0,0,0-.14c0-.36,0-.71,0-1.07a73.17,73.17,0,0,0-.52-11.93.6.6,0,0,0-.09-.18,3.08,3.08,0,0,0-.53.21c-.63.27-1.25.55-1.89.8a25.63,25.63,0,0,1-3.63,1.18,19.8,19.8,0,0,1-2.85.51c-.56.06-1.12.09-1.67.13-.07,0-.17,0-.16.14a2.62,2.62,0,0,1,1.29,1,.66.66,0,0,0,.39.23,10.71,10.71,0,0,1,1.81.61,8,8,0,0,1,2.68,1.83c.29.3.54.63.81,1,.09.11.16.24.32.25.32,0,.51.26.75.44a1.29,1.29,0,0,1,.46,1,1.92,1.92,0,0,1-1.51,1.88,2.27,2.27,0,0,1-1.29-.1c-.6-.2-1.2-.44-1.8-.65a2.94,2.94,0,0,0-.87-.25,5.78,5.78,0,0,0-.29,1,3.63,3.63,0,0,0-.2,1.06c.16,0,.3,0,.44,0,.51,0,1,.07,1.53.15a4.17,4.17,0,0,1,2.32,1.11c.18.19.36.38.56.57.12,0,.24,0,.36,0l3-.57A1,1,0,0,0,355.7,176.22Zm-12,.41a1.66,1.66,0,0,0,1.1,1.14,2.37,2.37,0,0,0,.64.1,1.05,1.05,0,0,1,.84.42c.75.87,1.53,1.72,2.3,2.58a2.22,2.22,0,0,1,.11.22,9.68,9.68,0,0,1-.94.87c-.56-.54-1-1.16-1.58-1.69l-.14.23a4.1,4.1,0,0,1-.36.53.53.53,0,0,0-.15.55,1.88,1.88,0,0,1,0,1.15,2.08,2.08,0,0,0,0,1.05,2.8,2.8,0,0,1-.6,2.45.6.6,0,0,1-.52.24,5.89,5.89,0,0,0-.84,0,3.33,3.33,0,0,1-1.33-.19c-.34-.11-.67-.25-1-.36a1.14,1.14,0,0,0-.28,0c-.09.4-.17.78-.26,1.16-.13.59-.28,1.18-.42,1.77a.8.8,0,0,0,0,.59.31.31,0,0,0,.38.19.67.67,0,0,0,.49-.45c.24-.62.49-1.24.74-1.86l.19-.45a1,1,0,0,1,.18,0c.55,0,1.11-.09,1.67,0a1.13,1.13,0,0,0,.32-.05l.36-.08a11.45,11.45,0,0,0,4.13-1.67,1.1,1.1,0,0,0,.51-.68c.27-1.06.57-2.1.86-3.15.08-.29.17-.57.25-.85l.5-1.85a.42.42,0,0,0,0-.36,2.9,2.9,0,0,0-1.11-1,4.65,4.65,0,0,0-1.76-.39H346l-2-.06Zm-1.35-6.7a1.39,1.39,0,0,0,.86-.05,1,1,0,0,1,.67.07c.54.25,1.08.49,1.63.72.81.35,1.63.7,2.45,1s1.63.63,2.44.93a2.15,2.15,0,0,0,.55.11.57.57,0,0,0,.57-.25.23.23,0,0,0-.11-.38A2.37,2.37,0,0,0,351,172a.68.68,0,0,1-.5-.37,6.56,6.56,0,0,0-2.77-2.5,8.85,8.85,0,0,0-2.34-.79.81.81,0,0,1-.66-.45,1.3,1.3,0,0,0-.21-.31,1.67,1.67,0,0,0-.34-.31.8.8,0,0,0-1.09.31c-.24.52-.47,1.05-.68,1.58A1.26,1.26,0,0,0,342.34,169.93Zm-.14,6.72h-.13l-.17.06a3.08,3.08,0,0,0-1.21,1.08c-.11.18-.11.26,0,.41a9.87,9.87,0,0,0,.84.74,5.52,5.52,0,0,0,2.15,1,5.72,5.72,0,0,0,.83.12.22.22,0,0,0,.27-.2.89.89,0,0,0,0-.58A3.45,3.45,0,0,1,342.2,176.65Zm3.91-4.07a5.54,5.54,0,0,0-.85-.41.76.76,0,0,0-.13.16c-.31.85-.61,1.7-.92,2.54a1.52,1.52,0,0,0,0,.23,3.81,3.81,0,0,0,1.25.06A13.15,13.15,0,0,0,346.11,172.58Zm-6,6.95c0,.08-.07.15-.09.21a.45.45,0,0,0,.18.57c.32.2.62.41.94.6a5.25,5.25,0,0,0,2.24.7.63.63,0,0,0,.45-.07s.08-.08.14-.15c-.49-.14-1-.26-1.4-.42a5.21,5.21,0,0,1-1.26-.6Zm1.42,4.87a.26.26,0,0,0,0,.07s.08.1.13.12a6.06,6.06,0,0,0,2,.53.87.87,0,0,0,.23,0A.36.36,0,0,0,344,185a.49.49,0,0,0,0-.52c-.43,0-.85.06-1.27,0S341.92,184.44,341.49,184.4Zm-1.57-2.55c-.08.22-.07.37.11.47l.63.32a5.05,5.05,0,0,0,2.39.48c.08,0,.2,0,.2-.1-.39-.08-.77-.13-1.14-.23a11,11,0,0,1-1.14-.4C340.61,182.24,340.28,182,339.92,181.85Z"/><path class="cls-14" d="M327.33,190.05a1.39,1.39,0,1,1,1.34-1.4A1.41,1.41,0,0,1,327.33,190.05Z"/><path class="cls-14" d="M317.49,194.25a1.42,1.42,0,0,1,1.37,1.42,1.39,1.39,0,0,1-1.38,1.35,1.39,1.39,0,0,1,0-2.77Z"/><path class="cls-14" d="M328.53,168.22a1.38,1.38,0,0,1-1.34,1.39,1.39,1.39,0,1,1,0-2.78A1.37,1.37,0,0,1,328.53,168.22Z"/><path class="cls-14" d="M325.86,177.68a1.33,1.33,0,0,1,1.39-1.33,1.32,1.32,0,0,1,1.34,1.39,1.33,1.33,0,0,1-1.37,1.36A1.37,1.37,0,0,1,325.86,177.68Z"/><path class="cls-14" d="M338.68,195.64a1.39,1.39,0,0,1-1.35,1.38,1.39,1.39,0,1,1,1.35-1.38Z"/><path class="cls-14" d="M303.82,183.38c.55-3.57,1-7.15,1.54-10.73l.37-.09c.1-.36.19-.7.3-1a1.66,1.66,0,0,1,1.34-1.15.41.41,0,0,1,.19,0,1.83,1.83,0,0,1,.94.47,2.41,2.41,0,0,1,.54.86,1.66,1.66,0,0,0,.16.33c.88-.81.95-.69,1.37-.75a1.77,1.77,0,0,1,1.44.51,2.21,2.21,0,0,0,.13-.23,2.09,2.09,0,0,1,.5-.77,1.14,1.14,0,0,1,.47-.31,1.33,1.33,0,0,1,1.49.34,3.06,3.06,0,0,1,.77,1.41c0,.09,0,.19.05.29s.22.07.27.14a.86.86,0,0,1,.12.35l.45,2.53c.25,1.39.51,2.78.76,4.18.14.78.27,1.56.41,2.34.07.4.15.79.22,1.19a.37.37,0,0,0,.24.27,1.39,1.39,0,0,1,.66.56,1.89,1.89,0,0,1-.19,2.33,1.23,1.23,0,0,1-.78.4,3.54,3.54,0,0,1-.46,0H304.18a1.5,1.5,0,0,1-1.5-1.22,1.82,1.82,0,0,1,.34-1.68,1.39,1.39,0,0,1,.54-.42A1.58,1.58,0,0,0,303.82,183.38Zm.2,2a1.61,1.61,0,0,0,.6.06h12.51a1.71,1.71,0,0,0,.25,0c0-.06.06-.08.07-.11a.61.61,0,0,0,0-.13c0-.32-.06-.39-.36-.41H304.27c-.21,0-.29.08-.29.28A2.38,2.38,0,0,0,304,185.4Zm8.17-4.59c-.21-.08-.38-.21-.59-.15l-1.14.31a2.11,2.11,0,0,0,0,.87,2.3,2.3,0,0,0,1.71,0A3.21,3.21,0,0,0,312.19,180.81Zm-2.66-1.74a1.33,1.33,0,0,0,0,.88,2.09,2.09,0,0,0,1.68,0,1.78,1.78,0,0,0,0-.92c-.2-.07-.4-.15-.61-.21a.45.45,0,0,0-.23,0Zm-1.26-1a2,2,0,0,0,1.78.06,1.82,1.82,0,0,0,0-.9l-.5-.15a.63.63,0,0,0-.23,0l-1,.28Zm-2.07-4.49a2.93,2.93,0,0,0-.14.8.2.2,0,0,0,.14.22,2.1,2.1,0,0,0,1.42.06.28.28,0,0,0,.2-.23,1.65,1.65,0,0,0,0-.85C307.25,173.53,306.73,173.52,306.2,173.54Zm6.87,8.3a2,2,0,0,0,1.63,0,3.54,3.54,0,0,0-.1-1.07,1.45,1.45,0,0,0-.45-.07c-.36.07-.71.18-1.08.28A2.54,2.54,0,0,0,313.07,181.84Zm-3.47.06c0-.31,0-.6,0-.89a.25.25,0,0,0-.24-.29.88.88,0,0,0-.28,0l-1,.26a3.21,3.21,0,0,0-.11,1A2.46,2.46,0,0,0,309.6,181.9Zm1.3-4.65c0,.25,0,.46,0,.68a.24.24,0,0,0,.18.24,2.18,2.18,0,0,0,1.29,0,.25.25,0,0,0,.17-.2,2.47,2.47,0,0,0,0-.77,1.13,1.13,0,0,0-1.17-.09A1.85,1.85,0,0,1,310.9,177.25Zm1.21,2.69a2.28,2.28,0,0,0,1.23.15c.35-.05.43-.15.41-.49a1.12,1.12,0,0,0-.08-.52,1.63,1.63,0,0,0-1.58,0A1.93,1.93,0,0,0,312.11,179.94ZM309,175.48c-.22-.07-.44-.14-.66-.19a.45.45,0,0,0-.23,0l-.85.24a1,1,0,0,0-.06.64,1.78,1.78,0,0,0,1.12.27.9.9,0,0,0,.69-.25A2.13,2.13,0,0,0,309,175.48Zm3.19,0c0,.16,0,.27,0,.37s0,.21.05.29a1.8,1.8,0,0,0,1.18.26.75.75,0,0,0,.57-.25l0-.68-.81-.25H313Zm-1.92-1.94a3.07,3.07,0,0,0-.79,0,1.45,1.45,0,0,0-.79.08c0,.25,0,.5,0,.74a.26.26,0,0,0,.22.27,2.05,2.05,0,0,0,1.1,0,.31.31,0,0,0,.27-.33C310.24,174.08,310.23,173.85,310.23,173.57Zm3.2.92a1.74,1.74,0,0,0,1.35.16.23.23,0,0,0,.2-.27,1.81,1.81,0,0,0-.17-.84c-.22,0-.45,0-.68,0a1.42,1.42,0,0,0-.7.08Zm-6.26,7.5a5.22,5.22,0,0,0,.15-1,.22.22,0,0,0-.12-.18.54.54,0,0,0-.31,0c-.3.07-.59.17-.9.26a2.73,2.73,0,0,0-.13,1A2,2,0,0,0,307.17,182Zm3.93-8.45a3.28,3.28,0,0,0,0,.93.25.25,0,0,0,.14.16,1.86,1.86,0,0,0,1.19,0c.06,0,.15-.1.15-.16a2.17,2.17,0,0,0,0-.88l-.29,0Zm-2.49,6.51a4.42,4.42,0,0,0,0-1,1.13,1.13,0,0,0-.66-.17c-.27.06-.53.16-.8.24,0,.21-.06.39-.08.57a.24.24,0,0,0,.14.27A1.85,1.85,0,0,0,308.61,180.05Zm2.75-3.8-.05-.73c-.74-.3-.71-.31-1.5,0,0,.15,0,.32,0,.48s.08.34.32.38a2,2,0,0,0,.88,0A2.39,2.39,0,0,0,311.36,176.25Zm3.26,3.7a1.89,1.89,0,0,0,1.15,0c.16,0,.21-.11.19-.26s-.1-.52-.14-.75a1.09,1.09,0,0,0-1.29.08A2.67,2.67,0,0,0,314.62,180Zm-1.27-2.67a3.05,3.05,0,0,0,0,.9,1.74,1.74,0,0,0,1.32-.09,2.43,2.43,0,0,0-.05-.81A1.45,1.45,0,0,0,313.35,177.28Zm-6,.9a2.18,2.18,0,0,0,.07-1c-.45-.3-.81-.08-1.19.09a1.65,1.65,0,0,0,0,.66A1.25,1.25,0,0,0,307.39,178.18Zm-2.13,1.74a1.07,1.07,0,0,0,.74.23.26.26,0,0,0,.28-.25c0-.26.08-.52.1-.78a.27.27,0,0,0-.35-.3,1.86,1.86,0,0,0-.64.25Zm7.8-7.34a5.23,5.23,0,0,0,1.25,0,1.56,1.56,0,0,0-.41-.94.37.37,0,0,0-.63.07A1.25,1.25,0,0,0,313.06,172.58Zm-6.16,0a6.53,6.53,0,0,0,1.25,0,1.43,1.43,0,0,0-.42-1,.34.34,0,0,0-.56.06A1.3,1.3,0,0,0,306.9,172.57Zm8.6,8.29a2.14,2.14,0,0,0,.1,1.07,1.5,1.5,0,0,0,.84,0,5,5,0,0,0-.17-1.09s0-.07-.1-.12Zm-.64-4.46.17,0a.26.26,0,0,0,.18,0c.07,0,.18-.13.17-.19a1.43,1.43,0,0,0-.13-.79c-.46,0-.5.06-.48.45A1.18,1.18,0,0,0,314.86,176.4ZM306,175.33c-.06.31-.12.57-.16.83s0,.28.25.28a1,1,0,0,0,.22-.06,2.3,2.3,0,0,0,.11-.94Zm-.84,5.42c-.2.79-.21.93-.06,1.21,0,0,.07-.07.08-.1a2.41,2.41,0,0,1,.09-.59,1.14,1.14,0,0,0,0-.45S305.17,180.78,305.11,180.75Zm10.44-3.55a1.36,1.36,0,0,0,0,.69.14.14,0,0,0,.05.08.24.24,0,0,0,.12,0,.09.09,0,0,0,.06-.06A1.48,1.48,0,0,0,315.55,177.2Zm-4.45-4.64c-.09-.22-.27-.2-.43-.19s-.27,0-.32.22A2.1,2.1,0,0,0,311.1,172.56Z"/><path class="cls-14" d="M337,204.76l-4.08,8.55a.76.76,0,0,1-.54-.24l0-.29-.32-.19-.16-.09c-.18-.14-.31-.34-.56-.39s-.44-.16-.66-.22a15.36,15.36,0,0,0-3.68-.59c-.62,0-1.25,0-1.87,0a1.17,1.17,0,0,0-.79.21.83.83,0,0,1-.57-.36,1.76,1.76,0,0,0-.36-.29,11.12,11.12,0,0,0-3.64-1.86,7.8,7.8,0,0,0-1.28-.23c-.54-.06-1.08-.07-1.66-.11a.72.72,0,0,1,.06-.27c.74-1.18,1.5-2.36,2.25-3.54l2.27-3.54c.37-.59.76-1.17,1.15-1.77l.31,0a11.37,11.37,0,0,1,2.33.1,9.37,9.37,0,0,1,3.64,1.37,1.6,1.6,0,0,0,1.34.34,8.22,8.22,0,0,1,3.7.63,8.06,8.06,0,0,1,2,1.25.47.47,0,0,1,.1.1,1.47,1.47,0,0,0,.62.48,1.1,1.1,0,0,1,.16.12l-.18.58Zm-18.78,3.14a3,3,0,0,0,.83.15,9.69,9.69,0,0,1,2.87.95,12.37,12.37,0,0,1,2,1.27.8.8,0,0,0,.26.08c.31-.58.62-1.14.92-1.71l.92-1.72c.3-.57.61-1.13.91-1.69s.61-1.15.92-1.73.62-1.11.88-1.71l-.13-.09a7.55,7.55,0,0,0-1.84-.92,9.75,9.75,0,0,0-3.4-.52.52.52,0,0,0-.53.29c0,.07-.1.12-.14.19l-1.2,1.89c-1,1.51-1.93,3-2.88,4.53A2.21,2.21,0,0,0,318.18,207.9Zm16.75-4.29-.29-.23a6.45,6.45,0,0,0-3-1.12,11.7,11.7,0,0,0-2,0,.46.46,0,0,0-.38.24,1.28,1.28,0,0,0-.11.2l-1.2,2.22c-.46.88-.93,1.76-1.4,2.64s-.89,1.67-1.33,2.52c0,.08-.13.17,0,.31h.35a21.91,21.91,0,0,1,2.43.07,15.21,15.21,0,0,1,2.92.56.84.84,0,0,0,.52.07,3.14,3.14,0,0,0,.18-.31c1.11-2.29,2.21-4.57,3.32-6.85a.58.58,0,0,0,.06-.17A.71.71,0,0,0,334.93,203.61Z"/><path class="cls-14" d="M322.76,202.84c.47-.63.95-1.2,1.41-1.76a19.32,19.32,0,0,1,2.45,1.29c-.14.63-.41,1.22-.61,1.84s-.44,1.26-.66,1.89-.43,1.23-.65,1.87c-.27.05-.52.12-.78.16a2.59,2.59,0,0,1-2.09-.6,5.74,5.74,0,0,1-.68-.71.35.35,0,0,1-.09-.25c.21-.66.39-1.34.65-2a2.44,2.44,0,0,1,1,.18.75.75,0,0,1,0,.26c-.08.3-.19.6-.28.89a2,2,0,0,0-.1.41.44.44,0,0,0,.08.25,1.56,1.56,0,0,0,1.3.5.36.36,0,0,0,.32-.24c0-.08,0-.15.07-.22l.32-.93a.53.53,0,0,0-.07-.53c-.34-.48-.66-1-1-1.47Zm2.55,0-.48-.29c-.35-.19-.41-.18-.63.17a.53.53,0,0,0-.08.17,5,5,0,0,0,.69,1.05s.08,0,.14,0A4.31,4.31,0,0,0,325.31,202.86Z"/><path class="cls-14" d="M334.42,204a5.47,5.47,0,0,1-.49.73l.12.23a.25.25,0,0,1,0,.09,2.51,2.51,0,0,0-.57.83c0,.1-.13.17-.2.26a1.5,1.5,0,0,0-.38.63c0,.11-.15.19-.22.29s-.32.34-.32.61c0,.09-.1.18-.17.27s-.22.26-.34.4l.14.3-.57.7a14.3,14.3,0,0,1-1.5-.38l-1.44-.39c-.49-.14-1-.25-1.49-.42.09-.31.34-.48.48-.74l-.14-.27c.09-.11.19-.21.27-.32s.22-.23.23-.34a1,1,0,0,1,.35-.64.9.9,0,0,0,.23-.39,1.08,1.08,0,0,1,.22-.35,1.88,1.88,0,0,0,.38-.58,1.61,1.61,0,0,1,.24-.34l.31-.39-.1-.31.54-.65a13,13,0,0,1,2.24.56C332.93,203.61,333.68,203.73,334.42,204Z"/><text class="cls-18" transform="translate(231.29 299.25)">COEP <tspan class="cls-19" x="72.46" y="0">T</tspan><tspan class="cls-20" x="89.84" y="0">e</tspan><tspan class="cls-21" x="101.34" y="0">c</tspan><tspan class="cls-22" x="112.27" y="0">hnological Un</tspan><tspan class="cls-23" x="260.13" y="0">i</tspan><tspan class="cls-24" x="266.69" y="0">v</tspan><tspan class="cls-22" x="277.62" y="0">ersity</tspan></text></svg>