<svg id="Layer_1" data-name="Layer 1" xmlns="http://www.w3.org/2000/svg" xmlns:xlink="http://www.w3.org/1999/xlink" viewBox="0 0 1200 280"><defs><style>.cls-1{font-size:27.71px;fill:none;font-family:SamarkanNormal, Samarkan;}.cls-10,.cls-11,.cls-2,.cls-3,.cls-4,.cls-5,.cls-6,.cls-7,.cls-8,.cls-9{font-size:19.95px;}.cls-10,.cls-11,.cls-16,.cls-2,.cls-3,.cls-4,.cls-5,.cls-6,.cls-7,.cls-8,.cls-9{font-family:ADAM.CGPRO, "ADAM.CG PRO";}.cls-2{letter-spacing:0em;}.cls-3{letter-spacing:-0.01em;}.cls-4{letter-spacing:0.03em;}.cls-6{letter-spacing:-0.02em;}.cls-7{letter-spacing:-0.02em;}.cls-8{letter-spacing:-0.03em;}.cls-9{letter-spacing:-0.01em;}.cls-10{letter-spacing:-0.06em;}.cls-11{letter-spacing:-0.08em;}.cls-12,.cls-16,.cls-17{fill:#fff;}.cls-13{clip-path:url(#clip-path);}.cls-14{fill:#f93;}.cls-15{fill:#138808;}.cls-16{font-size:139.6px;letter-spacing:-0.06em;}.cls-17{font-size:26px;font-family:BellMTBold, Bell MT;letter-spacing:-0.01em;}.cls-18{letter-spacing:-0.04em;}.cls-19{letter-spacing:-0.02em;}.cls-20{letter-spacing:-0.03em;}.cls-21{letter-spacing:-0.05em;}</style><clipPath id="clip-path"><text class="cls-1" transform="translate(570.38 229.12)">Ananta <tspan class="cls-2" x="87.14" y="0">- K</tspan><tspan class="cls-3" x="115.47" y="0">a</tspan><tspan class="cls-4" x="129.18" y="0">l</tspan><tspan class="cls-5" x="139.88" y="0">am: A limitle</tspan><tspan class="cls-6" x="273.09" y="0">s</tspan><tspan class="cls-5" x="283.17" y="0">s t</tspan><tspan class="cls-7" x="311.34" y="0">r</tspan><tspan class="cls-5" x="323.83" y="0">aj</tspan><tspan class="cls-8" x="346.08" y="0">e</tspan><tspan class="cls-9" x="357" y="0">c</tspan><tspan class="cls-10" x="370.21" y="0">t</tspan><tspan class="cls-5" x="380.6" y="0">o</tspan><tspan class="cls-11" x="397.54" y="0">r</tspan><tspan class="cls-5" x="408.76" y="0">y</tspan></text></clipPath></defs><path class="cls-12" d="M1160.15,114.76c-5.12-11-7.2-15.62-6.75-25.59.47-10.5,5.85-33.08,5.85-33.08s-7.45,16.65-11,26.26c-3.65,9.77-7.69,27.67-7.69,27.67s.85,2.24,1.31,3.35a64,64,0,0,0,2.89,6.13c2.63,4.77,9,13.84,7,26.31-2.46,15-16.72,37.79-16.93,38.13.32-.24,24.21-16.6,29.82-35.14C1167.63,138.66,1165.28,125.76,1160.15,114.76Z"/><path class="cls-12" d="M1157.32,56.09s-7.51,16.49-11.14,26.26-7.69,27.67-7.69,27.67l-23.9,35-19.77-23.27-34.39,69.77,30-106.22,24.2,33.21Z"/><g class="cls-13"><rect class="cls-12" x="552.46" y="202.4" width="444.56" height="31.25"/><rect class="cls-14" x="553.46" y="203.41" width="108.44" height="16.04"/><rect class="cls-15" x="553.46" y="225.3" width="108.44" height="11.53"/></g><polygon class="cls-12" points="228.72 86.53 228.72 192.11 244.6 192.11 244.6 138 283.81 194.48 323.02 138 323.02 192.11 339.16 192.11 339.16 86.53 283.94 166.24 228.72 86.53"/><rect class="cls-12" x="349.67" y="111.71" width="13.07" height="80.4"/><polygon class="cls-12" points="429.36 164.22 373.5 110.56 373.5 192.11 385.8 192.11 385.8 140.14 441.66 193.81 441.66 111.71 429.36 111.71 429.36 164.22"/><path class="cls-12" d="M470,111.71H448.33v80.4H470a38.2,38.2,0,0,0,28.19-11.88,40.37,40.37,0,0,0,0-56.82A38.19,38.19,0,0,0,470,111.71Zm19.33,59.51A26.2,26.2,0,0,1,470,179.4h-8.61V124.16H470a26.05,26.05,0,0,1,19.29,8.06,27.69,27.69,0,0,1,0,39Z"/><path class="cls-12" d="M568.38,140.39q-5.36-4.26-19.74-7.72-8.24-2-11.31-4.13-5.16-3.52-5.15-10.84a14.29,14.29,0,0,1,4.28-10.43,14.45,14.45,0,0,1,17.93-2.16,14.45,14.45,0,0,1,5.36,5.89l14.32-7.32a30.86,30.86,0,0,0-11.31-12.39,30.32,30.32,0,0,0-37.68,4.47,30.07,30.07,0,0,0-9,21.94q0,15.92,9,23,5.36,4.26,19.74,7.72,8.24,2,11.31,4.13,5.09,3.53,5.09,10.84a13.43,13.43,0,0,1-4.62,10A16.59,16.59,0,0,1,545,178.11a17.33,17.33,0,0,1-10.57-3.65,13.32,13.32,0,0,1-5.42-7.93l-15.72,3.39q2.21,10.5,11.57,17.54A32.58,32.58,0,0,0,545,194.37a32,32,0,0,0,22.55-9.08q9.84-9.21,9.84-21.87Q577.41,147.51,568.38,140.39Z"/><path class="cls-12" d="M632.64,138.88a26.33,26.33,0,0,0-8-19.27,25.79,25.79,0,0,0-19.11-7.9H581.07v80.4h13.06V166.43h11.42a26,26,0,0,0,19.11-8.11A26.65,26.65,0,0,0,632.64,138.88Zm-16.91,10.18a13.71,13.71,0,0,1-10.21,4.15H594.13V124.42h11.39a14.42,14.42,0,0,1,10.21,24.64Z"/><path class="cls-12" d="M622.8,192.11h13.66l6.31-15h29.52l6.31,15h13.71l-34.78-82.58Zm25-27L657.53,142l9.75,23.14Z"/><path class="cls-12" d="M738.35,158.17a27.33,27.33,0,0,0,0-38.58,25.88,25.88,0,0,0-19.12-7.88H693.82v80.4h12.55V166.18h9.8L733,192.11h14.65l-18.08-28A26.73,26.73,0,0,0,738.35,158.17Zm-19.05-4.44H706.37V124.42H719.3a13.71,13.71,0,0,1,10.18,4.22,14,14,0,0,1,4.28,10.27,14.28,14.28,0,0,1-4.28,10.4A13.79,13.79,0,0,1,719.3,153.73Z"/><polygon class="cls-12" points="808.09 119.23 812.44 144.65 868.28 69.4 820.2 120.24 814.92 94.5 798.02 111.71 798.36 111.71 785.51 124.46 783.5 126.23 783.5 126.23 762.75 147.29 762.75 111.71 750.19 111.71 750.19 192.11 762.75 192.11 762.75 165.02 770.09 157.59 797.45 192.11 813.55 192.11 779.15 148.51 808.09 119.23"/><text class="cls-16" transform="translate(847.48 192.41) scale(1.06 1)">22</text><path class="cls-12" d="M146.76,114.76a7,7,0,0,1,.9-.06l.89,0a8.69,8.69,0,0,0,.88-.07c0-.13,0-.22,0-.31a32.6,32.6,0,0,0-.72-3.9,34.32,34.32,0,0,0-1.32-4.33c-.27-.68-.53-1.36-.82-2a32.85,32.85,0,0,0-1.46-3c-.31-.56-.61-1.12-1-1.66-.46-.74-.94-1.47-1.44-2.18s-1-1.36-1.51-2-.89-1.09-1.36-1.6c-.63-.69-1.28-1.36-1.92-2a1.55,1.55,0,0,0-.52-.42c-.08.08-.17.14-.24.22-.41.48-.82,1-1.24,1.45-.07.09-.15.16-.23.25a1.93,1.93,0,0,1-.21-.13c-1-.85-2-1.73-3-2.56-.62-.51-1.3-1-2-1.43-.85-.6-1.71-1.19-2.57-1.78a1.86,1.86,0,0,1-.22-.19c0-.1.09-.18.14-.26l1-1.27a1.24,1.24,0,0,0,.26-.45c-.08-.06-.14-.12-.22-.17-1.18-.66-2.39-1.27-3.63-1.81-1-.42-2-.81-3-1.17a37,37,0,0,0-4-1.21c-.87-.21-1.74-.39-2.6-.58-1-.22-2.06-.34-3.1-.47l-.45-.07a1.19,1.19,0,0,1-.07-.52c0-1.84,0-3.68,0-5.52q0-4.06,0-8.13a.71.71,0,0,0-.07-.45,51.81,51.81,0,0,0-9.34-.1,8.42,8.42,0,0,0,0,1.33c0,.44,0,.87,0,1.31s0,.9,0,1.35,0,.88,0,1.31,0,.91,0,1.36,0,.87,0,1.31,0,.9,0,1.35v1.31c0,.45,0,.91,0,1.36s0,.87,0,1.31,0,.9,0,1.37l-.31.09c-.85.12-1.7.21-2.55.36a43.6,43.6,0,0,0-5,1.16c-1.13.33-2.25.71-3.35,1.14-1.35.53-2.68,1.1-4,1.76-.53.27-1,.56-1.56.84l-.25.17a5.41,5.41,0,0,0,.68,1c.23.31.46.62.69,1a1,1,0,0,1-.13.15c-1,.7-2,1.39-3,2.09a28.73,28.73,0,0,0-2.62,2l-1.93,1.69a1.37,1.37,0,0,1-.25.15L77.28,91.1a1.37,1.37,0,0,0-.25.15c-.53.53-1.07,1-1.58,1.59s-1.14,1.28-1.69,1.93c-.71.85-1.37,1.74-2,2.65-.5.74-1,1.48-1.45,2.24a14,14,0,0,0-.72,1.25c-.52,1-1,2-1.48,3s-.82,2-1.18,3a32.67,32.67,0,0,0-1.22,4.46c-.18.87-.31,1.74-.46,2.62a1,1,0,0,0,0,.52c.43.09.87.06,1.3.11s.87,0,1.32.09a1.39,1.39,0,0,1,0,.27c-.06,1-.11,2.09-.18,3.13a26.79,26.79,0,0,0,.23,5.59c.12.93.28,1.85.42,2.77,0,.12,0,.24,0,.38a1,1,0,0,1-.5-.17l-4.09-2.15-2.44-1.28-.21-.1a.91.91,0,0,0-.36.37l-2.44,3.48q-1.4,2-2.81,4c-.06.09-.14.17-.23.28a.66.66,0,0,1-.1-.17c-.15-.77-.3-1.53-.44-2.3s-.34-1.83-.49-2.76a34.53,34.53,0,0,1-.39-4c0-.54-.05-1.08-.07-1.63,0-.17,0-.34,0-.47a.47.47,0,0,0-.42-.12H50.72l-.44,0a.55.55,0,0,1-.09-.47c0-1.23,0-2.46.11-3.69A50.29,50.29,0,0,1,51,110c.15-.81.32-1.62.5-2.42.34-1.48.74-2.93,1.22-4.36s1.08-3.06,1.74-4.54a51.06,51.06,0,0,1,2.39-4.8c.69-1.22,1.42-2.42,2.21-3.58s1.76-2.49,2.72-3.68a52.38,52.38,0,0,1,4.49-4.94c.78-.75,1.59-1.48,2.41-2.21s1.42-1.25,2.14-1.87c.28-.24.58-.46.89-.71a11.9,11.9,0,0,1,1.08,1.31c.35.43.68.88,1,1.33a5.38,5.38,0,0,0,.82-.56.59.59,0,0,0-.19-.42c-.49-.65-1-1.29-1.46-1.94a3.13,3.13,0,0,1-.22-.36,1.36,1.36,0,0,1,.18-.17c.9-.6,1.78-1.21,2.69-1.79.68-.44,1.37-.85,2.08-1.25s1.41-.79,2.13-1.16c1-.51,2-1,3.06-1.49a54.52,54.52,0,0,1,5.53-2.15,1.25,1.25,0,0,1,.55-.08.63.63,0,0,0,.23,0c.15,0,.19-.14.15-.29a.35.35,0,0,0-.43,0,1.17,1.17,0,0,1-.51.19l-3.26.61a1.94,1.94,0,0,1-.35,0,1.41,1.41,0,0,1,0-.27,2.62,2.62,0,0,1,0-.28V56.5c0-.17,0-.34,0-.5a1.77,1.77,0,0,1,.63-.25c1.62-.53,3.26-1,4.93-1.43.71-.17,1.42-.32,2.13-.5,1.17-.29,2.35-.47,3.53-.69,1.41-.26,2.84-.42,4.26-.56,1.24-.12,2.48-.23,3.73-.28,1.55,0,3.11-.06,4.67,0,1.35,0,2.71.11,4.06.2,1,.08,2,.21,3,.33.62.07,1.24.13,1.85.25,1.26.23,2.53.38,3.77.69.69.17,1.4.28,2.1.45,1.45.36,2.89.74,4.33,1.13.59.16,1.17.35,1.75.53l.24.1a.93.93,0,0,1,.08.51V68.09a1.75,1.75,0,0,1,0,.56.44.44,0,0,1-.37,0l-2.84-.53a1,1,0,0,0-.61,0s0,.11.07.13l.34.14c1.39.45,2.76,1,4.11,1.55,1,.42,2,.88,3,1.36s2,1,2.93,1.53,1.68,1,2.49,1.49,1.87,1.24,2.8,1.86l.12.13a2.91,2.91,0,0,1-.17.3l-1.52,2A.57.57,0,0,0,140,79a4.55,4.55,0,0,0,.8.57c.74-.86,1.38-1.78,2.1-2.65.25.19.49.34.7.52L146,79.52c.53.46,1.06.92,1.57,1.4.67.63,1.32,1.28,2,1.93s1,1.08,1.53,1.64,1,1.15,1.48,1.75c.68.85,1.35,1.71,2,2.59s1.06,1.53,1.58,2.31c.65,1,1.23,2,1.81,3s1.19,2.22,1.72,3.36.95,2.1,1.37,3.17c.33.86.63,1.73.92,2.6s.55,1.78.81,2.68c.07.21.11.42.17.63q.53,2.16.9,4.35c.29,1.72.45,3.45.57,5.19.08,1.09.11,2.18.11,3.27a1,1,0,0,1-.06.53,11.16,11.16,0,0,1-1.16,0H161a.58.58,0,0,0-.14.47c0,.81-.05,1.62-.12,2.43-.08,1-.16,2.05-.31,3.06-.19,1.28-.46,2.55-.69,3.82l-.21,1.19c0,.14-.06.27-.1.44A1,1,0,0,1,159,131c-.88-1.26-1.76-2.53-2.65-3.79s-1.73-2.47-2.61-3.71l-.24-.28a8.17,8.17,0,0,0-1.22.61c-.4.22-.8.42-1.2.63l-1.2.63-1.2.62c-.4.21-.79.43-1.2.63s-.78.44-1.17.6a.16.16,0,0,1-.1-.21c.06-.39.14-.77.19-1.16.17-1.31.35-2.62.5-3.93a11.39,11.39,0,0,0,.05-1.31,28.87,28.87,0,0,0-.09-2.94c-.07-.78-.1-1.56-.15-2.33C146.73,115,146.75,114.87,146.76,114.76ZM71.51,79.05c-.13.1-.24.17-.33.25l-1,.83c-.79.7-1.6,1.39-2.36,2.12s-1.53,1.5-2.27,2.28a52.58,52.58,0,0,0-3.84,4.58c-.74,1-1.43,2-2.1,3s-1.31,2.15-1.92,3.26a47.46,47.46,0,0,0-2.11,4.37c-.45,1.06-.86,2.13-1.24,3.22s-.65,2.05-.94,3.08-.51,2-.73,3c-.16.74-.28,1.49-.4,2.25s-.26,1.56-.35,2.35c-.15,1.36-.22,2.73-.28,4.1a1.44,1.44,0,0,0,0,.65,1.15,1.15,0,0,0,.55,0H62.89a.94.94,0,0,0,.5-.05s0-.06,0-.09,0-.25,0-.37a37.15,37.15,0,0,1,.61-5.76,40.29,40.29,0,0,1,1.14-4.61,34.22,34.22,0,0,1,1.51-4.07c.43-1,.9-2,1.41-2.9s1-1.77,1.52-2.62a36.39,36.39,0,0,1,2.14-3.06c.46-.58.91-1.15,1.38-1.71s.94-1,1.41-1.55c.68-.76,1.41-1.45,2.16-2.14l1.39-1.24a2.87,2.87,0,0,0,.29-.31,2.25,2.25,0,0,0-.11-.22L77.76,87c-.69-.89-1.37-1.78-2.06-2.66C74.84,83.24,74,82.14,73.11,81l-1.37-1.77A1.66,1.66,0,0,0,71.51,79.05Zm91.43,39.3c0-.1,0-.21,0-.31a35.81,35.81,0,0,0-.24-4c-.2-1.65-.43-3.3-.78-4.93-.29-1.34-.61-2.67-1-4A48,48,0,0,0,159,99.76c-.3-.69-.59-1.38-.92-2-.48-1-1-2-1.51-2.9s-.94-1.62-1.43-2.41c-.64-1-1.3-2-2-3s-1.34-1.77-2-2.62-1.3-1.51-2-2.23c-.9-.93-1.81-1.86-2.75-2.74s-1.93-1.72-2.9-2.57c-.1-.09-.19-.2-.35-.19s-.07,0-.08.05l-6.44,8.23c-.12.15-.22.3-.33.46a.06.06,0,0,0,0,0V88l.45.42c.62.57,1.25,1.12,1.86,1.7a36.9,36.9,0,0,1,2.86,3,41.54,41.54,0,0,1,3.51,4.72c.6.94,1.17,1.9,1.69,2.9.26.51.51,1,.77,1.55.52,1,.94,2.1,1.36,3.17.28.72.5,1.47.74,2.21a36.78,36.78,0,0,1,1,4.26c.12.64.23,1.29.31,1.93s.19,1.52.25,2.28.07,1.24.1,1.86c0,.14,0,.29.14.43h11A1,1,0,0,0,162.94,118.35ZM86.34,66.57l.48-.14c1.26-.39,2.52-.8,3.79-1.16,1.63-.45,3.29-.83,5-1.13.66-.12,1.32-.24,2-.34s1.51-.23,2.26-.31c1.33-.15,2.67-.25,4-.32a67.27,67.27,0,0,1,7.24,0c1.44.09,2.88.22,4.32.43s2.68.39,4,.65c1.68.33,3.35.71,5,1.16,1.25.33,2.48.7,3.72,1.08a1.09,1.09,0,0,0,.26,0,1.23,1.23,0,0,0,0-.53c0-1.34,0-2.68,0-4s0-3,0-4.44a.79.79,0,0,0-.06-.5l-.12-.06-1.84-.53c-.54-.15-1.08-.3-1.63-.43-1-.25-2-.5-3.09-.73-.66-.15-1.34-.25-2-.39-1.62-.35-3.26-.54-4.89-.75-1.84-.22-3.69-.34-5.55-.39a64.49,64.49,0,0,0-10.67.5c-1.22.16-2.44.34-3.65.57-1.54.29-3.08.62-4.6,1-1.14.31-2.27.65-3.4,1l-.58.19c0,.12,0,.21,0,.3C86.25,59.06,86.28,66.08,86.34,66.57ZM74.88,76.65l1.8,2.42c.66.88,1.33,1.76,2,2.65l2.67,3.6a.39.39,0,0,0,.32.22l.37-.23c.89-.54,1.76-1.11,2.66-1.64A42.3,42.3,0,0,1,90.15,81c1.1-.46,2.24-.85,3.38-1.21,1.32-.41,2.66-.78,4-1.06,1-.22,2.11-.39,3.17-.58l.31-.09c0-.15,0-.27,0-.39,0-1.65,0-3.3,0-5,0-.78,0-1.56,0-2.34,0-.94,0-1.87,0-2.81,0-.15,0-.31-.09-.45l-.17,0-.7.09c-1.23.14-2.46.32-3.69.56-1.71.33-3.41.72-5.09,1.19-1.51.42-3,.91-4.48,1.46-1.19.45-2.38.91-3.53,1.46l-2,1q-.66.32-1.29.66c-.89.51-1.79,1-2.67,1.53-.71.42-1.4.88-2.1,1.32C75.15,76.42,75,76.53,74.88,76.65Zm38.79,1.46.2,0,1.66.28a42.79,42.79,0,0,1,4.45,1,44.94,44.94,0,0,1,9.79,4.09c1,.56,2,1.15,2.9,1.79a.89.89,0,0,0,.45.2c.57-.7,1.09-1.45,1.64-2.18s1.12-1.5,1.68-2.24,1.1-1.47,1.64-2.21,1.15-1.47,1.65-2.24a28.26,28.26,0,0,0-5.17-3.2,57.43,57.43,0,0,0-17.65-6,18.39,18.39,0,0,0-3.35-.36c0,.1,0,.2,0,.31C113.47,69.74,113.58,77.62,113.67,78.11Zm34.49,46.1a4.07,4.07,0,0,0,1-.47c.31-.17.63-.33.95-.49l1-.5,1-.52c.32-.17.63-.35.95-.5a4.79,4.79,0,0,1,1-.46l.18.22c.46.67.92,1.33,1.39,2l1.5,2.14,1.28,1.84c.06.07.12.15.26.08a43.58,43.58,0,0,0,.71-6.56,3.42,3.42,0,0,0,0-1,.94.94,0,0,0-.52-.06l-8.45,0a1.31,1.31,0,0,1-.58,0l-.3-.81-.34-.87-.3-.83a1.77,1.77,0,0,0-.48-.86c0,.68.06,1.29.09,1.9s0,1.28,0,1.92,0,1.24-.1,1.86S148.19,123.5,148.16,124.21Zm-81.68,0a1.24,1.24,0,0,0,0-.25c0-.3-.07-.59-.1-.88a25.58,25.58,0,0,1-.14-5.32c0-.35,0-.71.07-1.07,0-.07,0-.16-.1-.2a7.66,7.66,0,0,0-.46,1.15c-.14.37-.29.75-.43,1.13a8.5,8.5,0,0,1-.5,1.18,3.49,3.49,0,0,1-.46,0H55.83a.78.78,0,0,0-.47.06.86.86,0,0,0,0,.17,40.1,40.1,0,0,0,.56,6.37l.18,1s0,0,.11.09c.75-1,1.48-2.11,2.22-3.16s1.49-2.14,2.28-3.22l1.46.77,1.4.74c.49.25,1,.51,1.46.75A10.22,10.22,0,0,0,66.48,124.23ZM81.27,87.64l-.19-.22L79.25,85c-1-1.31-2-2.62-2.93-3.92-.17-.24-.35-.48-.54-.71a.19.19,0,0,0-.28,0,3,3,0,0,0-.69.53c1.89,2.45,3.8,4.86,5.68,7.3l-.16.35-1,1.87c-.06.11-.14.22-.06.35s.08,0,.1,0a58.58,58.58,0,0,1,5-3.84s0-.06,0-.14a5.17,5.17,0,0,0-1.06.29c-.36.12-.72.22-1.08.33Zm52.14,0-1.57-.48-1.16-.37c-.11,0-.23-.09-.35,0s.1.21.2.28c.68.47,1.37.92,2,1.41s1.24,1,1.86,1.5c.24.19.46.41.7.61.08.06.18.14.31,0-.39-.83-.85-1.64-1.24-2.49l.16-.25,1.5-1.91,3.67-4.7a1.34,1.34,0,0,0,.28-.47,1.48,1.48,0,0,0-.83-.57c-.48.6-.92,1.23-1.39,1.85s-.92,1.21-1.37,1.83-.93,1.25-1.39,1.87Z"/><path class="cls-12" d="M61.06,151a13,13,0,0,1,1.28-1.09l1.27-1a2.76,2.76,0,0,0-.16-.27c-.65-.93-1.32-1.85-2-2.79-.49-.72-1-1.46-1.37-2.23-.75-1.38-1.45-2.79-2.17-4.19a2.67,2.67,0,0,1-.14-.34H58l2,.6.58.17,4.7,1.4,1.65.5.25,0c0-.08.11-.15.15-.23.36-.8.71-1.59,1.07-2.38L69.81,136c.23-.52.47-1,.7-1.58,0-.07.07-.13.12-.24a.81.81,0,0,1,.16.17c.13.21.24.43.37.65.65,1.18,1.29,2.38,2,3.55a23.62,23.62,0,0,0,2.55,3.51l1.77,2.05a.3.3,0,0,1,0,.1,1.54,1.54,0,0,1-.17.19l-1.45,1.26a2,2,0,0,0-.2.22c0,.2.17.29.27.4.85.86,1.73,1.7,2.65,2.49.76.65,1.53,1.29,2.33,1.88s1.56,1.13,2.38,1.65,1.66,1,2.52,1.51a41,41,0,0,0,3.94,1.93c1.23.53,2.48,1,3.76,1.41s2.44.72,3.69,1c1.09.26,2.2.44,3.3.62,1.26.21,2.53.36,3.8.48a28.41,28.41,0,0,0,3.69.07c1.54-.05,3.08-.16,4.61-.34,1.38-.16,2.75-.39,4.1-.68s2.76-.66,4.11-1.09a37.63,37.63,0,0,0,3.67-1.36c.61-.27,1.23-.53,1.84-.81,1-.47,2-1,2.93-1.54.77-.44,1.54-.89,2.27-1.39s1.48-1,2.22-1.56,1.69-1.32,2.5-2,1.5-1.36,2.2-2.09a2.5,2.5,0,0,0,.47-.54c-.3-.31-.62-.56-.93-.84a9.46,9.46,0,0,1-.95-.86l.44-.51c.64-.75,1.29-1.48,1.91-2.24a21.87,21.87,0,0,0,1.94-2.74c.67-1.11,1.29-2.24,1.89-3.39.18-.34.37-.68.56-1,0,0,.07-.06.12-.11a6.83,6.83,0,0,1,.6,1.25c.2.41.38.82.56,1.24l.57,1.28.56,1.23.57,1.28.58,1.24a1.26,1.26,0,0,0,.28,0l3.18-.94,1.2-.36,3.94-1.19.81-.23a2.26,2.26,0,0,1-.11.3c-.6,1.2-1.21,2.39-1.82,3.58a28.76,28.76,0,0,1-2,3.24c-.46.68-1,1.34-1.43,2l-.36.55a1.06,1.06,0,0,0,.39.42l1.9,1.51a3.58,3.58,0,0,1,.26.28c-.09.13-.17.24-.26.35-.53.66-1,1.33-1.59,2-.88,1-1.78,2-2.69,2.92s-2,2-3.09,2.91c-.72.62-1.46,1.22-2.2,1.81-1,.8-2,1.55-3,2.25s-2,1.33-3.06,2-2.37,1.39-3.59,2l-1.93.94c-1.06.52-2.15,1-3.25,1.42q-1.12.45-2.28.84c-1,.34-1.94.67-2.93,1q-1.81.54-3.66.93c-1.34.28-2.69.52-4,.68a.73.73,0,0,0-.12.05,3.86,3.86,0,0,0,0,1.59,2.11,2.11,0,0,0,.35,0c1.7-.2,3.38-.55,5-.9.78-.16,1.55-.36,2.31-.57,1.8-.5,3.59-1.05,5.34-1.7,1.56-.58,3.1-1.21,4.61-1.93,1-.49,2-1,3-1.53s1.69-.94,2.53-1.42l1.21-.7c.09,0,.2-.08.29-.12a27.53,27.53,0,0,1,1.9,2.77c.6.93,1.22,1.85,1.82,2.77s1.25,1.86,1.85,2.84a1.6,1.6,0,0,1-.24.22l-1.44.86L142,176.41c-.45.25-.91.48-1.36.71-1.47.73-2.94,1.45-4.45,2.06l-2.86,1.15c-1.14.46-2.31.84-3.48,1.21-1.37.44-2.74.83-4.13,1.19-1.84.47-3.7.85-5.57,1.18-1.17.21-2.34.37-3.51.53a60.21,60.21,0,0,1-6.85.53c-1.44,0-2.89,0-4.34,0-2.07,0-4.14-.16-6.2-.4-1.32-.15-2.63-.31-3.93-.53-1.49-.25-3-.51-4.45-.87-1.18-.29-2.36-.55-3.53-.88-1.48-.42-3-.87-4.41-1.39-.82-.3-1.64-.58-2.45-.91q-2.37-.93-4.67-2c-1.31-.62-2.6-1.28-3.86-2-.87-.48-1.72-1-2.58-1.51l-.77-.47c0-.05,0-.07,0-.08v0q2.73-4.12,5.44-8.26a.65.65,0,0,1,.12-.11,1.47,1.47,0,0,1,.48.25q1.32.85,2.7,1.59c.9.49,1.81,1,2.72,1.44.6.3,1.21.58,1.82.85,1.2.51,2.41,1,3.62,1.49.58.24,1.17.44,1.76.63,1,.31,2,.61,2.95.89s2.1.58,3.16.83c.76.18,1.52.33,2.29.46,1,.17,1.9.32,2.86.47a2.08,2.08,0,0,0,.35,0,6.78,6.78,0,0,0,0-1.71l-.3-.07c-.51-.08-1-.15-1.52-.25-1.15-.21-2.29-.43-3.43-.68q-2-.45-4-1.08c-1.31-.41-2.63-.84-3.92-1.36-.69-.28-1.39-.54-2.07-.84-1.07-.48-2.12-1-3.17-1.49-.6-.29-1.2-.61-1.78-.93-1.16-.64-2.3-1.31-3.41-2s-2.08-1.38-3.08-2.12-2.23-1.69-3.29-2.62c-.74-.64-1.47-1.29-2.18-2s-1.34-1.34-2-2c-.9-.92-1.74-1.9-2.57-2.9-.32-.38-.62-.77-.93-1.17Zm81.63-7-.19.19c-.62.72-1.21,1.46-1.85,2.16a42.06,42.06,0,0,1-5.77,5.31c-1,.75-2,1.47-3.06,2.14s-2.42,1.46-3.68,2.1a41.26,41.26,0,0,1-4.35,1.95,46,46,0,0,1-4.62,1.49c-1.35.36-2.72.65-4.1.89-.71.12-1.42.22-2.13.32s-1.2.16-1.81.21-1.24.07-1.86.11a37.58,37.58,0,0,1-5.09-.07c-1-.08-1.92-.21-2.88-.31a38.93,38.93,0,0,1-4.42-.78c-1.19-.27-2.38-.61-3.55-1-.91-.28-1.8-.6-2.69-.94a33.28,33.28,0,0,1-3.46-1.52c-.88-.44-1.75-.88-2.6-1.37s-1.59-1-2.38-1.47a33.25,33.25,0,0,1-2.81-2c-1.07-.83-2.1-1.72-3.09-2.64-.69-.65-1.37-1.32-2-2s-1.38-1.6-2.07-2.4l-.28-.29c-.78.59-1.49,1.21-2.23,1.8l-2.17,1.78c-.73.6-1.48,1.18-2.2,1.8s-1.52,1.12-2.2,1.8a1.42,1.42,0,0,0,.13.22c.44.52.89,1,1.34,1.55.93,1.07,1.92,2.09,2.94,3.07s2.15,2,3.28,2.92c.88.71,1.8,1.38,2.71,2.06a44.5,44.5,0,0,0,4.1,2.69c.84.5,1.71,1,2.57,1.44,1.38.75,2.8,1.41,4.25,2s2.69,1.08,4.06,1.55c1.52.51,3.06,1,4.61,1.34,1.08.27,2.16.49,3.24.71.83.16,1.66.31,2.49.42,1,.13,2,.24,3.06.32s2,.13,2.94.15c2.32.06,4.65,0,7-.12.67,0,1.34-.06,2-.13a51.42,51.42,0,0,0,5.9-1,57.38,57.38,0,0,0,6.56-1.81q.92-.31,1.8-.66l2.3-.92c1.07-.45,2.13-1,3.17-1.49.54-.27,1.08-.54,1.61-.84l2.3-1.34c1.1-.65,2.17-1.35,3.21-2.09,1.25-.9,2.49-1.82,3.65-2.84.91-.79,1.83-1.6,2.71-2.43.7-.66,1.37-1.36,2-2.07s1.45-1.63,2.17-2.45a.88.88,0,0,0,.26-.42s0-.08,0-.09l-8.53-6.91Zm-2.62,23.46-.35.17c-.9.51-1.81,1-2.72,1.54-.49.27-1,.53-1.49.77-1.07.51-2.14,1-3.22,1.49-.68.31-1.39.56-2.08.84-1.3.52-2.62,1-4,1.38-1.06.32-2.13.61-3.2.88s-2.39.59-3.59.81c-2,.38-4.09.69-6.15.87-1.66.13-3.33.24-5,.27-.83,0-1.65,0-2.48,0-1.76,0-3.52-.15-5.27-.33a58.76,58.76,0,0,1-6-.94c-1.68-.35-3.34-.74-5-1.21s-3.44-1.08-5.13-1.73c-1.39-.54-2.77-1.11-4.11-1.76-.69-.33-1.38-.66-2.06-1-1.12-.58-2.22-1.19-3.3-1.84a.7.7,0,0,0-.24-.09.57.57,0,0,0-.11.12l-1.51,2.25c-.73,1.12-1.47,2.23-2.21,3.35a.68.68,0,0,0-.17.46c.23.14.47.31.73.46.87.48,1.74,1,2.62,1.43.52.28,1,.55,1.58.8,1,.46,1.94.93,2.92,1.36.68.31,1.38.57,2.07.86,1.24.51,2.5,1,3.77,1.38s2.58.81,3.89,1.18c1.65.45,3.32.83,5,1.16.69.14,1.38.25,2.07.37s1.22.22,1.84.29c1.24.15,2.48.27,3.72.4,1.7.19,3.41.25,5.13.27a69.1,69.1,0,0,0,7.88-.28c1.6-.16,3.19-.32,4.78-.58s3.22-.55,4.81-.92c1.2-.29,2.39-.6,3.58-.91a55,55,0,0,0,5.32-1.73c1.06-.4,2.12-.83,3.17-1.25.58-.24,1.14-.5,1.71-.75s1.11-.5,1.65-.78q1.34-.68,2.64-1.38c.81-.44,1.6-.91,2.4-1.36.05,0,.08-.09.14-.16-1.17-1.82-2.38-3.61-3.55-5.43C140.42,167.87,140.25,167.65,140.07,167.4ZM72.15,141.87a.76.76,0,0,1,.16.1l1.76,1.23.66.44a.15.15,0,0,0,.23,0,1.11,1.11,0,0,0-.09-.19c-.12-.17-.25-.32-.38-.48a23.82,23.82,0,0,1-1.68-2.18,27.18,27.18,0,0,1-1.7-2.78,2.61,2.61,0,0,0-.17-.28.19.19,0,0,0-.23-.1c-.19.35-.35.76-.53,1.14s-.36.8-.54,1.2-.37.82-.56,1.23-.35.79-.54,1.19a7.87,7.87,0,0,1-.55,1.18l-.28-.06-2.55-.76-2.86-.87-1.25-.36a1.48,1.48,0,0,0-.3,0,1.92,1.92,0,0,0,.14.37c.42.75.82,1.51,1.28,2.22.71,1.1,1.47,2.16,2.21,3.24a1.92,1.92,0,0,0,.45.51c1.23-1,2.44-2,3.65-3Zm77.72,5.86a1.57,1.57,0,0,0,.33-.41c.22-.32.43-.65.66-1,.59-.8,1.16-1.62,1.67-2.47a22.89,22.89,0,0,0,1.21-2.16,1.14,1.14,0,0,0,.08-.3c-.87.18-1.65.49-2.45.71s-1.58.48-2.37.71-1.59.52-2.42.7c-.07-.13-.13-.23-.18-.34l-1.65-3.66-.83-1.83c0-.06-.09-.11-.15-.2-.07.1-.12.15-.16.22-.39.67-.76,1.35-1.17,2a24.5,24.5,0,0,1-2.14,2.94l-.66.79c-.06.08-.14.18,0,.3l1.37-.95,1.42-1a15.14,15.14,0,0,1,1.26,1l1.23,1,1.2,1,1.24,1c.41.34.81.68,1.23,1A11.12,11.12,0,0,0,149.87,147.73Z"/><path class="cls-12" d="M76.62,95c.13.06.22.08.3.13,1,.64,2.06,1.28,3.14,1.84.61.32,1.22.63,1.85.9s1.4.59,2.12.84a18.17,18.17,0,0,0,3.85.93,18.6,18.6,0,0,0,2.24.17,16.2,16.2,0,0,0,4.93-.7,18.63,18.63,0,0,0,4.74-2.27,23.53,23.53,0,0,0,2.69-2.08c.49-.44,1-.9,1.42-1.36A43.76,43.76,0,0,0,107,89.8a1.12,1.12,0,0,1,.19-.17c.24.28.48.55.7.82.75.92,1.53,1.81,2.35,2.66a29.36,29.36,0,0,0,3.06,2.74A22,22,0,0,0,116.66,98a19.18,19.18,0,0,0,2.19.93,16.24,16.24,0,0,0,6.3.84,17.92,17.92,0,0,0,3.64-.57,21.3,21.3,0,0,0,2.92-1,27.59,27.59,0,0,0,3.19-1.55c.83-.48,1.66-1,2.48-1.48l.39-.21a1,1,0,0,1,.08.25c.26,1.47.52,2.94.75,4.42s.41,2.83.54,4.26.26,2.57.31,3.86c0,1.08.07,2.15.08,3.23,0,1.7,0,3.4-.19,5.09-.13,1.38-.25,2.76-.47,4.13s-.51,3-.86,4.49c-.23,1-.51,2-.8,3a34,34,0,0,1-1.16,3.4c-.42,1.07-.84,2.15-1.32,3.19s-.92,1.8-1.39,2.7c-.18.35-.37.69-.56,1a42.07,42.07,0,0,1-2.61,4,30,30,0,0,1-2.07,2.58c-.65.71-1.27,1.45-1.95,2.14s-1.42,1.36-2.14,2c-.47.43-1,.84-1.45,1.25-.69.58-1.41,1.12-2.14,1.65-1,.7-1.94,1.36-3,2s-1.79,1.08-2.73,1.54-1.89,1-2.85,1.4c-.6.28-1.23.53-1.85.77s-1.49.56-2.23.84a1,1,0,0,1-.67,0c-1.37-.48-2.72-1-4-1.59a45.56,45.56,0,0,1-4.25-2.13,43.7,43.7,0,0,1-4-2.49c-.9-.64-1.79-1.3-2.64-2a43.85,43.85,0,0,1-3.42-3.1c-.68-.69-1.32-1.42-2-2.13s-1.37-1.61-2-2.46c-.5-.67-1-1.36-1.45-2.06s-.93-1.4-1.35-2.13c-.5-.88-1-1.78-1.45-2.67-.56-1-1-2.16-1.51-3.26l-.15-.39c-.46-1.19-.92-2.38-1.29-3.6q-.83-2.68-1.39-5.43c-.28-1.31-.45-2.64-.68-4-.11-.62-.16-1.26-.21-1.9-.09-1.15-.18-2.3-.24-3.45,0-.93-.07-1.87-.07-2.8,0-1.92.06-3.83.21-5.74.09-1,.17-2.08.3-3.12.16-1.33.36-2.65.56-4,.13-.86.28-1.72.43-2.58C76.57,95.12,76.59,95.07,76.62,95Zm1,2.31a2.09,2.09,0,0,1-.05.21c-.29,1.66-.5,3.33-.69,5s-.31,3.1-.37,4.65a66.58,66.58,0,0,0,.3,10.18c.16,1.37.32,2.75.59,4.11.16.83.3,1.66.49,2.47a47,47,0,0,0,1.38,4.8c.31.9.62,1.8,1,2.68.42,1,.89,2.09,1.4,3.11.3.58.58,1.17.9,1.74.62,1.1,1.27,2.17,2,3.22s1.36,1.94,2.09,2.87,1.73,2,2.65,3S91,147,91.87,147.84a37.34,37.34,0,0,0,3.44,2.72c.8.55,1.59,1.1,2.41,1.61s1.61,1,2.43,1.41a32.09,32.09,0,0,0,3,1.52c.62.27,1.25.54,1.89.8s1.42.55,2.13.82a.59.59,0,0,0,.45,0l.36-.12,2-.81a45.82,45.82,0,0,0,5.42-2.62c.41-.23.81-.45,1.21-.71q1.06-.67,2.1-1.38a34.1,34.1,0,0,0,2.81-2.09,37.08,37.08,0,0,0,3-2.65c.73-.72,1.44-1.46,2.12-2.23a30.69,30.69,0,0,0,2-2.42c.49-.66,1-1.31,1.45-2s1-1.63,1.53-2.46a36,36,0,0,0,2-3.9c.53-1.19,1-2.4,1.46-3.64a48.5,48.5,0,0,0,1.4-4.69c.25-1,.47-2.07.66-3.11s.38-2.21.51-3.32c.23-1.9.35-3.82.41-5.73q.07-2.26,0-4.53c-.06-1.39-.17-2.77-.28-4.15-.05-.69-.13-1.37-.22-2-.1-.85-.22-1.69-.35-2.54s-.26-1.47-.4-2.2a.77.77,0,0,0-.07-.16.74.74,0,0,0-.44.19,34,34,0,0,1-3.45,1.77,25.84,25.84,0,0,1-4.37,1.48c-.5.12-1,.18-1.51.28a16.5,16.5,0,0,1-4.38.16,18,18,0,0,1-4-.83,24.09,24.09,0,0,1-2.42-1,18.59,18.59,0,0,1-2.65-1.56c-.67-.48-1.33-1-2-1.49s-1-.9-1.54-1.37-.91-.89-1.34-1.36-.91-1-1.36-1.54a1.45,1.45,0,0,0-.18-.16,2.3,2.3,0,0,0-.22.2l-.57.68c-.72.82-1.46,1.62-2.25,2.36-.64.6-1.28,1.19-2,1.72a22.53,22.53,0,0,1-3.72,2.41,18.61,18.61,0,0,1-4,1.49,18.14,18.14,0,0,1-4,.51,17.52,17.52,0,0,1-3.39-.3c-.63-.12-1.26-.23-1.87-.4a24.35,24.35,0,0,1-3.78-1.36c-.73-.34-1.45-.71-2.17-1.08-.42-.21-.81-.46-1.22-.68C77.91,97.29,77.79,97.18,77.62,97.26Z"/><path class="cls-12" d="M99.14,190.63c0,.48,0,1-.12,1.44a1.66,1.66,0,0,1-1.43,1.45,3.77,3.77,0,0,1-1.67,0,2,2,0,0,1-1-.6,1.28,1.28,0,0,1-.33-.76,8.91,8.91,0,0,1-.1-1.26c0-.52,0-1.05.05-1.58a2.55,2.55,0,0,1,.11-.55,1.48,1.48,0,0,1,.84-.94,2.54,2.54,0,0,1,.9-.23,4,4,0,0,1,1.43.11A1.62,1.62,0,0,1,99,189a4.29,4.29,0,0,1,.11.79c0,.29,0,.59,0,.89Zm-3-.1c0,.33,0,.65,0,1s.06.43.09.65a.37.37,0,0,0,.25.31.83.83,0,0,0,.72,0,.42.42,0,0,0,.23-.29c0-.07,0-.15,0-.23a16.23,16.23,0,0,0,0-2.7s0-.06,0-.09c0-.37-.34-.49-.63-.5a.53.53,0,0,0-.61.45,3.93,3.93,0,0,0-.07.6C96.09,190,96.1,190.25,96.1,190.53Z"/><path class="cls-12" d="M93.43,189.66a10.47,10.47,0,0,1-1.48,0c0-.2-.07-.37-.11-.53a.62.62,0,0,0-.85-.48.52.52,0,0,0-.38.38,3.4,3.4,0,0,0-.06.46,14.55,14.55,0,0,0,0,2.19,3,3,0,0,0,.06.42.57.57,0,0,0,.64.43.53.53,0,0,0,.58-.48c0-.13,0-.25,0-.37l0-.36a4.19,4.19,0,0,1,1.51,0,.77.77,0,0,1,0,.54A1.71,1.71,0,0,1,92,193.54a3.78,3.78,0,0,1-1.57,0,3.35,3.35,0,0,1-.53-.19,1.72,1.72,0,0,1-.93-1.52,15.67,15.67,0,0,1,0-2.47,3.4,3.4,0,0,1,.09-.46,1.61,1.61,0,0,1,1.08-1.14,3.58,3.58,0,0,1,1.38-.15,3.09,3.09,0,0,1,1,.22,1.61,1.61,0,0,1,.84.9A1.58,1.58,0,0,1,93.43,189.66Z"/><path class="cls-12" d="M106.65,191.27c-.07.75,0,1.45-.05,2.13a4.6,4.6,0,0,1-1.57,0,1.46,1.46,0,0,1,0-.22c0-1,0-5,0-5.43a.92.92,0,0,1,.25,0l2.24,0a2.64,2.64,0,0,1,.73.11,1.4,1.4,0,0,1,1.07,1.06,2.64,2.64,0,0,1,0,.93,1.53,1.53,0,0,1-1.1,1.26,3.77,3.77,0,0,1-1.06.15Zm0-1.09.2,0,.32,0a.73.73,0,0,0,.63-.88.6.6,0,0,0-.45-.53,1.31,1.31,0,0,0-.68,0A3.51,3.51,0,0,0,106.66,190.18Z"/><path class="cls-12" d="M100.21,187.74l.26,0h3.27a.65.65,0,0,1,.15.05,2.62,2.62,0,0,1,0,1,2.21,2.21,0,0,1-.33,0h-1.3l-.48,0a2.28,2.28,0,0,0,0,1c.12,0,.23,0,.33,0h1.26c.12,0,.24,0,.37,0a3.94,3.94,0,0,1,0,1,1.59,1.59,0,0,1-.3.06h-1.65a5.68,5.68,0,0,0-.07,1.23,3.37,3.37,0,0,0,.36,0h1.35l.43,0a1.31,1.31,0,0,1,.06.23,3.28,3.28,0,0,1,0,.83.6.6,0,0,1-.14.05h-3.37a.74.74,0,0,1-.18,0,.58.58,0,0,1,0-.18q0-2.64,0-5.28A1.31,1.31,0,0,1,100.21,187.74Z"/><path class="cls-12" d="M127.4,193.4a.7.7,0,0,1-.06-.45c0-.69,0-1.37,0-2.06,0-.17,0-.34,0-.51s-.06-.31-.25-.35a.43.43,0,0,0-.49.18.57.57,0,0,0-.11.25,3,3,0,0,0-.06.51v2c0,.15,0,.31,0,.48a5.64,5.64,0,0,1-1.36.05,10.09,10.09,0,0,1,0-1.44c0-.48,0-1,0-1.45s0-.93,0-1.4a9.57,9.57,0,0,1,0-1.41,6.46,6.46,0,0,1,1.32,0,2.15,2.15,0,0,1,.06.29v1c0,.12,0,.24,0,.35s.23,0,.31-.06a1.44,1.44,0,0,1,1.15-.25.93.93,0,0,1,.82.78,3.57,3.57,0,0,1,.07.56v2.76a1.33,1.33,0,0,1,0,.21A2.89,2.89,0,0,1,127.4,193.4Z"/><path class="cls-12" d="M119.44,191.44c-.81,0-1.57,0-2.34,0a1.53,1.53,0,0,0,0,.9.49.49,0,0,0,.53.37.46.46,0,0,0,.45-.4l.06-.3a3.06,3.06,0,0,1,1.28,0,1.28,1.28,0,0,1-.5,1.17,1.76,1.76,0,0,1-.59.27,3.16,3.16,0,0,1-1.75-.05,1.2,1.2,0,0,1-.89-1,7.2,7.2,0,0,1,0-2.27,1.27,1.27,0,0,1,.59-.85,2.91,2.91,0,0,1,2.56,0,1.31,1.31,0,0,1,.53.68A3.82,3.82,0,0,1,119.44,191.44Zm-1.34-.73a.91.91,0,0,0,0-.59.53.53,0,0,0-1,0,.74.74,0,0,0,0,.6A3,3,0,0,0,118.1,190.71Z"/><path class="cls-12" d="M115.8,187.75a5.25,5.25,0,0,1,0,1c-.42.17-.87,0-1.29.12a.88.88,0,0,0-.07.5v3.55c0,.17,0,.34,0,.5a3.89,3.89,0,0,1-1.56,0,6.71,6.71,0,0,1,0-1.1c0-.39,0-.78,0-1.17v-2.25c-.42-.18-.86,0-1.27-.13a4.09,4.09,0,0,1,0-1l.24,0h3.79A1.59,1.59,0,0,1,115.8,187.75Z"/><path class="cls-12" d="M124,190.71a5.57,5.57,0,0,1-1.29,0c0-.16,0-.31-.09-.46a.37.37,0,0,0-.39-.33.39.39,0,0,0-.43.28,1.83,1.83,0,0,0-.07.32v1.54a1.55,1.55,0,0,0,.08.36.41.41,0,0,0,.79,0,4,4,0,0,0,.08-.5,2.66,2.66,0,0,1,1.32,0,1.3,1.3,0,0,1-.84,1.56,2.87,2.87,0,0,1-2,0,1.22,1.22,0,0,1-.74-.73,1.6,1.6,0,0,1-.1-.31,5.1,5.1,0,0,1,0-2.13,1.41,1.41,0,0,1,1.23-1.17,3.5,3.5,0,0,1,1.25,0,1.69,1.69,0,0,1,.75.36.85.85,0,0,1,.24.29A1.46,1.46,0,0,1,124,190.71Z"/><path class="cls-12" d="M57.4,107.66a8.44,8.44,0,0,1-.32,1.34,4.82,4.82,0,0,0-.66,0,.38.38,0,0,0-.27.57.49.49,0,0,0,.6.23,2.65,2.65,0,0,0,.4-.24c.15-.12.28-.25.42-.38l.63-.61a1.74,1.74,0,0,1,1.54-.5,3.12,3.12,0,0,1,.9.27,1.76,1.76,0,0,1,1,1.84,3.62,3.62,0,0,1-.32,1.11,1.53,1.53,0,0,1-1,.85,2,2,0,0,1-1.48-.14,4.21,4.21,0,0,1,.3-1.45l.31,0c.14,0,.28,0,.42,0a.38.38,0,0,0,.42-.29.43.43,0,0,0-.23-.55.6.6,0,0,0-.54,0,2,2,0,0,0-.61.42l-.75.71a2,2,0,0,1-2.5.24,1.53,1.53,0,0,1-.8-1.25,2.61,2.61,0,0,1,.41-1.69,1.54,1.54,0,0,1,1.39-.71A1.13,1.13,0,0,1,57.4,107.66Z"/><path class="cls-12" d="M67.51,96.61c.16-.25.3-.47.45-.68a.55.55,0,0,1,.34-.23.43.43,0,0,0,.2-.73c-.08-.09-.16-.19-.31-.18a1.5,1.5,0,0,1-.39.87.94.94,0,0,1-.92.34,2.22,2.22,0,0,1-.65-.24,10.23,10.23,0,0,1-1.81-1.32A2.6,2.6,0,0,1,64,93.9a1.08,1.08,0,0,1,.31-1.55l.31-.2a2.18,2.18,0,0,1,.65-1,2,2,0,0,1,.59.37c1,.71,2,1.44,2.93,2.16a4.44,4.44,0,0,1,.56.5,1.12,1.12,0,0,1,.27,1.12,2.54,2.54,0,0,1-.81,1.28A.93.93,0,0,1,67.51,96.61Zm-.57-1.85c.38,0,.56-.26.4-.53a1.75,1.75,0,0,0-.39-.47c-.34-.28-.71-.54-1.08-.8a1.3,1.3,0,0,0-.37-.19.55.55,0,0,0-.31,0,.38.38,0,0,0-.16.59,1.5,1.5,0,0,0,.34.37l1.24.91A1.7,1.7,0,0,0,66.94,94.76Z"/><path class="cls-12" d="M66.52,87.17a4,4,0,0,1,.72-.8c.48.25.72.78,1.16,1,.13,0,.13-.14.16-.23a1.26,1.26,0,0,1,.72-.81.67.67,0,0,1,.71,0,2.86,2.86,0,0,1,.48.36c.48.47.94,1,1.41,1.44l.82.83c.07.07.13.16.21.25a5.69,5.69,0,0,1-.72.75A.54.54,0,0,1,72,90c-.65-.65-1.29-1.31-1.93-2a3.38,3.38,0,0,0-.35-.31.29.29,0,0,0-.39,0,.38.38,0,0,0-.17.44,1.62,1.62,0,0,0,.21.36c.12.15.26.27.39.41l1.45,1.46c.1.1.2.23.29.34a2,2,0,0,1-.74.79c-.16,0-.26-.2-.38-.32l-2.92-3-.72-.73Z"/><path class="cls-12" d="M62.25,101.49a1.68,1.68,0,0,0,.82.35.43.43,0,0,0,.49-.18.46.46,0,0,0-.16-.58c-.12-.1-.25-.18-.38-.28a3.18,3.18,0,0,1,.39-1,1.76,1.76,0,0,1,1,.68,1.13,1.13,0,0,1,.14,1,4.47,4.47,0,0,1-.34.81,1.24,1.24,0,0,1-1.38.65,2.28,2.28,0,0,1-.45-.11,12.17,12.17,0,0,1-1.9-.89,1.47,1.47,0,0,1-.62-.73,1,1,0,0,1-.09-.45,2.39,2.39,0,0,1,.52-1.33A1.22,1.22,0,0,1,61.58,99a5.82,5.82,0,0,1,1.38.54,3.91,3.91,0,0,1-.37,1A5.72,5.72,0,0,0,62.25,101.49Zm-.51-1.13a.79.79,0,0,0-.56-.22.36.36,0,0,0-.38.27A.44.44,0,0,0,61,101a.66.66,0,0,0,.44.16A2,2,0,0,0,61.74,100.36Z"/><path class="cls-12" d="M61.32,97.49a5.16,5.16,0,0,1,.49-.91c0-.06.13-.08.21-.13a2.11,2.11,0,0,0,0-.26,1.1,1.1,0,0,1,.29-.77.89.89,0,0,1,1.21-.24c.21.1.41.22.61.34l2.22,1.29a.79.79,0,0,1,.37.31,3.79,3.79,0,0,1-.5.89c-.14-.07-.26-.12-.38-.19l-2.18-1.26a3.89,3.89,0,0,0-.42-.19.31.31,0,0,0-.38.12.35.35,0,0,0,0,.39.76.76,0,0,0,.36.35l.8.48,1.46.84c.12.07.22.15.35.24a5,5,0,0,1-.54,1,1.56,1.56,0,0,1-.26-.11Z"/><path class="cls-12" d="M56.57,106.1l.32-1a1.23,1.23,0,0,1,.29,0,6.68,6.68,0,0,0,.86.26l.21-.36a4.23,4.23,0,0,1,.71.23l0,.44.26.11,1.73.56.13,0c.34.09.38.08.62-.22a1.43,1.43,0,0,1,.79.28,2.26,2.26,0,0,1-.17.76.73.73,0,0,1-1,.49c-.29-.07-.57-.18-.85-.27l-1.92-.61-.23.32a2.42,2.42,0,0,1-.71-.22l0-.36s0-.06-.08-.07l-.57-.2Z"/><path class="cls-12" d="M69.88,91.38l.6.5a1.17,1.17,0,0,1-.35.6,2.42,2.42,0,0,1-.42.36.45.45,0,0,1-.53,0,8.15,8.15,0,0,1-.76-.55L66.91,91a1.16,1.16,0,0,0-.24-.14l-.29.19a2.4,2.4,0,0,1-.6-.46l.12-.36c-.22-.29-.56-.47-.81-.74a2.29,2.29,0,0,1,.66-.91l.87.66.36-.2a1.89,1.89,0,0,1,.61.49l-.15.34s0,.07.06.09l1.57,1.32,0,0C69.46,91.58,69.46,91.58,69.88,91.38Z"/><path class="cls-12" d="M58.81,103.26l.28,0s0-.08,0-.1-.1-.26-.13-.4a.63.63,0,0,1,.08-.51,1.46,1.46,0,0,1,.61.16,1.71,1.71,0,0,1,.61.26c0,.13-.06.27-.08.4a.59.59,0,0,0,.41.74l1,.4,1.27.47.17.09a5.17,5.17,0,0,1-.3,1,.37.37,0,0,1-.38,0l-2.27-.85-1.49-.55-.18-.08A3.1,3.1,0,0,1,58.81,103.26Z"/><path class="cls-12" d="M141.54,88.79a3.28,3.28,0,0,1,.66-.9c.19-.19.37-.38.54-.58.31-.38.3-.59,0-.93a.83.83,0,0,0-.17-.12c-.62.52-1.11,1.17-1.7,1.7a4.18,4.18,0,0,1-1.14-1.09s0,0,0,0,0,0,0,0l4.21-4.42a.42.42,0,0,1,.12-.08h.07a1.27,1.27,0,0,1,.2.16c.48.48,1,1,1.44,1.46a3.8,3.8,0,0,1,.54.71,1.31,1.31,0,0,1-.06,1.49,2.26,2.26,0,0,1-.51.6,1.76,1.76,0,0,1-1.16.42.56.56,0,0,0-.15,0,2.48,2.48,0,0,0,0,.27,1.55,1.55,0,0,1-.39,1c-.14.18-.3.36-.46.53a1.9,1.9,0,0,0-.6,1.14c-.07,0-.12,0-.15,0ZM144.85,85a.79.79,0,0,0-.3-.59.19.19,0,0,0-.26,0c-.25.25-.5.51-.74.77a.25.25,0,0,0,0,.21.64.64,0,0,0,.75.3.94.94,0,0,0,.49-.41A1.22,1.22,0,0,0,144.85,85Z"/><path class="cls-12" d="M157.16,116.35a4.92,4.92,0,0,1-.2-1c-.07-.32-.12-.64-.19-1a1.39,1.39,0,0,0-1,.2.38.38,0,0,0,0,.66.91.91,0,0,0,.31.09c.13,0,.25,0,.4,0a2.47,2.47,0,0,1,.18,1,1.32,1.32,0,0,1-1.74-.57,2.55,2.55,0,0,1-.25-1.36,1.08,1.08,0,0,1,.56-.91,2.65,2.65,0,0,1,1-.35c.47-.07.93-.12,1.39-.17a3,3,0,0,1,.52,0,1.36,1.36,0,0,1,1.24,1,2.35,2.35,0,0,1,.15,1,1.18,1.18,0,0,1-.71,1.07,2.57,2.57,0,0,1-.9.25A2,2,0,0,1,157.16,116.35Zm.6-1.31a.62.62,0,0,0,.55-.05.38.38,0,0,0,.23-.41.44.44,0,0,0-.34-.4.65.65,0,0,0-.54.07A2.1,2.1,0,0,0,157.76,115Z"/><path class="cls-12" d="M153.23,102.71a5.37,5.37,0,0,0-.54.22,1.61,1.61,0,0,0-.34.24.39.39,0,0,0-.06.44.35.35,0,0,0,.36.24c.18,0,.37,0,.58-.08a3,3,0,0,1,.42.94,1.3,1.3,0,0,1-2-.33,2.29,2.29,0,0,1-.44-1.31,1.06,1.06,0,0,1,.31-.76,2.27,2.27,0,0,1,.66-.49,10,10,0,0,1,1.74-.69,2.33,2.33,0,0,1,.46-.08,1.16,1.16,0,0,1,.93.34,2.25,2.25,0,0,1,.68,1.4,1.13,1.13,0,0,1-.46,1.1,2.1,2.1,0,0,1-.3.22,10.29,10.29,0,0,1-1.12.5,8.74,8.74,0,0,1-.47-1A3.27,3.27,0,0,0,153.23,102.71Zm1.2.47a2.18,2.18,0,0,0,.4-.17.44.44,0,0,0-.32-.8c-.15,0-.31,0-.41.21A2.07,2.07,0,0,0,154.43,103.18Z"/><path class="cls-12" d="M146.44,91.93a4.38,4.38,0,0,1-.48.38,1.1,1.1,0,0,1-1.42,0,3,3,0,0,1-.75-.83,1.3,1.3,0,0,1,0-1.37,3.15,3.15,0,0,1,.67-.78c.33-.31.68-.59,1-.87a2.8,2.8,0,0,1,.52-.32,1,1,0,0,1,.95,0,2.31,2.31,0,0,1,1.17,1.39,1,1,0,0,1-.06.76,2.55,2.55,0,0,1-.29.48,6.51,6.51,0,0,1-.94.87,1.24,1.24,0,0,1-.21-.18l-.79-.92-.37-.42a1.44,1.44,0,0,0-.7.63.52.52,0,0,0-.07.21.41.41,0,0,0,.58.44,1.49,1.49,0,0,0,.24-.14l.2-.11C146,91.33,146.15,91.65,146.44,91.93Zm-.34-2.41c0,.19.2.28.3.42s.31.28.56,0a.8.8,0,0,0,.13-.24.45.45,0,0,0-.16-.46.38.38,0,0,0-.39-.08A.63.63,0,0,0,146.1,89.52Z"/><path class="cls-12" d="M150,96.55a1.5,1.5,0,0,0-.83.52.42.42,0,0,0,.4.68,2.68,2.68,0,0,0,.27-.07l.28-.09.29.43c.08.15.16.3.25.45a1.48,1.48,0,0,1-1,.44,1,1,0,0,1-.69-.23,2.69,2.69,0,0,1-.81-1.18,1.25,1.25,0,0,1,.34-1.4,5,5,0,0,1,.73-.57,8.13,8.13,0,0,1,.81-.47,4.13,4.13,0,0,1,.81-.35,1.19,1.19,0,0,1,1.2.31,2.58,2.58,0,0,1,.73,1.28,1,1,0,0,1-.13.77,1.59,1.59,0,0,1-.33.44,5.54,5.54,0,0,1-1.18.76,4.29,4.29,0,0,1-.56-.87C150.41,97.12,150.25,96.82,150,96.55Zm1.21.23a.84.84,0,0,0,.2-.08.8.8,0,0,0,.19-.13.39.39,0,0,0,.12-.46.41.41,0,0,0-.43-.28.69.69,0,0,0-.52.24A1.31,1.31,0,0,0,151.25,96.78Z"/><path class="cls-12" d="M153.4,109.07a2.84,2.84,0,0,1-.34-1,2.58,2.58,0,0,1,.31-.13l2.5-.75c.13,0,.26-.1.39-.15a.3.3,0,0,0,.16-.32.32.32,0,0,0-.22-.32.88.88,0,0,0-.32,0,4.05,4.05,0,0,0-.5.12l-2.15.64-.46.11a4.35,4.35,0,0,1-.36-1,.89.89,0,0,1,.23-.13l2.6-.78,1.11-.35.3-.08a1.84,1.84,0,0,1,.36,1.24l.3.35a1.06,1.06,0,0,1,.25.64.84.84,0,0,1-.27.76,1.53,1.53,0,0,1-.57.32l-3.17.95Z"/><path class="cls-12" d="M157.2,112.2a6.52,6.52,0,0,1-.28-1.07,5.31,5.31,0,0,0,.51-.21.33.33,0,0,0,.17-.43.3.3,0,0,0-.26-.24,1.78,1.78,0,0,0-.46,0c-.58.12-1.15.26-1.73.4a.82.82,0,0,0-.26.1.32.32,0,0,0-.17.35.31.31,0,0,0,.26.29,3.65,3.65,0,0,0,.47,0c.13,0,.27-.08.44,0a4.56,4.56,0,0,1,.22,1,1.77,1.77,0,0,1-1.54,0,1,1,0,0,1-.36-.29,2.18,2.18,0,0,1-.45-1.3,1.12,1.12,0,0,1,.36-.88,1.6,1.6,0,0,1,.67-.41,10.73,10.73,0,0,1,1.86-.45,2.9,2.9,0,0,1,.51,0,1.29,1.29,0,0,1,1.2.82,4.48,4.48,0,0,1,.22.71,1.17,1.17,0,0,1-.72,1.37,2.62,2.62,0,0,1-.39.15A2,2,0,0,1,157.2,112.2Z"/><path class="cls-12" d="M149.07,90.72a4.23,4.23,0,0,1,.7,1,4.21,4.21,0,0,1-.62.71l-1,1.09a.54.54,0,0,0-.11.18.27.27,0,0,0,.32,0l1.18-.57.58-.29a2.33,2.33,0,0,1,.33-.14,3.59,3.59,0,0,1,.66,1s0,.06-.05.07l-4.16,1.7c-.28-.38-.54-.73-.8-1.13a6.38,6.38,0,0,1,.73-.9c.23-.31.51-.59.76-.88s.47-.58.72-.86S148.78,91,149.07,90.72Z"/><path class="cls-12" d="M150.2,101.06l-.52-1a1.3,1.3,0,0,1,.53-.38L153.53,98h.12a3,3,0,0,1,.49.92l-.19.21s0,.07,0,.08l.34.16a.89.89,0,0,1,.45.48,10.9,10.9,0,0,1-1.12.6.84.84,0,0,1-.15-.18c-.32-.5-.58-.58-1.12-.3l-1.87,1C150.43,101,150.32,101,150.2,101.06Z"/><path class="cls-12" d="M94.94,60c-.54.24-1.15.22-1.74.42a5.53,5.53,0,0,0,0,1.22c.64,0,1.23-.25,1.87-.28a1.2,1.2,0,0,1,0,.23v1a.22.22,0,0,1-.19.23l-3.25.64-.08,0a.78.78,0,0,1-.05-.23c0-.41,0-.81,0-1.22,0-1.54,0-3.08,0-4.62,0-.17,0-.34,0-.5a22,22,0,0,1,3.29-.73,1.62,1.62,0,0,1,.22,0,4.24,4.24,0,0,1,0,1.33c-.6.19-1.25.21-1.84.43a1.94,1.94,0,0,0,0,1h.26c.37-.07.73-.15,1.1-.21a1.62,1.62,0,0,1,.31,0A3.42,3.42,0,0,1,94.94,60Z"/><path class="cls-12" d="M101.6,55.74a2.68,2.68,0,0,1,1.09-.13,1.11,1.11,0,0,1,0,.23v5.61a2,2,0,0,1,0,.33,2,2,0,0,1-1.17.07,4.89,4.89,0,0,1-.52.25.92.92,0,0,1-1.25-.57,3.7,3.7,0,0,1-.2-.86,7.59,7.59,0,0,1,.1-2.33,2.42,2.42,0,0,1,.1-.36,1.17,1.17,0,0,1,1.5-.74l.25.07a1.54,1.54,0,0,0,.07-.27c0-.29,0-.59,0-.88Zm0,3.84h0c0-.25,0-.5,0-.75a2.7,2.7,0,0,0-.07-.41.31.31,0,0,0-.59-.07,1.54,1.54,0,0,0-.15.49,8.51,8.51,0,0,0,0,1.82,2.76,2.76,0,0,0,.08.27.25.25,0,0,0,.27.14.38.38,0,0,0,.38-.29,2.74,2.74,0,0,0,.08-.5C101.58,60,101.57,59.81,101.57,59.58Z"/><path class="cls-12" d="M113.27,61.71a3.79,3.79,0,0,1-1,0c-.11,0-.2-.12-.32-.21s-.2.12-.31.17a1.08,1.08,0,0,1-.36.11,1.12,1.12,0,0,1-1.35-1,1.79,1.79,0,0,1,0-.89,1.22,1.22,0,0,1,.62-.83c.24-.14.5-.25.75-.37.1-.05.21-.08.3-.13l.16-.1A.44.44,0,0,0,112,58a.38.38,0,0,0-.37-.24.41.41,0,0,0-.43.28,1.74,1.74,0,0,0-.05.22l-.06.18a4.25,4.25,0,0,1-1,0,1.2,1.2,0,0,1,.77-1.47,2.71,2.71,0,0,1,1.52,0,1,1,0,0,1,.71.75,2.68,2.68,0,0,1,.1.69c0,.62,0,1.25,0,1.87A3.82,3.82,0,0,0,113.27,61.71ZM112,59.41a1.2,1.2,0,0,0-.23,0,3.27,3.27,0,0,0-.37.28.78.78,0,0,0-.22.84.35.35,0,0,0,.32.28.38.38,0,0,0,.43-.28A2.38,2.38,0,0,0,112,59.41Z"/><path class="cls-12" d="M124.19,61.34c-.61-.09-1.22-.31-1.87-.37a1.64,1.64,0,0,0,.05,1.05.5.5,0,0,0,.29.3.32.32,0,0,0,.44-.22c0-.14.05-.3.08-.47a2.67,2.67,0,0,1,1,.15,1.48,1.48,0,0,1-.15,1.13.81.81,0,0,1-.68.42,2.09,2.09,0,0,1-1.64-.52,1.81,1.81,0,0,1-.33-.44,2.77,2.77,0,0,1-.29-1.17c0-.52,0-1.05,0-1.58a3.16,3.16,0,0,1,.14-.68.9.9,0,0,1,.9-.68,1.9,1.9,0,0,1,2.07,1.61,12.18,12.18,0,0,1,0,1.35S124.22,61.28,124.19,61.34Zm-2-1.34a1.4,1.4,0,0,0,.86.18c0-.11,0-.2,0-.29a.86.86,0,0,0,0-.23.53.53,0,0,0-.46-.41.31.31,0,0,0-.37.26C122.25,59.66,122.25,59.81,122.24,60Z"/><path class="cls-12" d="M105.43,56.94a3.22,3.22,0,0,1,1-.07c.14.13.11.27.11.41v3.78a.88.88,0,0,1-.07.49,1.81,1.81,0,0,1-1.19-.07c-.12.07-.24.14-.37.2a1.07,1.07,0,0,1-.86,0,.82.82,0,0,1-.54-.59,1.79,1.79,0,0,1-.07-.51c0-1.1,0-2.21,0-3.31,0-.09,0-.18,0-.28a1.14,1.14,0,0,1,.51-.06h.5c.13.13.09.28.09.41,0,.86,0,1.72,0,2.57a2.48,2.48,0,0,0,0,.47.33.33,0,0,0,.3.3.36.36,0,0,0,.38-.28,3,3,0,0,0,.07-.6V57.48C105.41,57.31,105.42,57.14,105.43,56.94Z"/><path class="cls-12" d="M115,61.84a4.56,4.56,0,0,1-1-.13c-.07-.42-.09-2.34,0-4.31a2.23,2.23,0,0,1,0-.34,1.8,1.8,0,0,1,1.22.23l.15-.06a1.14,1.14,0,0,1,1.27.15,1.08,1.08,0,0,1,.37.73,1.83,1.83,0,0,1,0,.33v3.22c0,.12,0,.25,0,.38a6.27,6.27,0,0,1-1-.08.66.66,0,0,1-.09-.48c0-.85,0-1.71,0-2.57a3.41,3.41,0,0,0-.05-.55.32.32,0,0,0-.26-.24.3.3,0,0,0-.39.23,3,3,0,0,0-.06.6c0,.81,0,1.62,0,2.43A.84.84,0,0,1,115,61.84Z"/><path class="cls-12" d="M96.94,62.42a3.32,3.32,0,0,1-1.07.17,2.61,2.61,0,0,1-.06-.27V58.21a1.67,1.67,0,0,1,0-.29,8.21,8.21,0,0,1,1-.17c.06,0,.13.06.23.11l.28-.2a1.14,1.14,0,0,1,.76-.18.71.71,0,0,1,.71.57,1.82,1.82,0,0,1,.06.46c0,1.15,0,2.31,0,3.46a.59.59,0,0,1,0,.13,1.87,1.87,0,0,1-1,.18.77.77,0,0,1,0-.45c0-.84,0-1.68,0-2.52a3,3,0,0,0,0-.42.27.27,0,0,0-.21-.28.39.39,0,0,0-.41.17A.58.58,0,0,0,97,59a4.62,4.62,0,0,0-.05.65v2.43C97,62.21,97,62.3,96.94,62.42Z"/><path class="cls-12" d="M120.49,60.79a2.2,2.2,0,0,1-.12,1.28.93.93,0,0,1-.85.56,2,2,0,0,1-1.36-.39,2,2,0,0,1-.61-1.17,10.68,10.68,0,0,1,0-2.33,1.34,1.34,0,0,1,.07-.27,1.1,1.1,0,0,1,1.26-.87,3,3,0,0,1,.67.16,1.5,1.5,0,0,1,1,1.37c0,.17,0,.34,0,.5a2,2,0,0,1-1-.12c-.09-.16,0-.36-.09-.53a.41.41,0,0,0-.37-.37.27.27,0,0,0-.29.19,1.13,1.13,0,0,0,0,.32V61a1.85,1.85,0,0,0,.07.41.32.32,0,0,0,.27.23.28.28,0,0,0,.36-.2,3.2,3.2,0,0,0,.07-.41c0-.11,0-.22,0-.34C119.83,60.59,120.13,60.76,120.49,60.79Z"/><path class="cls-12" d="M109.53,56.75c0,.46,0,.87,0,1.32l-.38,0a.59.59,0,0,0-.6.64c0,.11,0,.22,0,.33v2a.76.76,0,0,1-.07.48,3.76,3.76,0,0,1-1.06,0,1.31,1.31,0,0,1-.06-.27v-4.1c0-.09,0-.18,0-.28a4.13,4.13,0,0,1,1,0l.19.28C108.86,56.92,109.11,56.64,109.53,56.75Z"/><path class="cls-12" d="M84.61,80.39a15.07,15.07,0,0,1-1.32.81,5.74,5.74,0,0,1-.7-1.14c-.24-.36-.43-.76-.64-1.14l-.61-1.1a7.57,7.57,0,0,0-.66-1.13,4.11,4.11,0,0,0-1,.51A8.75,8.75,0,0,1,79,76.05c.11-.08.19-.16.29-.22L80.73,75l1.53-.89.2-.1a3.14,3.14,0,0,1,.65,1.13c-.22.34-.66.38-1,.68a2.41,2.41,0,0,0,.08.25l1,1.75,1.32,2.37A1.35,1.35,0,0,1,84.61,80.39Z"/><path class="cls-12" d="M95.33,76.3l-1,.29a1.89,1.89,0,0,1-.12-.27c-.32-1.35-.63-2.7-1-4-.11-.5-.24-1-.36-1.49,0-.06,0-.12,0-.21a3,3,0,0,1,1.07-.28,1.9,1.9,0,0,1,.11.34l.21.91a2.28,2.28,0,0,0,.12.33l.27-.22a1.2,1.2,0,0,1,.77-.29.9.9,0,0,1,.84.49,1.85,1.85,0,0,1,.15.39l.81,3.45a1,1,0,0,1,0,.12,3,3,0,0,1-.94.27.63.63,0,0,1-.19-.43c-.17-.7-.32-1.39-.49-2.09-.06-.26-.12-.51-.2-.77s-.19-.3-.37-.28a.38.38,0,0,0-.36.36,1.15,1.15,0,0,0,0,.32c.07.35.16.7.24,1L95.29,76A2.89,2.89,0,0,1,95.33,76.3Z"/><path class="cls-12" d="M88.81,73.39a8,8,0,0,1,1-.36l.08,0,0,0c.51,1.37,1,2.74,1.52,4.11a.37.37,0,0,1,0,.16,4.12,4.12,0,0,1-.8.35,1.59,1.59,0,0,1-.38,0l-.2.22a1.21,1.21,0,0,1-.64.36.78.78,0,0,1-.74-.17,1.38,1.38,0,0,1-.43-.65l-.76-2c-.12-.34-.25-.67-.37-1a2.22,2.22,0,0,1-.09-.33,5,5,0,0,1,1-.36.54.54,0,0,1,.21.37l.93,2.49a2.53,2.53,0,0,0,.18.37.32.32,0,0,0,.36.16.33.33,0,0,0,.26-.3,1,1,0,0,0,0-.41c0-.19-.12-.38-.19-.57-.28-.73-.55-1.46-.82-2.19C88.85,73.58,88.84,73.51,88.81,73.39Z"/><path class="cls-12" d="M91.16,73.58l-.34,0a2.14,2.14,0,0,1-.24-.79l.29-.2c0-.39-.24-.72-.25-1.15a4,4,0,0,1,1-.32L92,72.24l.4,0c.06.15.12.29.17.43a2.62,2.62,0,0,1,.09.33l-.31.2s0,.07,0,.1a4.48,4.48,0,0,0,.11.5l.45,1.52c0,.16.11.32.16.47l.43.06.24.8a2,2,0,0,1-.93.33.62.62,0,0,1-.68-.39,6.58,6.58,0,0,1-.29-.78c-.2-.65-.38-1.31-.57-2Z"/><path class="cls-12" d="M87.16,79.14l-.67.33-.32.1a1.12,1.12,0,0,1-.11-.15c-.53-1.38-1.15-2.72-1.65-4.12a3.09,3.09,0,0,1,.9-.43l.26.21s.09-.06.11-.1a2.75,2.75,0,0,1,.14-.3.68.68,0,0,1,.49-.33c.22.4.33.82.53,1.22l-.33.15a.63.63,0,0,0-.35.74,2.06,2.06,0,0,0,.12.35c.23.59.48,1.18.71,1.78A1.54,1.54,0,0,1,87.16,79.14Z"/><path class="cls-12" d="M119,71.15a2.69,2.69,0,0,0-.26,1c.56.21,1.14.31,1.72.49a7.43,7.43,0,0,1-.29,1.34,5.47,5.47,0,0,1-.93-.18l-.75-.16a2.05,2.05,0,0,0-.35,1.19,2.39,2.39,0,0,0,.28.13l1,.23c.18,0,.35.1.54.15a1.12,1.12,0,0,1,0,.25,8.31,8.31,0,0,1-.27,1.12c-.35,0-3.06-.66-3.44-.81a2.11,2.11,0,0,1,0-.35c.3-1.32.61-2.63.91-4,.13-.58.25-1.16.38-1.73,0-.15,0-.32.16-.43l.09,0,3.13.77.16.07a2.82,2.82,0,0,1-.26,1.28,3.47,3.47,0,0,1-.9-.16Z"/><path class="cls-12" d="M124.31,71.73l.23.06.81.29c-.06.54-.37,1-.4,1.56h.23a2.36,2.36,0,0,1,.46,0,1,1,0,0,1,.83,1.35c-.14.5-.3,1-.45,1.47-.21.64-.41,1.28-.62,1.92l-.08.17a5.27,5.27,0,0,1-1-.29,2.69,2.69,0,0,1,0-.32c.28-.88.56-1.75.83-2.63,0-.12.08-.23.11-.36a.35.35,0,0,0-.19-.42.39.39,0,0,0-.5.14,2.26,2.26,0,0,0-.19.42c-.27.83-.52,1.67-.79,2.5a2.64,2.64,0,0,1-.1.27.37.37,0,0,1-.38,0l-.36-.11c-.12,0-.24-.06-.31-.16a.39.39,0,0,1,0-.06,1.29,1.29,0,0,1,0-.19c.13-.44.27-.89.42-1.33C123.39,74.61,123.81,73.18,124.31,71.73Z"/><path class="cls-12" d="M131.69,79.85l.85.5a2.92,2.92,0,0,0-.11.36,1.12,1.12,0,0,0-.05.36.4.4,0,0,0,.45.32.33.33,0,0,0,.31-.39,1.69,1.69,0,0,0-.23-.65c-.13-.27-.27-.53-.38-.8a1.51,1.51,0,0,1,.11-1.43A1.13,1.13,0,0,1,134,77.6a2.1,2.1,0,0,1,1.1.75,1.09,1.09,0,0,1,.17.89,1.27,1.27,0,0,1-.34.66,3,3,0,0,1-.8-.43c0-.15.08-.3.11-.45a.4.4,0,0,0-.3-.46.3.3,0,0,0-.41.2.73.73,0,0,0,.06.5c.14.29.29.58.42.88a2.79,2.79,0,0,1,.22.61,1.46,1.46,0,0,1-.66,1.53,1.09,1.09,0,0,1-1,.08,2.49,2.49,0,0,1-.92-.53,1.15,1.15,0,0,1-.39-1.18A2.06,2.06,0,0,1,131.69,79.85Z"/><path class="cls-12" d="M131.6,78.22l-.89-.41c0-.11,0-.19,0-.28a2.93,2.93,0,0,0,.07-.41.27.27,0,0,0-.19-.29.35.35,0,0,0-.39.06,2.14,2.14,0,0,0-.13.19l-.34.72c-.15.34-.3.68-.44,1a1.88,1.88,0,0,0-.12.45.29.29,0,0,0,.18.34.35.35,0,0,0,.43-.09c.09-.12.17-.26.25-.39l.17-.29a5.05,5.05,0,0,1,.88.36s0,.06,0,.08a1.9,1.9,0,0,1-.91,1.28,1,1,0,0,1-.73.09,2.24,2.24,0,0,1-1-.47,1.2,1.2,0,0,1-.45-1.16,5,5,0,0,1,.2-.76,9.31,9.31,0,0,1,.77-1.7,2.22,2.22,0,0,1,.42-.49,1.14,1.14,0,0,1,1.18-.24,2.62,2.62,0,0,1,.78.4,1.19,1.19,0,0,1,.47,1.15A1.62,1.62,0,0,1,131.6,78.22Z"/><path class="cls-12" d="M122.11,76.66l-.2.75a1.48,1.48,0,0,1-1.08-.27.62.62,0,0,1-.27-.57,1.85,1.85,0,0,1,.07-.41l.63-2.25c0-.14.07-.3.11-.46l-.3-.22a1.51,1.51,0,0,1,.19-.74l.36-.06c.19-.32.21-.71.38-1.05a3.5,3.5,0,0,1,1,.24,1.58,1.58,0,0,1,0,.31,1.45,1.45,0,0,1-.12.35,1.49,1.49,0,0,0-.08.52l.28.19a1.37,1.37,0,0,1-.2.79h-.37c-.08.22-.17.44-.23.66-.15.51-.28,1-.41,1.53S121.79,76.36,122.11,76.66Z"/><path class="cls-12" d="M127.76,74.66a6,6,0,0,1,.94.43c-.14.5-.34,1-.51,1.44s-.34,1-.55,1.44a10.92,10.92,0,0,1-.59,1.44,6.23,6.23,0,0,1-1-.42,10,10,0,0,1,.35-1c.41-1.08.83-2.15,1.24-3.22C127.66,74.72,127.71,74.7,127.76,74.66Z"/><path class="cls-12" d="M128.25,73.24a4.59,4.59,0,0,1,1,.4,3.7,3.7,0,0,1-.34,1,4.25,4.25,0,0,1-1-.38A1.9,1.9,0,0,1,128.25,73.24Z"/><path class="cls-12" d="M140.65,158a1.22,1.22,0,0,1-.16-.14q-1.38-1.66-2.74-3.35a1.91,1.91,0,0,1-.14-.21,2.06,2.06,0,0,1,.72-.59,4,4,0,0,1,.74.47l1.11.78a.83.83,0,0,0,.21.07,1.46,1.46,0,0,0,0-.2,4.19,4.19,0,0,0-.26-.33c-.31-.35-.61-.71-.91-1.06-.06-.07-.1-.16-.15-.23.12-.27.38-.33.55-.5a1,1,0,0,1,.39.36l1.5,1.85,1.06,1.29.12.17c-.15.32-.47.43-.73.63-.71-.43-1.31-1-2-1.38-.12.06-.1.14-.05.2l.29.36,1,1.18a.76.76,0,0,1,.07.13A2.34,2.34,0,0,1,140.65,158Z"/><path class="cls-12" d="M104.57,168.44a1.63,1.63,0,0,1-.73,0c-.13-.13-.09-.26-.09-.38,0-.66.08-1.31.13-2s.09-1.3.14-1.95c0-.14,0-.28,0-.41a2,2,0,0,1,1,0c.13.41.18.86.29,1.3s.19.87.31,1.39a1.1,1.1,0,0,0,.09-.56c0-.17,0-.34,0-.51s0-.34,0-.51,0-.35,0-.52,0-.33,0-.51a1.42,1.42,0,0,1,.84,0c0,.09,0,.17,0,.24-.12,2.1-.29,4-.39,4.44a2.18,2.18,0,0,1-1,0c0-.21-.09-.42-.14-.63s-.08-.43-.13-.64-.07-.4-.11-.6a2.12,2.12,0,0,0-.18-.66.65.65,0,0,0-.11.47c0,.12,0,.25,0,.37s0,.28,0,.42,0,.28,0,.42,0,.25,0,.37S104.59,168.3,104.57,168.44Z"/><path class="cls-12" d="M117.9,167.88a4.13,4.13,0,0,1-.9.1c0-.11,0-.2-.07-.29-.24-1.42-.47-2.85-.71-4.28a.31.31,0,0,1,0-.09,1.88,1.88,0,0,1,.71-.15,8,8,0,0,1,1-.12,1,1,0,0,1,1,.74,1.49,1.49,0,0,1-.15,1.43.11.11,0,0,0,0,.08s0,.07,0,.09a1.59,1.59,0,0,1,.59,1.07c.09.35.17.69.26,1.08,0,0-.09.06-.15.08l-.6.1a1.48,1.48,0,0,1-.2,0,1.71,1.71,0,0,1-.22-.75c0-.22-.07-.43-.12-.65a.43.43,0,0,0-.24-.32c-.16-.07-.28-.06-.54.07C117.7,166.65,117.89,167.23,117.9,167.88Zm-.59-3.93a3.63,3.63,0,0,0,.2,1.13c.25,0,.46,0,.57-.24A1,1,0,0,0,118,164,.59.59,0,0,0,117.31,164Z"/><path class="cls-12" d="M95.85,165.37a1.53,1.53,0,0,0-.76-.19c-.27.59-.35,1.23-.56,1.82a1.61,1.61,0,0,1-.89-.22c.07-.5,1.09-4.26,1.23-4.55a2,2,0,0,1,.85.23c0,.6-.33,1.13-.38,1.73a1.51,1.51,0,0,0,.8.15c.23-.53.27-1.12.49-1.65a2.4,2.4,0,0,1,.86.18c0,.34-1,4.1-1.21,4.59a2.67,2.67,0,0,1-.86-.19,5.85,5.85,0,0,1,.23-1A7.74,7.74,0,0,0,95.85,165.37Z"/><path class="cls-12" d="M73.55,156.33a1.21,1.21,0,0,1,.25-.78,14.62,14.62,0,0,1,1.73-2,.44.44,0,0,1,.11-.09,1.4,1.4,0,0,1,2.23.48,1,1,0,0,1,0,.9,3.33,3.33,0,0,1-.35.61A15,15,0,0,1,76,157.21a1.39,1.39,0,0,1-2.21-.27A1,1,0,0,1,73.55,156.33ZM77,154.47a.48.48,0,0,0-.18-.36.37.37,0,0,0-.44,0,2.1,2.1,0,0,0-.42.36c-.39.42-.78.85-1.16,1.28a1.64,1.64,0,0,0-.28.48.35.35,0,0,0,.43.46.7.7,0,0,0,.35-.21c.38-.39.74-.78,1.11-1.18a5.58,5.58,0,0,0,.39-.46A3.56,3.56,0,0,0,77,154.47Z"/><path class="cls-12" d="M100.45,163.23l.84.1c.12.11.09.22.08.33-.12,1-.24,2-.35,3a2.53,2.53,0,0,0,0,.55.27.27,0,0,0,.27.22.3.3,0,0,0,.32-.15.49.49,0,0,0,.06-.17c0-.11,0-.21.07-.32l.33-2.64a1.86,1.86,0,0,1,.12-.63,1.45,1.45,0,0,1,.87.11.82.82,0,0,1,0,.22c-.13,1.05-.25,2.1-.39,3.15a2.15,2.15,0,0,1-.12.5,1.15,1.15,0,0,1-1.17.82,2.43,2.43,0,0,1-.6-.1,1.06,1.06,0,0,1-.78-1,5.91,5.91,0,0,1,0-.94c.1-.86.21-1.73.32-2.59C100.39,163.51,100.42,163.41,100.45,163.23Z"/><path class="cls-12" d="M134.55,156.32a4,4,0,0,1,.77-.54l.54.7,1.42,1.92a2.86,2.86,0,0,0,.43.42.26.26,0,0,0,.38,0,.27.27,0,0,0,.09-.33,1.78,1.78,0,0,0-.22-.41c-.32-.46-.65-.91-1-1.36l-1-1.35a.73.73,0,0,1,.1-.13l.59-.39a1.46,1.46,0,0,1,.42.44c.54.72,1.07,1.45,1.6,2.18a2.5,2.5,0,0,1,.44.82,1,1,0,0,1-.23,1,1.94,1.94,0,0,1-.64.46,1.08,1.08,0,0,1-1.07-.08,2.32,2.32,0,0,1-.63-.62c-.28-.35-.56-.71-.82-1.07Z"/><path class="cls-12" d="M72.83,153.64a2.49,2.49,0,0,1,.65.6,2.37,2.37,0,0,1-1.16.82,1.08,1.08,0,0,1-.73-.05,1.76,1.76,0,0,1-.79-.71,1,1,0,0,1,0-1.15,5.49,5.49,0,0,1,.63-.81c.34-.36.7-.71,1.06-1.05a3.9,3.9,0,0,1,.51-.4,1.23,1.23,0,0,1,1.41,0,1.63,1.63,0,0,1,.66.76.89.89,0,0,1,0,.73,2.37,2.37,0,0,1-.61.88c-.28-.13-.42-.38-.65-.57.07-.12.15-.21.21-.32a1.51,1.51,0,0,0,.15-.28.35.35,0,0,0-.42-.45.77.77,0,0,0-.37.19c-.52.51-1,1-1.54,1.55a.8.8,0,0,0-.18.27.36.36,0,0,0,0,.43.35.35,0,0,0,.47.07c.13-.08.25-.18.37-.27Z"/><path class="cls-12" d="M92.58,163.22c0-.19,0-.36.06-.52a.42.42,0,0,0-.25-.41.39.39,0,0,0-.48.18,1.48,1.48,0,0,0-.17.33c-.2.59-.39,1.18-.57,1.78a1.71,1.71,0,0,0-.06.5.31.31,0,0,0,.25.35.36.36,0,0,0,.44-.17c.12-.21.22-.44.32-.66a1.44,1.44,0,0,1,.82.23.71.71,0,0,1,0,.25,2,2,0,0,1-.45.86,1.11,1.11,0,0,1-.91.39,1.52,1.52,0,0,1-1.28-.66,1,1,0,0,1-.18-.62,3.82,3.82,0,0,1,.09-.59c.14-.51.29-1,.46-1.52a5.82,5.82,0,0,1,.35-.81,1.23,1.23,0,0,1,1.55-.69,2.06,2.06,0,0,1,.35.12,1.1,1.1,0,0,1,.67.94,1.74,1.74,0,0,1-.16,1A2,2,0,0,1,92.58,163.22Z"/><path class="cls-12" d="M111.59,168.62h-1.08a3.4,3.4,0,0,1-.12-.34l-.81-3.64-.16-.71a1.91,1.91,0,0,1,1,0c.14.49.17,1,.3,1.5a11.53,11.53,0,0,0,.31,1.53,4.11,4.11,0,0,0,.19-1.05c.07-.33.1-.68.15-1s.09-.64.13-1a1.86,1.86,0,0,1,1,0,1,1,0,0,1,0,.11,1.1,1.1,0,0,1,0,.18c-.26,1.43-.52,2.85-.79,4.27C111.65,168.46,111.62,168.52,111.59,168.62Z"/><path class="cls-12" d="M121.45,163.41c-.11-.18-.19-.31-.28-.43a.28.28,0,0,0-.33-.11.31.31,0,0,0-.2.24.54.54,0,0,0,.23.57,2.35,2.35,0,0,0,.42.21l.85.39a1.12,1.12,0,0,1,.54.61,2,2,0,0,1,.18,1.14,1,1,0,0,1-.69.86,1.48,1.48,0,0,1-.86.12,1.21,1.21,0,0,1-.82-.64l-.08-.17c-.22-.54-.15-.6.35-.69l.23,0,.05,0c.16.09.16.28.24.43a.37.37,0,0,0,.41.23.29.29,0,0,0,.26-.23.57.57,0,0,0-.13-.56,1.53,1.53,0,0,0-.5-.34l-.69-.29a1.57,1.57,0,0,1-.91-1.46,1.09,1.09,0,0,1,.88-1.15l.23-.05a1.11,1.11,0,0,1,1.21.6,2,2,0,0,1,.11.26c0,.07,0,.15,0,.23C122,163.37,121.71,163.35,121.45,163.41Z"/><path class="cls-12" d="M134.21,162.06a1.25,1.25,0,0,1-.16-.17c-.37-.52-2.18-3.61-2.3-3.92a1.59,1.59,0,0,1,.21-.15l1.23-.65a1,1,0,0,1,1.16.2,2.18,2.18,0,0,1,.69,1.14,1,1,0,0,1-.41,1.15c-.16.13-.33.23-.51.35a16.8,16.8,0,0,0,.84,1.57A1.7,1.7,0,0,1,134.21,162.06Zm-.6-2.84a.45.45,0,0,0,.42-.3.49.49,0,0,0,0-.41,2,2,0,0,0-.1-.21.53.53,0,0,0-.8-.19.15.15,0,0,0-.07.2A4.1,4.1,0,0,0,133.61,159.22Z"/><path class="cls-12" d="M114.08,164.46a3.33,3.33,0,0,0,0,.84c.43.13.8-.07,1.21,0a.74.74,0,0,1,.1.22,6,6,0,0,1,0,.61c-.37.2-.79.08-1.14.22a2.14,2.14,0,0,0,.12,1c.41.07.82-.1,1.26-.05,0,.14,0,.27.07.41s0,.27,0,.41a2.45,2.45,0,0,1-.94.18,4.94,4.94,0,0,1-1.33.08,1.56,1.56,0,0,1-.06-.15c-.18-1.48-.35-3-.53-4.47.07,0,.13-.09.2-.1l1.81-.22h.24a1.64,1.64,0,0,1,.11.84C114.92,164.39,114.49,164.35,114.08,164.46Z"/><path class="cls-12" d="M79.82,161.05a5.55,5.55,0,0,1-.81-.44c.3-.59,2.25-3.8,2.5-4.1a6.56,6.56,0,0,1,1.5.9,1,1,0,0,1,.25,1.26,3,3,0,0,1-.47.75,1.15,1.15,0,0,1-1.34.39c-.13-.05-.25-.12-.38-.18s-.31-.11-.45.12-.39.64-.58,1C80,160.82,79.9,160.92,79.82,161.05Zm2.07-3.38a7.11,7.11,0,0,0-.61,1.05c.24.21.42.26.6.19a.92.92,0,0,0,.48-.7C82.36,157.93,82.18,157.8,81.89,157.67Z"/><path class="cls-12" d="M88.34,163a3.87,3.87,0,0,0-.37.91c.31.34.8.31,1.15.59a3.91,3.91,0,0,1-.31.76,9.45,9.45,0,0,1-2.11-.82c.12-.42,1.61-4,1.85-4.34a1.11,1.11,0,0,1,.25,0l1.65.65.16.12a1.45,1.45,0,0,1-.29.73L90,161.6l-.7-.27c-.18-.06-.27,0-.34.13a1.66,1.66,0,0,0-.2.63c.32.22.71.3,1.06.5a2.08,2.08,0,0,1-.35.77C89.09,163.31,88.76,163.07,88.34,163Z"/><path class="cls-12" d="M143.06,151.91l.61.6c-.21.36-.57.52-.77.84a1.48,1.48,0,0,0,.7.77c.39-.18.62-.55,1-.79.27.13.4.39.62.59a4.18,4.18,0,0,1-.77.8c-.26.27-.55.5-.83.75a1.71,1.71,0,0,1-.17-.11c-1.07-1.09-2.14-2.17-3.24-3.27a2.77,2.77,0,0,1,.17-.23q.68-.65,1.38-1.26a.28.28,0,0,1,.11,0,3.57,3.57,0,0,1,.59.58l-.92.89a2.38,2.38,0,0,0,.61.65c.23,0,.33-.24.48-.36Z"/><path class="cls-12" d="M80.34,156.8l-1-.68c-.32.21-.32.21-.58.7.23.31.62.43.9.74l-.21.34c-.08.11-.17.21-.27.33a1.62,1.62,0,0,1-.53-.3c-.16-.09-.31-.2-.49-.31a2.94,2.94,0,0,0-.63.84,2.18,2.18,0,0,0,.21.22l.78.56A2.49,2.49,0,0,1,78,160c-.64-.41-1.23-.82-1.83-1.27a9.58,9.58,0,0,1,.92-1.31c.3-.43.63-.85,1-1.27l.93-1.27a.71.71,0,0,1,.16,0l1.5,1a1.92,1.92,0,0,1,.23.2A2.61,2.61,0,0,1,80.34,156.8Z"/><path class="cls-12" d="M127.19,160.25a2.52,2.52,0,0,1,.74-.36.21.21,0,0,1,.25.08c.15.18.29.37.43.55a1.29,1.29,0,0,0,.39.38c0-.06.06-.11.05-.16,0-.22,0-.43-.07-.65l-.06-.52a2.08,2.08,0,0,1,.91-.4c0,.12,0,.22.06.33.05.71.11,1.42.15,2.14a2,2,0,0,0,.16.77c.21.46.4.94.61,1.43a1.88,1.88,0,0,1-.88.41c-.06-.13-.12-.23-.17-.35-.19-.42-.37-.85-.55-1.28a1.64,1.64,0,0,0-.37-.53l-1.36-1.47Z"/><path class="cls-12" d="M85,163.75a3,3,0,0,1-.83-.39,9.18,9.18,0,0,1,.54-1.19c.17-.39.38-.75.55-1.14a5.18,5.18,0,0,0,.52-1.2l-.63-.33a1.66,1.66,0,0,1,.37-.78c.77.35,1.54.66,2.3,1.06a1.55,1.55,0,0,1-.31.72c-.29,0-.49-.23-.79-.2a7.14,7.14,0,0,0-.57,1.14c-.2.37-.37.76-.56,1.13S85.2,163.34,85,163.75Z"/><path class="cls-12" d="M127.62,165.1a1.91,1.91,0,0,1-.85.29l-.14-.28-1-2.79-.18-.45c-.3-.08-.51.14-.78.1a2.28,2.28,0,0,1-.31-.71.9.9,0,0,1,.19-.14l2.07-.72a1.11,1.11,0,0,1,.19,0,2.46,2.46,0,0,1,.28.74c-.18.21-.47.18-.67.33s0,.24,0,.35l1.14,3.1A1.24,1.24,0,0,1,127.62,165.1Z"/><path class="cls-12" d="M108.65,163.89s0,.08,0,.12c0,1.47,0,2.93-.09,4.39a.88.88,0,0,1,0,.2,3.31,3.31,0,0,1-.89,0,2.21,2.21,0,0,1,0-.29c0-1,0-2.05.07-3.08,0-.26,0-.53,0-.79s0-.37,0-.55A1.3,1.3,0,0,1,108.65,163.89Z"/><path class="cls-12" d="M124.26,166.25c-.06-.07-.11-.1-.12-.14-.46-1.4-.91-2.8-1.37-4.2,0-.06,0-.12,0-.19a3.32,3.32,0,0,1,.83-.26l0,0,0,0,1.35,4.21c0,.07,0,.15,0,.23A2.3,2.3,0,0,1,124.26,166.25Z"/><path class="cls-12" d="M132.9,174.64l-.22-.13a1,1,0,0,1-.43-.47.79.79,0,0,1,.19-1,1.26,1.26,0,0,1,.87-.39,1,1,0,0,1,1,1.12c0,.1-.06.21-.09.33s.15.11.23.15a1.22,1.22,0,0,1,.66,1.1.85.85,0,0,1-.07.41,1.23,1.23,0,0,1-1.1.67,1,1,0,0,1-1-.55,1.13,1.13,0,0,1-.1-1.11A.27.27,0,0,0,132.9,174.64Zm1.45.79a1.06,1.06,0,0,0-.31-.69.28.28,0,0,0-.34-.05.26.26,0,0,0-.15.26,1,1,0,0,0,.29.71.29.29,0,0,0,.34.07C134.29,175.7,134.35,175.58,134.35,175.43Zm-1.42-1.89a.68.68,0,0,0,.23.53.31.31,0,0,0,.31.05.25.25,0,0,0,.17-.25.64.64,0,0,0-.17-.51.32.32,0,0,0-.38-.09C133,173.31,132.94,173.42,132.93,173.54Z"/><path class="cls-12" d="M135.58,173.05a4.07,4.07,0,0,1,.35-.3.77.77,0,0,1,1.12.11,2.56,2.56,0,0,1,.59,1.1.9.9,0,0,1-.4,1l-.21.11a1,1,0,0,1-1.52-.55c.14-.2.39-.22.6-.33.1.1.18.19.27.27a.3.3,0,0,0,.35.05.28.28,0,0,0,.14-.32,1.62,1.62,0,0,0-.42-.87c-.14-.16-.45-.14-.51.06-.1.36-.39.39-.67.51-.06-.1-.12-.17-.16-.25-.23-.51-.46-1-.68-1.52a8.09,8.09,0,0,1,1.76-.82l.25.44c-.32.34-.82.35-1.13.68A1.14,1.14,0,0,0,135.58,173.05Z"/><path class="cls-12" d="M140.12,172.54a.74.74,0,0,1-.08.13.24.24,0,0,0,0,.3l.21.42c-.16.21-.4.25-.62.37l-.39-.54a1.1,1.1,0,0,0-.26.06c-.16.07-.3.16-.45.24a.84.84,0,0,1-.45.16,1.17,1.17,0,0,1-.34-.78c0-.68,0-1.36-.05-2.05a.43.43,0,0,1,.25-.45,1.23,1.23,0,0,1,.51-.18c.44.6.71,1.32,1.16,1.94h.35Zm-1.89-1a4.68,4.68,0,0,0,.09,1.32.83.83,0,0,0,.6-.3,4.75,4.75,0,0,0-.61-1S138.26,171.5,138.23,171.5Z"/><path class="cls-12" d="M107.68,181.58c-.36.06-.64.08-.87-.15a3.93,3.93,0,0,1-.46.18.68.68,0,0,1-.73-.17.75.75,0,0,1-.2-.77.86.86,0,0,1,.54-.6l.52-.21a1.41,1.41,0,0,0,.24-.13.25.25,0,0,0,.13-.32.25.25,0,0,0-.18-.19.29.29,0,0,0-.32.14,2,2,0,0,0-.12.21,1.36,1.36,0,0,1-.69,0,.69.69,0,0,1,.46-.74,1.67,1.67,0,0,1,1.28,0,.6.6,0,0,1,.39.54c0,.06,0,.12,0,.18Zm-.88-1.29c-.42,0-.6.19-.61.5a.28.28,0,0,0,.33.3.33.33,0,0,0,.3-.26A.83.83,0,0,0,106.8,180.29Z"/><path class="cls-12" d="M114.74,181.24l-.69.08a1.32,1.32,0,0,1-.08-.19c-.09-.75-.19-1.51-.28-2.26,0-.11,0-.21,0-.32a1.09,1.09,0,0,1,.61-.06s.09.08.15.15l.22-.16a.88.88,0,0,1,.47-.18.5.5,0,0,1,.55.32,1.69,1.69,0,0,1,.12.36c.09.65.17,1.29.26,1.94a1,1,0,0,1,0,.12,1.11,1.11,0,0,1-.73.1c0-.14,0-.27-.07-.41l-.15-1.25a2.71,2.71,0,0,0-.09-.41.21.21,0,0,0-.38,0,.82.82,0,0,0-.09.35c0,.2,0,.4.06.6s.09.65.13,1A2.57,2.57,0,0,1,114.74,181.24Z"/><path class="cls-12" d="M103.51,181.5a1.73,1.73,0,0,1-.68,0,.7.7,0,0,1,0-.18c.06-.8.12-1.61.17-2.42,0,0,0-.08,0-.16a.73.73,0,0,1,.8.2l.32-.14a.72.72,0,0,1,.46,0,.53.53,0,0,1,.42.44,2.46,2.46,0,0,1,0,.37l-.15,1.91a.37.37,0,0,1,0,.11,1.16,1.16,0,0,1-.73-.05c0-.13,0-.26,0-.38,0-.41.06-.83.09-1.25a2,2,0,0,0,0-.42.31.31,0,0,0-.14-.16.21.21,0,0,0-.25.09.71.71,0,0,0-.14.43c0,.45-.07.9-.11,1.35C103.56,181.29,103.53,181.4,103.51,181.5Z"/><path class="cls-12" d="M113.38,180.18c0,.24,0,.44-.08.64a.76.76,0,0,1-.57.62,1.67,1.67,0,0,1-.83,0,.69.69,0,0,1-.48-.4,2.87,2.87,0,0,1-.2-1.78.87.87,0,0,1,.79-.73l.33,0a.83.83,0,0,1,.87.68A9.45,9.45,0,0,1,113.38,180.18Zm-1.42-.43c0,.31.05.56.08.8a1.2,1.2,0,0,0,.08.27.21.21,0,0,0,.24.1.34.34,0,0,0,.18-.13.41.41,0,0,0,0-.22c0-.39,0-.77-.08-1.16a.5.5,0,0,0,0-.13.27.27,0,0,0-.25-.18.23.23,0,0,0-.22.2C112,179.47,112,179.64,112,179.75Z"/><path class="cls-12" d="M77.49,174.92a.9.9,0,0,1-.62-.28,16.29,16.29,0,0,1,1.21-2.44c.43.1.5.14.63.46l.31,0a.64.64,0,0,1,.48.14.49.49,0,0,1,.24.56,1.06,1.06,0,0,1-.1.3c-.28.59-.57,1.17-.86,1.76,0,0-.07.06-.11.11a1,1,0,0,1-.63-.27,8.61,8.61,0,0,1,.47-1c.1-.19.2-.38.29-.58a2,2,0,0,0,.1-.26c0-.1,0-.21-.08-.25a.39.39,0,0,0-.26,0c-.16,0-.23.19-.3.33l-.6,1.21A2.46,2.46,0,0,1,77.49,174.92Z"/><path class="cls-12" d="M123.75,179.66a1.26,1.26,0,0,1-.66.13,3.48,3.48,0,0,1-.26-.83c-.07-.31-.13-.61-.2-.92a.63.63,0,0,0-.07-.22.22.22,0,0,0-.22-.14.25.25,0,0,0-.21.16.63.63,0,0,0,0,.45c.1.43.2.85.29,1.27a3.79,3.79,0,0,1,.06.38,1.71,1.71,0,0,1-.71.16c0-.11-.08-.2-.11-.31l-.48-2.18a1.33,1.33,0,0,1,0-.2c.26-.13.52-.27.78,0a2.41,2.41,0,0,1,.46-.3.58.58,0,0,1,.86.37l.06.17.42,1.87A.94.94,0,0,1,123.75,179.66Z"/><path class="cls-12" d="M99.35,179.38c-.07.35-.11.7-.21,1a.88.88,0,0,1-1,.67,1.6,1.6,0,0,1-.49-.12.78.78,0,0,1-.48-.6,3,3,0,0,1,.29-1.85.75.75,0,0,1,.6-.39.82.82,0,0,1,.27,0c.7,0,1,.36,1,1.07a1.08,1.08,0,0,1,0,.18Zm-1.46.64a2.06,2.06,0,0,0,.06.39.2.2,0,0,0,.34.05,1.14,1.14,0,0,0,.15-.34c0-.35.08-.71.12-1.06a.59.59,0,0,0,0-.23.22.22,0,0,0-.38-.06.86.86,0,0,0-.12.3C98,179.38,97.93,179.68,97.89,180Z"/><path class="cls-12" d="M128.4,177l-1.16.38a.74.74,0,0,0,.2.67.34.34,0,0,0,.24.09.22.22,0,0,0,.22-.2,1.83,1.83,0,0,0,0-.33.9.9,0,0,1,.55-.19c.17.08.16.24.16.37a.75.75,0,0,1-.14.48,1.49,1.49,0,0,1-1.32.43.8.8,0,0,1-.49-.41,4.59,4.59,0,0,1-.48-1.45.74.74,0,0,1,.45-.88,1.55,1.55,0,0,1,.7-.21.82.82,0,0,1,.75.38A2,2,0,0,1,128.4,177Zm-.83-.22a.54.54,0,0,0-.14-.43.31.31,0,0,0-.47.05.5.5,0,0,0,.05.48c.11.09.23,0,.35,0Z"/><path class="cls-12" d="M84.3,176.77l.35.11c.24.09.27.19.14.38a.83.83,0,0,1-1,.41,1.61,1.61,0,0,1-.7-.36.63.63,0,0,1-.24-.62,3,3,0,0,1,.13-.54,9.88,9.88,0,0,1,.41-.94.82.82,0,0,1,.92-.47A2.25,2.25,0,0,1,85,175a.71.71,0,0,1,.38.69,1.71,1.71,0,0,1-.31.91.92.92,0,0,1-.48-.11l-.57-.21a.2.2,0,0,0-.27.12,3,3,0,0,0-.12.45.22.22,0,0,0,.14.26.3.3,0,0,0,.35,0C84.17,177,84.22,176.87,84.3,176.77Zm.27-.85a1.82,1.82,0,0,0,.11-.3.26.26,0,0,0-.15-.3.29.29,0,0,0-.37.1.34.34,0,0,0-.06.37c.08,0,.17.08.27.11A.62.62,0,0,0,84.57,175.92Z"/><path class="cls-12" d="M95.42,179.21c-.47,0-.87-.18-1.28-.17a.87.87,0,0,0-.14.55.28.28,0,0,0,.22.32c.11,0,.22,0,.31-.14a2.55,2.55,0,0,0,.14-.24,1.24,1.24,0,0,1,.6.15.64.64,0,0,1-.25.57.84.84,0,0,1-.69.23,3.64,3.64,0,0,1-.71-.22.68.68,0,0,1-.38-.7,4.52,4.52,0,0,1,.33-1.54.83.83,0,0,1,.72-.52,1.35,1.35,0,0,1,1.08.34.67.67,0,0,1,.23.54A2.48,2.48,0,0,1,95.42,179.21Zm-1.22-.68.45.13a.16.16,0,0,0,.2-.14.82.82,0,0,0,0-.27.28.28,0,0,0-.51-.1A4,4,0,0,0,94.2,178.53Z"/><path class="cls-12" d="M92.11,178.88a2,2,0,0,1,.62.15.66.66,0,0,1-.19.6A.92.92,0,0,1,92,180a1.42,1.42,0,0,1-.92-.26.71.71,0,0,1-.33-.54,2.36,2.36,0,0,1,0-.46,4.24,4.24,0,0,1,.33-1.17.87.87,0,0,1,1-.55l.32.08a.82.82,0,0,1,.54,1.19,1.28,1.28,0,0,1-.63-.11l0-.37a.23.23,0,0,0-.18-.2.25.25,0,0,0-.28.12.56.56,0,0,0-.07.16c-.08.38-.17.76-.24,1.14a.45.45,0,0,0,0,.23.31.31,0,0,0,.15.15.26.26,0,0,0,.21-.08C92,179.18,92,179,92.11,178.88Z"/><path class="cls-12" d="M125.39,178.23a1.56,1.56,0,0,1,.24-.11l.4-.09a.8.8,0,0,1-.3,1.2,1.1,1.1,0,0,1-.42.17.86.86,0,0,1-1.11-.53,3.21,3.21,0,0,1-.38-1.38.81.81,0,0,1,.65-.94l.27-.07c.6-.1,1,.15,1.08.8a1,1,0,0,1-.62.16,3.21,3.21,0,0,0-.21-.3.24.24,0,0,0-.3-.06.22.22,0,0,0-.12.23,1.33,1.33,0,0,0,0,.28c.1.34.2.68.31,1s.2.28.34.24.17-.14.17-.35S125.4,178.34,125.39,178.23Z"/><path class="cls-12" d="M119.53,178.5l-.53.1a2.8,2.8,0,0,0-.22-.25.28.28,0,0,0-.38,0,.27.27,0,0,0,.1.4,2.65,2.65,0,0,0,.3.11l.58.2a.87.87,0,0,1,.15,1.44,1.29,1.29,0,0,1-1.16.19.77.77,0,0,1-.47-.43c-.09-.18,0-.29.17-.33l.35,0,.2.23a.32.32,0,0,0,.31.08.24.24,0,0,0,.21-.21.27.27,0,0,0-.11-.29l-.26-.1-.54-.16a.91.91,0,0,1-.44-.34.77.77,0,0,1,.35-1.22,1.37,1.37,0,0,1,.82-.09,1.23,1.23,0,0,1,.41.21A.44.44,0,0,1,119.53,178.5Z"/><path class="cls-12" d="M82.51,174.88c0-.08,0-.18,0-.27a.27.27,0,0,0-.36-.19.25.25,0,0,0-.15.34,1.65,1.65,0,0,0,.19.27c.12.16.25.31.37.48a.73.73,0,0,1,0,.87.77.77,0,0,1-.76.44,1.3,1.3,0,0,1-.89-.35.92.92,0,0,1-.24-.39.44.44,0,0,1,.07-.48c.14-.12.29,0,.43.05l.15.08,0,.26a.29.29,0,0,0,.31.28.24.24,0,0,0,.25-.3.72.72,0,0,0-.12-.25c-.08-.11-.19-.21-.27-.32a2,2,0,0,1-.25-.39.82.82,0,0,1,.82-1.13,1.29,1.29,0,0,1,.87.4.63.63,0,0,1,.19.37.5.5,0,0,1-.11.45A1.32,1.32,0,0,1,82.51,174.88Z"/><path class="cls-12" d="M87.67,176a1.19,1.19,0,0,1,.69.18c0,.52-.19,1-.19,1.56.08,0,.14-.05.16-.08.14-.25.26-.5.39-.75s.18-.35.27-.54a1.56,1.56,0,0,1,.67.21A17.07,17.07,0,0,1,88.18,179l-.74-.22a3.65,3.65,0,0,1,0-.94c0-.31.06-.62.09-.93S87.63,176.31,87.67,176Z"/><path class="cls-12" d="M131.6,177.31a11.51,11.51,0,0,1-.51-1.21c-.17-.38-.26-.79-.46-1.15-.27-.06-.46.14-.71.13a.46.46,0,0,1-.17-.42c.34-.22.75-.41.7-.93l.49-.18a1.91,1.91,0,0,1,.16.27,4.78,4.78,0,0,1,.19.48l1,2.72A1.38,1.38,0,0,1,131.6,177.31Z"/><path class="cls-12" d="M100.58,181.27a2.1,2.1,0,0,1-.68-.06.61.61,0,0,1,0-.46c0-.37.1-.74.14-1.11,0-.19,0-.39,0-.59l-.25-.18a.57.57,0,0,1,.06-.44l.28-.09c0-.1,0-.21.08-.31a.64.64,0,0,1,.65-.5l.27,0,.22.08c0,.25,0,.44-.26.52-.09,0-.09,0-.14.28l.29.17,0,.42-.34.1Z"/><path class="cls-12" d="M108.27,178a2.26,2.26,0,0,1,.72,0c.16.23,0,.49.14.73l.27.11a.44.44,0,0,1,0,.42l-.29.12a.42.42,0,0,0,0,.12c0,.34,0,.68,0,1s0,.6.39.6v.41a.74.74,0,0,1-.59.11.59.59,0,0,1-.56-.54,4.2,4.2,0,0,1,0-.51c0-.37,0-.74,0-1.12-.09-.08-.22-.13-.27-.23a1,1,0,0,1,0-.35l.27-.17Z"/><path class="cls-12" d="M76.17,174.34l-.36-.16-.33-.2c.29-.58.6-1.11.91-1.64s.6-1.08.92-1.64a4.23,4.23,0,0,1,.74.36c0,.07,0,.13,0,.18L76.46,174C76.39,174.09,76.35,174.25,76.17,174.34Z"/><path class="cls-12" d="M87.31,175.78l-.21.63s-.08.06-.1.05c-.39-.11-.53,0-.66.39s-.27.77-.4,1.15c0,.07,0,.14-.08.22a1.26,1.26,0,0,1-.68-.2,3.72,3.72,0,0,1,.24-.9c.09-.28.19-.56.29-.84a4.59,4.59,0,0,1,.33-.89c.29.06.61,0,.66.43C87.1,175.7,87.1,175.7,87.31,175.78Z"/><path class="cls-12" d="M110.71,181.53H110a.65.65,0,0,1-.06-.23c0-.76,0-1.52,0-2.28,0-.08,0-.15,0-.25l.33,0,.34,0a.9.9,0,0,1,.07.27c0,.77,0,1.55.07,2.33A.71.71,0,0,1,110.71,181.53Z"/><path class="cls-12" d="M90,176.55a2.43,2.43,0,0,1,.63.17,13.71,13.71,0,0,1-.71,2.65.88.88,0,0,1-.65-.15A13.9,13.9,0,0,1,90,176.55Z"/><path class="cls-12" d="M120.49,177.55a2.85,2.85,0,0,1,.14.41c.16.74.36,1.48.47,2.24a.84.84,0,0,1-.65.17,13.44,13.44,0,0,1-.65-2.61.71.71,0,0,1,.17-.11C120.12,177.61,120.27,177.59,120.49,177.55Z"/><path class="cls-12" d="M90.31,175.59l.6.15a.88.88,0,0,1-.13.61,2,2,0,0,1-.65-.17A.81.81,0,0,1,90.31,175.59Z"/><path class="cls-12" d="M120.28,176.6a.94.94,0,0,1,.12.53,1,1,0,0,1-.68.15.74.74,0,0,1-.1-.53A1.22,1.22,0,0,1,120.28,176.6Z"/><path class="cls-12" d="M110.65,178.35a1.57,1.57,0,0,1-.68,0,.75.75,0,0,1,0-.55,1.06,1.06,0,0,1,.68,0A.82.82,0,0,1,110.65,178.35Z"/><path class="cls-12" d="M78.4,98.9a3,3,0,0,1,.36.13l1.6.76c.71.32,1.41.66,2.13.94s1.56.55,2.34.81a19.3,19.3,0,0,0,2.36.57,18.87,18.87,0,0,0,4.56.32,17,17,0,0,0,3-.44,16.65,16.65,0,0,0,3.8-1.39A20.16,20.16,0,0,0,101,99.12a25.1,25.1,0,0,0,3.23-2.68c.66-.64,1.27-1.33,1.89-2,.34-.36.67-.74,1-1.13.1.1.19.18.27.27.64.68,1.26,1.38,1.9,2.06a25.36,25.36,0,0,0,2.47,2.28c.61.49,1.23,1,1.88,1.39a18.5,18.5,0,0,0,5.3,2.49,17.33,17.33,0,0,0,3.12.58,20,20,0,0,0,7.52-.84l.49-.15a27.91,27.91,0,0,0,4-1.62l1.51-.73c.11-.05.23-.08.38-.13,0,.1.05.17.06.24.12,1,.24,2,.35,3,.09.8.16,1.61.22,2.42s.11,1.55.14,2.33c0,1.4.09,2.8.08,4.2,0,1.7-.08,3.4-.22,5.09-.1,1.16-.26,2.32-.42,3.48-.23,1.63-.55,3.25-.94,4.86-.24,1-.51,2-.83,3s-.6,1.84-.95,2.74c-.41,1.07-.85,2.13-1.35,3.17-.4.82-.8,1.62-1.23,2.41s-1,1.77-1.56,2.61-1.06,1.58-1.63,2.34-1.31,1.66-2,2.46-1.32,1.45-2,2.14a38.58,38.58,0,0,1-3.16,2.84c-.83.67-1.66,1.32-2.53,1.92s-1.48,1-2.23,1.45-1.66,1-2.5,1.47c-.54.31-1.1.58-1.66.85-1.21.61-2.46,1.14-3.7,1.67a.9.9,0,0,1-.8,0c-1.39-.58-2.78-1.18-4.13-1.86q-1.55-.76-3-1.65c-.72-.43-1.42-.89-2.13-1.35-1-.66-2-1.38-2.95-2.13s-2.09-1.72-3.08-2.64a42.08,42.08,0,0,1-3.43-3.64c-.71-.85-1.4-1.71-2-2.62-.51-.73-1-1.46-1.49-2.21s-.85-1.45-1.25-2.19a39.91,39.91,0,0,1-2.09-4.38q-.63-1.56-1.17-3.15A46.36,46.36,0,0,1,79,122.39a53.12,53.12,0,0,1-.92-5.76c-.15-1.38-.26-2.76-.32-4.14s-.09-3,0-4.58.12-3,.23-4.48.28-2.88.42-4.32A1.43,1.43,0,0,1,78.4,98.9Zm24.59.5v.52c0,1.16,0,2.31,0,3.46q.06,7.78.11,15.56c0,1.61,0,3.21,0,4.82,0,.51,0,.43-.37.78s-1.16.94-1.74,1.41l-4,3.29-2.63,2.16-1.7,1.39-1.77,1.45-2.42,2-1.59,1.29c-.06,0-.1.11-.15.16a33.32,33.32,0,0,0,4.93,6.1,1.46,1.46,0,0,0,.52-.37c.68-.55,1.34-1.11,2-1.67l2.58-2.09,2.55-2.11c.76-.63,1.52-1.24,2.27-1.87l2.52-2.09,2.85-2.34a1,1,0,0,1,.5-.29c.14.12.31.24.46.36l.94.78,3.36,2.74,3.11,2.54,3.16,2.56,4.56,3.72.25.16a23,23,0,0,0,1.77-1.94c.54-.66,1.09-1.32,1.6-2a18.36,18.36,0,0,0,1.49-2.16l-.29-.27-3.22-2.62-2.91-2.35-2.61-2.11L116,127.78c-1.36-1.09-2.71-2.19-4.08-3.28a.78.78,0,0,1-.32-.67c0-1.1,0-2.21,0-3.31l-.09-16.08c0-1.56,0-3.11,0-4.67a.64.64,0,0,0-.3-.63A.88.88,0,0,1,111,99a30.41,30.41,0,0,1-2.45-2.23c-.38-.39-.74-.8-1.12-1.19a2.76,2.76,0,0,0-.28-.22l-1,1.07c-.33.36-.67.69-1,1s-.71.66-1.07,1Zm-1.49,1.13-.41.2-1.24.74a19.63,19.63,0,0,1-3.11,1.38,17.53,17.53,0,0,1-1.88.54,19.12,19.12,0,0,1-7.15.21,22.53,22.53,0,0,1-4.12-1c-.38-.14-.77-.25-1.14-.4l-2.62-1.12c-.09,0-.17-.09-.29,0s-.05.31-.07.48c-.18,1.74-.28,3.48-.37,5.22,0,.67,0,1.34-.06,2,0,1.71,0,3.42.15,5.13a56.4,56.4,0,0,0,1,7.68c.22,1.07.46,2.13.76,3.18s.59,2,.92,3c.22.64.45,1.29.7,1.93.44,1.09.92,2.18,1.44,3.24s1.11,2.16,1.74,3.19a1.29,1.29,0,0,0,.2.21l.42-.33.86-.71,3.26-2.65,3.14-2.59,3.87-3.15,3.68-3c.56-.46.47-.31.46-1q0-7-.08-14c0-2.58,0-5.17,0-7.75C101.51,101,101.5,100.81,101.5,100.53Zm11.45,0v.74q.06,6.28.1,12.57c0,3,0,6.1.06,9.16,0,.53,0,.53.42.86l0,0,3.37,2.72,1.17.94c.07.06.14.13.25,0a.57.57,0,0,0,0-.13,2.18,2.18,0,0,1,.06-.88c.16-.64.32-1.3.47-2,0-.16.06-.33.09-.48s-.1-.13-.15-.17a1.12,1.12,0,0,1-.35-.69c0-.34-.1-.68-.17-1a14.09,14.09,0,0,1-.24-3.49,8.78,8.78,0,0,1,.52-2.64,4.89,4.89,0,0,1,1.36-2,4.45,4.45,0,0,1,2.06-1c.15,0,.29-.08.45-.12l1.15-3.21a.32.32,0,0,0,0-.14.91.91,0,0,0-.83-.21,2.6,2.6,0,0,1-1.11,0,1.26,1.26,0,0,1-1-1.14,3,3,0,0,1,.11-1.16,12.16,12.16,0,0,1,.82-2,1.41,1.41,0,0,1,1-1c.1-.05.2-.08.3-.12a.42.42,0,0,0,.13-.07l-.1-.09-.47,0a16.07,16.07,0,0,1-3-.43,19.17,19.17,0,0,1-4.69-1.8c-.51-.28-1-.58-1.5-.86A2.47,2.47,0,0,0,113,100.56ZM92.83,144.92c.06.07.1.14.15.19.61.54,1.19,1.1,1.82,1.6,1,.78,2,1.54,3,2.26a39.42,39.42,0,0,0,3.91,2.45c.94.51,1.9,1,2.87,1.47s1.8.84,2.73,1.2a.68.68,0,0,0,.54,0c.37-.16.75-.3,1.12-.47,1-.46,2-.92,2.94-1.41.6-.3,1.19-.61,1.77-.95.75-.44,1.49-.9,2.22-1.37s1.51-1,2.24-1.53,1.31-1,1.94-1.52,1.29-1.13,1.93-1.7a2.94,2.94,0,0,0,.2-.26l-.16-.19-.8-.65-1.89-1.53-2.6-2.12-2.31-1.89-2-1.66-1.56-1.26L107.7,133a2.53,2.53,0,0,0-.27-.18l-.21.14L93,144.69l-.1.1A.85.85,0,0,0,92.83,144.92Zm36.75-20.83-.17.06a1.32,1.32,0,0,0-.2.12,12.12,12.12,0,0,1-3.05,1.48,11.58,11.58,0,0,1-2.78.59,1.74,1.74,0,0,0-.68.11c-.2.48-.43.94-.59,1.43a1.66,1.66,0,0,1-.68.91,1.93,1.93,0,0,1-.88.41.65.65,0,0,0-.22.11c0,.06,0,.1,0,.11l8.29,6.75.19.13.15.06c.06-.08.12-.14.17-.22.38-.69.78-1.38,1.15-2.08.27-.52.52-1.06.77-1.6s.54-1.18.78-1.79c.36-.9.69-1.8,1-2.71a2,2,0,0,0,.18-.7s-.06-.06-.09-.07a5.29,5.29,0,0,1-1.66-1.27l-1-1.07A6.25,6.25,0,0,0,129.58,124.09Zm5.83-9.77a.7.7,0,0,0,0-.14c0-.35,0-.71.05-1.07a73.17,73.17,0,0,0-.52-11.93.91.91,0,0,0-.08-.18,2.89,2.89,0,0,0-.54.21c-.63.27-1.25.55-1.89.8a27,27,0,0,1-3.63,1.19,21,21,0,0,1-2.85.51l-1.67.13c-.07,0-.17,0-.16.13a2.62,2.62,0,0,1,1.29,1,.66.66,0,0,0,.39.23,11.33,11.33,0,0,1,1.81.61,8,8,0,0,1,2.68,1.83c.29.3.55.64.81,1,.09.11.16.24.32.25.32,0,.51.26.75.44a1.29,1.29,0,0,1,.46,1,1.91,1.91,0,0,1-1.51,1.88,2.27,2.27,0,0,1-1.29-.1c-.6-.19-1.19-.44-1.8-.65a3.27,3.27,0,0,0-.87-.25,5.78,5.78,0,0,0-.29,1,3.63,3.63,0,0,0-.2,1.06l.44,0c.51,0,1,.07,1.53.15a4.17,4.17,0,0,1,2.32,1.11l.56.58.36,0,3-.57A1,1,0,0,0,135.41,114.32Zm-12,.41a1.66,1.66,0,0,0,1.1,1.14,2.05,2.05,0,0,0,.65.1,1,1,0,0,1,.83.42c.75.87,1.53,1.72,2.3,2.58a2.22,2.22,0,0,1,.11.22,9.68,9.68,0,0,1-.94.87c-.56-.54-1-1.15-1.58-1.69l-.14.23a4.1,4.1,0,0,1-.36.53.54.54,0,0,0-.15.56,1.85,1.85,0,0,1,0,1.14,2.11,2.11,0,0,0,0,1.06,2.81,2.81,0,0,1-.6,2.45.59.59,0,0,1-.52.23,5.89,5.89,0,0,0-.84,0,3.12,3.12,0,0,1-1.32-.19c-.35-.11-.68-.25-1-.36a1.23,1.23,0,0,0-.29,0l-.25,1.16c-.14.59-.28,1.18-.43,1.77a.8.8,0,0,0,0,.59.31.31,0,0,0,.38.19.67.67,0,0,0,.49-.45c.24-.62.49-1.24.74-1.86l.19-.45a1,1,0,0,1,.18,0c.56,0,1.11-.08,1.67,0a1.13,1.13,0,0,0,.32,0l.36-.08a11.45,11.45,0,0,0,4.13-1.67,1.1,1.1,0,0,0,.51-.68c.27-1.06.57-2.1.86-3.15.08-.29.17-.57.25-.85l.5-1.85a.4.4,0,0,0-.05-.35,2.78,2.78,0,0,0-1.11-1,4.65,4.65,0,0,0-1.76-.39h-1.82c-.66,0-1.31,0-2-.06ZM122.05,108a1.46,1.46,0,0,0,.86-.06.92.92,0,0,1,.67.08c.54.25,1.08.48,1.63.72.81.34,1.63.69,2.45,1s1.63.63,2.45.93a2.48,2.48,0,0,0,.54.12.6.6,0,0,0,.57-.26.22.22,0,0,0-.11-.37,2.42,2.42,0,0,0-.36-.1.66.66,0,0,1-.5-.37,6.56,6.56,0,0,0-2.77-2.5,8.85,8.85,0,0,0-2.34-.79.81.81,0,0,1-.66-.45,1.3,1.3,0,0,0-.21-.31,1.67,1.67,0,0,0-.34-.31.8.8,0,0,0-1.09.31c-.24.52-.47,1-.68,1.58A1.36,1.36,0,0,0,122.05,108Zm-.14,6.71a.55.55,0,0,0-.13,0,.58.58,0,0,0-.17.06,3,3,0,0,0-1.21,1.07c-.11.18-.11.27,0,.41a9.74,9.74,0,0,0,.83.74,5.52,5.52,0,0,0,2.15,1,5.72,5.72,0,0,0,.83.12.22.22,0,0,0,.27-.19.92.92,0,0,0,0-.59A3.43,3.43,0,0,1,121.91,114.75Zm3.91-4.07a5.54,5.54,0,0,0-.85-.41c0,.07-.11.11-.12.17-.31.84-.62,1.69-.92,2.53a.85.85,0,0,0,0,.23,3.55,3.55,0,0,0,1.25.06A13,13,0,0,0,125.82,110.68Zm-6,7a1,1,0,0,0-.1.21.44.44,0,0,0,.18.56c.32.2.62.41.94.6a5.25,5.25,0,0,0,2.24.7.69.69,0,0,0,.45-.06s.08-.09.14-.16c-.49-.14-1-.26-1.4-.42a5.79,5.79,0,0,1-1.26-.59Zm1.41,4.86a.26.26,0,0,0,0,.07s.08.1.13.12a6.13,6.13,0,0,0,2,.53.59.59,0,0,0,.23,0,.36.36,0,0,0,.19-.11.49.49,0,0,0,0-.52c-.43,0-.85.06-1.27,0S121.63,122.54,121.2,122.5ZM119.63,120c-.08.21-.07.36.12.46l.62.32a5.05,5.05,0,0,0,2.39.48c.08,0,.2,0,.2-.1-.39-.07-.77-.13-1.14-.23a9.05,9.05,0,0,1-1.14-.4C120.33,120.34,120,120.14,119.63,120Z"/><path class="cls-12" d="M107,128.15a1.39,1.39,0,1,1,1.34-1.39A1.4,1.4,0,0,1,107,128.15Z"/><path class="cls-12" d="M97.2,132.35a1.42,1.42,0,0,1,1.37,1.42,1.39,1.39,0,0,1-1.38,1.35,1.42,1.42,0,0,1-1.37-1.42A1.45,1.45,0,0,1,97.2,132.35Z"/><path class="cls-12" d="M108.24,106.33a1.37,1.37,0,0,1-1.34,1.38,1.4,1.4,0,0,1-1.39-1.4,1.37,1.37,0,1,1,2.73,0Z"/><path class="cls-12" d="M105.57,115.78a1.37,1.37,0,1,1,1.36,1.42A1.38,1.38,0,0,1,105.57,115.78Z"/><path class="cls-12" d="M118.39,133.74a1.39,1.39,0,0,1-1.35,1.38,1.39,1.39,0,1,1,1.35-1.38Z"/><path class="cls-12" d="M83.53,121.48c.55-3.57,1-7.15,1.54-10.73l.37-.09c.1-.35.19-.7.3-1a1.66,1.66,0,0,1,1.34-1.15.41.41,0,0,1,.19,0,1.91,1.91,0,0,1,.94.47,2.41,2.41,0,0,1,.54.86,1.44,1.44,0,0,0,.16.33c.88-.81,1-.69,1.38-.75a1.76,1.76,0,0,1,1.43.51,1.5,1.5,0,0,0,.13-.23,2.09,2.09,0,0,1,.5-.77,1.25,1.25,0,0,1,.47-.31,1.33,1.33,0,0,1,1.49.34,3,3,0,0,1,.77,1.41,2.5,2.5,0,0,1,0,.29c.1,0,.22.07.27.15a.77.77,0,0,1,.12.34l.45,2.53c.25,1.39.51,2.78.76,4.18.14.78.27,1.56.41,2.34.07.4.15.8.23,1.19a.34.34,0,0,0,.23.27,1.39,1.39,0,0,1,.66.56,1.9,1.9,0,0,1-.19,2.34,1.25,1.25,0,0,1-.78.39,3.54,3.54,0,0,1-.46,0H83.89a1.5,1.5,0,0,1-1.5-1.22,1.8,1.8,0,0,1,.34-1.67,1.29,1.29,0,0,1,.55-.43A2,2,0,0,0,83.53,121.48Zm.2,2a1.63,1.63,0,0,0,.6.06H96.85l.24,0a.58.58,0,0,0,.07-.11.61.61,0,0,0,0-.13c0-.31-.06-.39-.36-.41H84c-.21,0-.28.08-.29.28A2.38,2.38,0,0,0,83.73,123.5Zm8.17-4.58c-.21-.09-.38-.22-.59-.16l-1.14.32a2.1,2.1,0,0,0,0,.87,2.35,2.35,0,0,0,1.71,0A3.16,3.16,0,0,0,91.9,118.92Zm-2.66-1.75a1.33,1.33,0,0,0,0,.88,2.11,2.11,0,0,0,1.69,0,1.77,1.77,0,0,0,0-.92c-.2-.07-.4-.15-.61-.21a.45.45,0,0,0-.23,0Zm-1.26-1a2,2,0,0,0,1.78.06,1.78,1.78,0,0,0,0-.89l-.5-.16a.63.63,0,0,0-.23,0l-1,.28Zm-2.07-4.48a3.29,3.29,0,0,0-.14.79.2.2,0,0,0,.14.22,2.1,2.1,0,0,0,1.42.06.27.27,0,0,0,.2-.23,1.65,1.65,0,0,0,0-.85C87,111.63,86.44,111.62,85.91,111.65Zm6.87,8.29a2,2,0,0,0,1.63,0,3.59,3.59,0,0,0-.1-1.07,1.43,1.43,0,0,0-.45-.06c-.36.06-.71.17-1.08.27A2.54,2.54,0,0,0,92.78,119.94Zm-3.47.07c0-.31,0-.61,0-.9a.23.23,0,0,0-.24-.28.88.88,0,0,0-.28,0l-1,.26a3.21,3.21,0,0,0-.11,1A2.46,2.46,0,0,0,89.31,120Zm1.3-4.66c0,.25,0,.46,0,.68a.24.24,0,0,0,.18.24,2.18,2.18,0,0,0,1.29,0,.24.24,0,0,0,.17-.2,2.48,2.48,0,0,0,0-.77,1.13,1.13,0,0,0-1.17-.09A1.85,1.85,0,0,1,90.61,115.35ZM91.82,118a2.19,2.19,0,0,0,1.23.15c.35,0,.43-.15.41-.49a1.12,1.12,0,0,0-.08-.52,1.63,1.63,0,0,0-1.58,0A1.93,1.93,0,0,0,91.82,118Zm-3.15-4.46-.66-.19a.59.59,0,0,0-.23,0l-.85.24a1,1,0,0,0-.06.64,1.78,1.78,0,0,0,1.12.27.86.86,0,0,0,.69-.25A2.13,2.13,0,0,0,88.67,113.58Zm3.19,0c0,.16,0,.27,0,.37s0,.21,0,.3a1.86,1.86,0,0,0,1.18.25.75.75,0,0,0,.57-.25l0-.68-.81-.25h-.13Zm-1.92-1.94a3.57,3.57,0,0,0-.79,0c-.25,0-.52-.08-.79.09,0,.24,0,.49,0,.74a.26.26,0,0,0,.22.26,2,2,0,0,0,1.1,0,.31.31,0,0,0,.27-.33C90,112.18,89.94,112,89.94,111.67Zm3.2.92a1.74,1.74,0,0,0,1.35.16.23.23,0,0,0,.2-.27,1.81,1.81,0,0,0-.17-.84h-.68a1.42,1.42,0,0,0-.7.08Zm-6.26,7.5a5.22,5.22,0,0,0,.15-1,.19.19,0,0,0-.12-.17.47.47,0,0,0-.31,0c-.29.07-.59.17-.9.27a2.64,2.64,0,0,0-.13,1A1.9,1.9,0,0,0,86.88,120.09Zm3.93-8.45a3.29,3.29,0,0,0,0,.93.25.25,0,0,0,.14.16,1.86,1.86,0,0,0,1.19,0c.06,0,.15-.1.15-.16a2.17,2.17,0,0,0,0-.88l-.29,0Zm-2.49,6.51a4.42,4.42,0,0,0,0-1,1.27,1.27,0,0,0-.66-.17c-.27.06-.53.16-.8.24,0,.21-.06.39-.08.57a.24.24,0,0,0,.14.27A1.85,1.85,0,0,0,88.32,118.15Zm2.75-3.8,0-.72c-.75-.31-.72-.32-1.51,0,0,.15,0,.32,0,.49s.08.33.32.37a2.17,2.17,0,0,0,.88,0C90.81,114.48,90.92,114.41,91.07,114.35Zm3.27,3.7a1.85,1.85,0,0,0,1.14,0c.16,0,.21-.1.19-.26s-.1-.52-.14-.75a1.09,1.09,0,0,0-1.29.08A2.68,2.68,0,0,0,94.34,118.05Zm-1.28-2.66a3,3,0,0,0,0,.89,1.69,1.69,0,0,0,1.32-.09,2.35,2.35,0,0,0,0-.8A1.39,1.39,0,0,0,93.06,115.39Zm-6,.9a2.22,2.22,0,0,0,.07-1c-.44-.3-.81-.08-1.19.09a1.65,1.65,0,0,0,0,.66A1.28,1.28,0,0,0,87.1,116.29ZM85,118a1.07,1.07,0,0,0,.73.22A.26.26,0,0,0,86,118c0-.26.08-.52.1-.78a.26.26,0,0,0-.35-.29,1.53,1.53,0,0,0-.64.25Zm7.79-7.35a5.23,5.23,0,0,0,1.25,0,1.56,1.56,0,0,0-.41-.94.37.37,0,0,0-.63.07A1.25,1.25,0,0,0,92.77,110.68Zm-6.16,0a6.53,6.53,0,0,0,1.25,0,1.41,1.41,0,0,0-.42-1,.34.34,0,0,0-.56,0A1.3,1.3,0,0,0,86.61,110.67Zm8.6,8.29a2.14,2.14,0,0,0,.1,1.07,1.6,1.6,0,0,0,.84,0A5,5,0,0,0,96,119s0-.07-.1-.12Zm-.64-4.46.18,0a.31.31,0,0,0,.17,0c.07-.06.18-.13.17-.2a1.43,1.43,0,0,0-.13-.79c-.46,0-.5.06-.48.45A1.18,1.18,0,0,0,94.57,114.5Zm-8.91-1.06c-.06.31-.12.56-.16.82s0,.28.25.28a1,1,0,0,0,.22-.05,2.34,2.34,0,0,0,.11-.95Zm-.84,5.41c-.2.8-.21.93-.06,1.21a.35.35,0,0,0,.08-.1,2.41,2.41,0,0,1,.09-.59,1.14,1.14,0,0,0,0-.45S84.88,118.89,84.82,118.85Zm10.44-3.54a1.31,1.31,0,0,0,0,.68.16.16,0,0,0,0,.08.24.24,0,0,0,.12,0,.09.09,0,0,0,.06-.06A1.42,1.42,0,0,0,95.26,115.31Zm-4.45-4.65c-.09-.22-.27-.19-.43-.19s-.27,0-.32.22A2.1,2.1,0,0,0,90.81,110.66Z"/><path class="cls-12" d="M116.67,142.86l-4.08,8.55a.76.76,0,0,1-.54-.24l0-.29-.32-.19-.16-.09c-.18-.14-.31-.34-.56-.38s-.44-.16-.66-.23a15.36,15.36,0,0,0-3.68-.59c-.62,0-1.25,0-1.87,0a1.23,1.23,0,0,0-.79.21.81.81,0,0,1-.57-.35,1.28,1.28,0,0,0-.36-.29,10.74,10.74,0,0,0-3.64-1.86,7.81,7.81,0,0,0-1.28-.24c-.54-.06-1.08-.07-1.66-.11,0-.1,0-.2.06-.26L98.84,143c.76-1.18,1.51-2.36,2.27-3.53.37-.59.76-1.18,1.15-1.78a1.55,1.55,0,0,1,.31,0,10.68,10.68,0,0,1,2.33.09,9.37,9.37,0,0,1,3.64,1.37,1.6,1.6,0,0,0,1.34.34,8.22,8.22,0,0,1,3.7.63,8.06,8.06,0,0,1,2,1.25.32.32,0,0,1,.1.1,1.47,1.47,0,0,0,.62.48s.09.08.16.13l-.18.57ZM97.89,146a3.43,3.43,0,0,0,.83.14,9.43,9.43,0,0,1,2.87,1,11.67,11.67,0,0,1,2,1.26.66.66,0,0,0,.26.08c.32-.58.62-1.14.92-1.7s.61-1.16.92-1.73.61-1.13.91-1.69.61-1.15.92-1.73.62-1.11.88-1.71l-.13-.09a7.55,7.55,0,0,0-1.84-.92,9.75,9.75,0,0,0-3.4-.52.52.52,0,0,0-.53.29,1.33,1.33,0,0,1-.14.19l-1.2,1.89c-1,1.51-1.93,3-2.88,4.53A2.16,2.16,0,0,0,97.89,146Zm16.75-4.3-.29-.23a6.45,6.45,0,0,0-3-1.12,11.7,11.7,0,0,0-2,0,.46.46,0,0,0-.38.24,2,2,0,0,0-.11.2c-.4.74-.8,1.48-1.19,2.22l-1.41,2.64-1.33,2.52c0,.09-.13.18,0,.31h.35a21.91,21.91,0,0,1,2.43.07,15.46,15.46,0,0,1,2.93.56.8.8,0,0,0,.51.07,3.14,3.14,0,0,0,.18-.31c1.11-2.28,2.22-4.57,3.32-6.85a.49.49,0,0,0,.06-.17A.68.68,0,0,0,114.64,141.71Z"/><path class="cls-12" d="M102.47,140.94c.47-.63,1-1.2,1.41-1.75a18.1,18.1,0,0,1,2.45,1.28,18,18,0,0,1-.61,1.84c-.21.63-.44,1.26-.66,1.89s-.43,1.23-.65,1.87c-.27.05-.52.12-.78.16a2.59,2.59,0,0,1-2.09-.6,6.44,6.44,0,0,1-.68-.7c0-.07-.11-.18-.08-.25.2-.67.38-1.35.64-2a2.13,2.13,0,0,1,1,.18.76.76,0,0,1,0,.26c-.08.29-.18.59-.28.89a2.6,2.6,0,0,0-.1.4.5.5,0,0,0,.08.26,1.56,1.56,0,0,0,1.31.49.35.35,0,0,0,.31-.24,1.87,1.87,0,0,0,.07-.22l.32-.93a.54.54,0,0,0-.07-.53c-.34-.48-.66-1-1-1.47Zm2.55,0-.48-.29c-.35-.19-.41-.18-.63.17a.75.75,0,0,0-.08.18,5.22,5.22,0,0,0,.69,1s.09,0,.15,0A4.57,4.57,0,0,0,105,141Z"/><path class="cls-12" d="M114.13,142.11a5.47,5.47,0,0,1-.49.73l.12.23,0,.09a2.35,2.35,0,0,0-.58.84c0,.09-.13.16-.2.25a1.61,1.61,0,0,0-.38.63c0,.11-.15.19-.22.29s-.32.34-.32.61c0,.09-.1.18-.17.27l-.33.4.13.31-.57.69a14.3,14.3,0,0,1-1.5-.38l-1.44-.39c-.49-.14-1-.25-1.49-.42.09-.31.34-.48.48-.74l-.14-.27c.09-.11.19-.21.27-.32s.22-.22.23-.34a1,1,0,0,1,.35-.63,1,1,0,0,0,.23-.4,1.08,1.08,0,0,1,.22-.35,1.88,1.88,0,0,0,.38-.58,1.91,1.91,0,0,1,.24-.34l.31-.39-.1-.31.54-.65a13,13,0,0,1,2.24.56C112.64,141.72,113.39,141.83,114.13,142.11Z"/><text class="cls-17" transform="translate(428.16 63.17)">COEP <tspan class="cls-18" x="76.84" y="0">T</tspan><tspan x="95.28" y="0">e</tspan><tspan class="cls-19" x="107.47" y="0">c</tspan><tspan x="119.06" y="0">hnological Un</tspan><tspan class="cls-20" x="275.87" y="0">i</tspan><tspan class="cls-21" x="282.82" y="0">v</tspan><tspan x="294.42" y="0">ersity</tspan></text></svg>